<?xml version="1.0" standalone="no"?>
<!DOCTYPE svg
  PUBLIC '-//W3C//DTD SVG 1.1//EN'
  'http://www.w3.org/Graphics/SVG/1.1/DTD/svg11.dtd'><svg version="1.1" xmlns="http://www.w3.org/2000/svg"><defs><font horiz-adv-x="0" id="font"><font-face ascent="750" bbox="-201 -320 1159 1065" cap-height="700" descent="-250" font-family="WEB Boing 2" font-stretch="normal" font-style="normal" font-weight="700" units-per-em="1000" x-height="495" /><missing-glyph d="" horiz-adv-x="0" /><glyph d="" glyph-name=".null" horiz-adv-x="0" unicode="" /><glyph d="" glyph-name="nonmarkingreturn" horiz-adv-x="0" unicode="" /><glyph d="" glyph-name="space" horiz-adv-x="184" unicode=" " /><glyph d="M238 269Q238 258 231 251Q224 244 213 244H83Q72 244 65 251Q58 258 58 269V676Q58 686 65 693Q72 700 83 700H213Q224 700 231 693Q238 686 238 676ZM148 -15Q126 -15 107 -6.5Q88 2 74 16Q60 30 51.5 49.5Q43 69 43 90Q43 112 51.5 131Q60 150 74 164.5Q88 179 107 187.5Q126 196 148 196Q170 196 189 187.5Q208 179 222.5 164.5Q237 150 245.5 131Q254 112 254 90Q254 69 245.5 49.5Q237 30 222.5 16Q208 2 189 -6.5Q170 -15 148 -15Z" glyph-name="exclam" horiz-adv-x="296" unicode="!" /><glyph d="M67 367Q57 367 50 374Q43 381 43 391V677Q43 687 50 693.5Q57 700 67 700H189Q199 700 206 693.5Q213 687 213 677V391Q213 381 206 374Q199 367 189 367ZM285 367Q275 367 268 374Q261 381 261 391V677Q261 687 268 693.5Q275 700 285 700H407Q417 700 424 693.5Q431 687 431 677V391Q431 381 424 374Q417 367 407 367Z" glyph-name="quotedbl" horiz-adv-x="474" unicode="&quot;" /><glyph d="M374 407 257 407V292H374ZM257 24Q257 14 250.5 7Q244 0 234 0H178Q168 0 161 7Q154 14 154 24V193H53Q43 193 36.5 200Q30 207 30 217V269Q30 279 36.5 285.5Q43 292 53 292H154V407H53Q43 407 36.5 414Q30 421 30 431V483Q30 493 36.5 499.5Q43 506 53 506H154V677Q154 687 161 693.5Q168 700 178 700H234Q244 700 250.5 693.5Q257 687 257 677V506H374V677Q374 687 381 693.5Q388 700 398 700H454Q464 700 470.5 693.5Q477 687 477 677V506H576Q586 506 593 499.5Q600 493 600 483V431Q600 421 593 414Q586 407 576 407H477V292H576Q586 292 593 285.5Q600 279 600 269V217Q600 207 593 200Q586 193 576 193H477V24Q477 14 470.5 7Q464 0 454 0H398Q388 0 381 7Q374 14 374 24V193H257Z" glyph-name="numbersign" horiz-adv-x="630" unicode="#" /><glyph d="M295 455 295 553Q269 549 252 536.5Q235 524 235 505Q235 488 247.5 475.5Q260 463 289 456ZM419 200Q419 222 403.5 235Q388 248 359 256V148Q389 154 404 168.5Q419 183 419 200ZM319 -96Q309 -96 302 -89Q295 -82 295 -72V-14Q206 -9 144 18.5Q82 46 47 81Q30 98 26.5 118.5Q23 139 43 155L121 217Q138 231 153 226Q168 221 180 208Q201 187 230 171Q259 155 295 149V271L219 288Q181 296 148 313.5Q115 331 91 356.5Q67 382 53.5 415.5Q40 449 40 490Q40 536 59 575.5Q78 615 111.5 644.5Q145 674 192 692.5Q239 711 295 714V773Q295 783 302 789.5Q309 796 319 796H335Q345 796 352 789.5Q359 783 359 773V713Q434 707 486.5 683Q539 659 565 636Q578 625 582.5 615Q587 605 587 596.5Q587 588 583.5 581.5Q580 575 575 570L511 505Q498 492 482 492Q466 492 449 504Q429 519 406.5 531Q384 543 359 550V440L417 427Q459 418 495.5 401.5Q532 385 559 359.5Q586 334 601.5 298.5Q617 263 617 216Q617 176 601.5 137Q586 98 554 66Q522 34 473.5 12.5Q425 -9 359 -14V-72Q359 -82 352 -89Q345 -96 335 -96Z" glyph-name="dollar" horiz-adv-x="645" unicode="$" /><glyph d="M171 707Q207 707 234 693Q261 679 279 655Q297 631 306 598Q315 565 315 526Q315 487 306 453.5Q297 420 279 395.5Q261 371 234 357Q207 343 171 343Q136 343 109 357Q82 371 64 395.5Q46 420 37 453.5Q28 487 28 526Q28 565 37 598Q46 631 64 655Q82 679 109 693Q136 707 171 707ZM107 0Q88 0 83.5 12Q79 24 87 36L525 681Q530 689 536.5 694.5Q543 700 559 700H592Q611 700 615.5 688Q620 676 612 664L174 19Q169 11 162.5 5.5Q156 0 140 0ZM122 523Q122 463 136 441.5Q150 420 171 420Q192 420 206.5 441.5Q221 463 221 523Q221 585 206.5 607.5Q192 630 171 630Q150 630 136 607.5Q122 585 122 523ZM530 354Q566 354 593 340Q620 326 638 302Q656 278 665 245Q674 212 674 173Q674 134 665 100.5Q656 67 638 42.5Q620 18 593 4Q566 -10 530 -10Q495 -10 468 4Q441 18 423 42.5Q405 67 396 100.5Q387 134 387 173Q387 212 396 245Q405 278 423 302Q441 326 468 340Q495 354 530 354ZM481 170Q481 109 495 88Q509 67 530 67Q551 67 565.5 88Q580 109 580 170Q580 232 565.5 254.5Q551 277 530 277Q509 277 495 254.5Q481 232 481 170Z" glyph-name="percent" horiz-adv-x="701" unicode="%" /><glyph d="M263 538Q263 527 272 510Q281 493 300 475L319 488Q339 502 347 516.5Q355 531 355 542Q355 564 340.5 575Q326 586 309 586Q291 586 277 573.5Q263 561 263 538ZM294 133Q309 133 330.5 138.5Q352 144 375 159L249 290L241 284Q222 270 211.5 250Q201 230 201 210Q201 177 226 155Q251 133 294 133ZM478 52Q447 29 419 15.5Q391 2 365 -4.5Q339 -11 315.5 -13Q292 -15 271 -15Q221 -15 176 0Q131 15 96.5 43Q62 71 42 111Q22 151 22 200Q22 261 50 305.5Q78 350 126 382L148 397Q128 420 112.5 453.5Q97 487 97 528Q97 562 111 595.5Q125 629 151.5 656Q178 683 217.5 699.5Q257 716 308 716Q356 716 393.5 701.5Q431 687 456 663Q481 639 494 607.5Q507 576 507 543Q507 489 478 451Q449 413 411 390L394 380L473 299Q486 338 492 390Q494 400 499.5 405Q505 410 519 410H641Q650 410 658 404.5Q666 399 666 386Q666 379 662 357.5Q658 336 649.5 306Q641 276 628 241Q615 206 597 172L731 35Q743 22 737 11Q731 0 720 0H549Q533 0 526.5 3.5Q520 7 513 15Z" glyph-name="ampersand" horiz-adv-x="729" unicode="&amp;" /><glyph d="M99 508Q72 522 55.5 547.5Q39 573 39 604Q39 627 47.5 647Q56 667 71 682Q86 697 106.5 706Q127 715 151 715Q174 715 195 706.5Q216 698 231.5 682.5Q247 667 256.5 645Q266 623 266 596Q266 559 251 524Q236 489 214 459Q192 429 167 406Q142 383 123 370Q106 358 89 354.5Q72 351 56 362L40 373Q26 383 25.5 394.5Q25 406 33 416Z" glyph-name="quotesingle" horiz-adv-x="281" unicode="'" /><glyph d="M209 315Q209 205 228.5 114.5Q248 24 279 -63Q283 -74 287.5 -85.5Q292 -97 292 -104Q292 -109 288 -114.5Q284 -120 274 -120H210Q193 -120 183 -113Q173 -106 165 -97Q143 -72 117.5 -28Q92 16 70.5 71Q49 126 35 189Q21 252 21 315Q21 378 35 441Q49 504 70.5 559Q92 614 117.5 658Q143 702 165 727Q173 736 183 743Q193 750 210 750H274Q284 750 288 744.5Q292 739 292 734Q292 727 287.5 715.5Q283 704 279 693Q248 606 228.5 515.5Q209 425 209 315Z" glyph-name="parenleft" horiz-adv-x="309" unicode="(" /><glyph d="M100 315Q100 425 80.5 515.5Q61 606 30 693Q26 704 21.5 715.5Q17 727 17 734Q17 739 21 744.5Q25 750 35 750H99Q116 750 126 743Q136 736 144 727Q166 702 191.5 658Q217 614 238.5 559Q260 504 274 441Q288 378 288 315Q288 252 274 189Q260 126 238.5 71Q217 16 191.5 -28Q166 -72 144 -97Q136 -106 126 -113Q116 -120 99 -120H35Q25 -120 21 -114.5Q17 -109 17 -104Q17 -97 21.5 -85.5Q26 -74 30 -63Q61 24 80.5 114.5Q100 205 100 315Z" glyph-name="parenright" horiz-adv-x="309" unicode=")" /><glyph d="M328 262Q328 238 311.5 222Q295 206 271 206Q248 206 231 222Q214 238 214 262Q214 269 219 292Q224 315 230 342Q236 369 242 394Q248 419 250 431Q240 424 220 406.5Q200 389 178.5 371Q157 353 138.5 338Q120 323 113 319Q93 308 71 314.5Q49 321 37 342Q28 363 33 385Q38 407 61 420Q69 424 91.5 430Q114 436 141 443Q168 450 192.5 456.5Q217 463 229 468Q217 473 192.5 479.5Q168 486 141 493Q114 500 91.5 506Q69 512 61 516Q38 529 33 551Q28 573 37 594Q49 615 71 621.5Q93 628 113 617Q120 613 138.5 598Q157 583 178.5 565Q200 547 220 530Q240 513 250 505Q248 517 242 542Q236 567 230 594Q224 621 219 644Q214 667 214 674Q214 698 231 714.5Q248 731 271 731Q295 731 311.5 714.5Q328 698 328 674Q328 667 323 644Q318 621 312 594Q306 567 300 542Q294 517 292 505Q302 513 322 530Q342 547 363.5 565Q385 583 403.5 598Q422 613 429 617Q449 628 471 621.5Q493 615 505 594Q514 573 509 551Q504 529 481 516Q474 512 451 506Q428 500 401.5 493Q375 486 350 479.5Q325 473 313 468Q325 463 350 456.5Q375 450 401.5 443Q428 436 451 430Q474 424 481 420Q504 407 509 385Q514 363 505 342Q493 321 471 314.5Q449 308 429 319Q422 323 403.5 338Q385 353 363.5 371Q342 389 322 406.5Q302 424 292 431Q294 419 300 394Q306 369 312 342Q318 315 323 292Q328 269 328 262Z" glyph-name="asterisk" horiz-adv-x="542" unicode="*" /><glyph d="M376 638Q387 638 394 631Q401 624 401 613V435H570Q581 435 588 428Q595 421 595 410V290Q595 279 588 272Q581 265 570 265H401V86Q401 75 394 68Q387 61 376 61H246Q235 61 228 68Q221 75 221 86V265H53Q42 265 35 272Q28 279 28 290V410Q28 421 35 428Q42 435 53 435H221V613Q221 624 228 631Q235 638 246 638Z" glyph-name="plus" horiz-adv-x="623" unicode="+" /><glyph d="M82 -1Q56 12 40.5 36.5Q25 61 25 90Q25 112 33 131Q41 150 55.5 164.5Q70 179 89.5 187.5Q109 196 132 196Q154 196 173.5 188Q193 180 208 165.5Q223 151 232 130Q241 109 241 83Q241 48 226.5 14.5Q212 -19 191 -47.5Q170 -76 146.5 -98Q123 -120 105 -132Q88 -143 72 -146.5Q56 -150 41 -140L26 -129Q13 -120 12.5 -109Q12 -98 20 -88Z" glyph-name="comma" horiz-adv-x="268" unicode="," /><glyph d="M67 215Q56 215 49 222Q42 229 42 240V370Q42 381 49 388Q56 395 67 395H327Q338 395 345 388Q352 381 352 370V240Q352 229 345 222Q338 215 327 215Z" glyph-name="hyphen" horiz-adv-x="394" unicode="-" /><glyph d="M129 -15Q107 -15 88 -6.5Q69 2 55 16Q41 30 32.5 49.5Q24 69 24 90Q24 112 32.5 131Q41 150 55 164.5Q69 179 88 187.5Q107 196 129 196Q151 196 170 187.5Q189 179 203.5 164.5Q218 150 226.5 131Q235 112 235 90Q235 69 226.5 49.5Q218 30 203.5 16Q189 2 170 -6.5Q151 -15 129 -15Z" glyph-name="period" horiz-adv-x="259" unicode="." /><glyph d="M343 683Q348 694 353.5 697Q359 700 370 700H441Q459 700 463.5 689.5Q468 679 461 665L150 19Q146 11 140.5 5.5Q135 0 119 0H48Q29 0 25.5 12Q22 24 28 36Z" glyph-name="slash" horiz-adv-x="489" unicode="/" /><glyph d="M310 715Q379 715 431.5 689Q484 663 519.5 615.5Q555 568 572.5 501Q590 434 590 352Q590 269 572.5 201Q555 133 519.5 85Q484 37 431.5 11Q379 -15 310 -15Q241 -15 188.5 11Q136 37 100.5 85Q65 133 47.5 201Q30 269 30 352Q30 434 47.5 501Q65 568 100.5 615.5Q136 663 188.5 689Q241 715 310 715ZM310 134Q332 134 350 145Q368 156 381 181Q394 206 401 246.5Q408 287 408 346Q408 409 401 451Q394 493 381 518.5Q368 544 350 555Q332 566 310 566Q288 566 270 555Q252 544 239 518.5Q226 493 219 451Q212 409 212 346Q212 287 219 246.5Q226 206 239 181Q252 156 270 145Q288 134 310 134Z" glyph-name="zero" horiz-adv-x="620" unicode="0" /><glyph d="M12 587Q12 615 38 615H52Q84 615 107 632.5Q130 650 145 678Q153 692 162.5 696Q172 700 183 700H261Q272 700 279 693Q286 686 286 676V25Q286 14 279 7Q272 0 261 0H136Q125 0 118 7Q111 14 111 25V467H37Q26 467 19 474Q12 481 12 492Z" glyph-name="one" horiz-adv-x="348" unicode="1" /><glyph d="M60 0Q50 0 43 7Q36 14 36 24V119Q36 139 43.5 149Q51 159 56 163L243 314Q303 362 335.5 399.5Q368 437 368 478Q368 515 343 535.5Q318 556 283 556Q261 556 244.5 548.5Q228 541 216 529.5Q204 518 196 504.5Q188 491 184 479Q176 457 164 448.5Q152 440 132 447L41 477Q28 482 22.5 492.5Q17 503 20 517Q29 553 50 588.5Q71 624 104.5 652Q138 680 184.5 697.5Q231 715 290 715Q344 715 391 700Q438 685 473 655.5Q508 626 528 583.5Q548 541 548 487Q548 444 531 405.5Q514 367 487.5 334Q461 301 428 272Q395 243 363 218L280 153H529Q540 153 546.5 146Q553 139 553 129V24Q553 14 546.5 7Q540 0 529 0Z" glyph-name="two" horiz-adv-x="583" unicode="2" /><glyph d="M287 436Q317 436 341 452.5Q365 469 365 502Q365 531 344.5 548.5Q324 566 293 566Q276 566 262 560Q248 554 237.5 544.5Q227 535 219.5 524Q212 513 207 504Q200 490 190.5 487Q181 484 170 489L78 527Q49 539 60 568Q70 593 89.5 619Q109 645 139.5 666.5Q170 688 211.5 701.5Q253 715 307 715Q355 715 396.5 702Q438 689 468.5 665Q499 641 516.5 607Q534 573 534 530Q534 483 508.5 445Q483 407 441 392Q468 384 491.5 370Q515 356 533 335Q551 314 561.5 284.5Q572 255 572 217Q572 163 551 120Q530 77 493 47Q456 17 405 1Q354 -15 294 -15Q232 -15 180.5 2.5Q129 20 91.5 51Q54 82 33 126Q12 170 12 222V239Q12 249 19.5 256Q27 263 38 263H164Q175 263 182.5 256Q190 249 190 239V234Q190 192 216.5 163.5Q243 135 293 135Q341 135 365.5 160Q390 185 390 218Q390 252 364.5 275Q339 298 291 298H267Q257 298 250 305Q243 312 243 323V410Q243 421 250 428.5Q257 436 268 436Z" glyph-name="three" horiz-adv-x="598" unicode="3" /><glyph d="M37 172Q26 172 19 179Q12 186 12 197V293Q12 310 14.5 325.5Q17 341 28 358L262 680Q268 689 276 694.5Q284 700 297 700H476Q487 700 494.5 693Q502 686 502 676V314H561Q572 314 579 307Q586 300 586 289V197Q586 186 579 179Q572 172 561 172H502V25Q502 14 494.5 7Q487 0 476 0H349Q338 0 331 7Q324 14 324 25V172ZM324 314 324 531L169 314Z" glyph-name="four" horiz-adv-x="605" unicode="4" /><glyph d="M281 -15Q196 -15 130 16.5Q64 48 24 101Q15 113 19 125Q23 137 34 146L103 206Q120 221 134 215Q148 209 156 201Q165 192 177 182Q189 172 204.5 163Q220 154 238 148Q256 142 276 142Q323 142 355 167Q387 192 387 234Q387 257 378 273.5Q369 290 354.5 300.5Q340 311 322 316.5Q304 322 285 322Q259 322 237 312.5Q215 303 200 291Q188 282 174 285L61 310Q41 315 43 334L66 675Q67 686 74 693Q81 700 92 700H499Q510 700 517 693Q524 686 524 675V565Q524 554 517 547Q510 540 499 540H205L197 434Q252 468 326 468Q373 468 416 452.5Q459 437 492.5 408Q526 379 546 336Q566 293 566 238Q566 187 546 141.5Q526 96 489 61Q452 26 399.5 5.5Q347 -15 281 -15Z" glyph-name="five" horiz-adv-x="586" unicode="5" /><glyph d="M317 -15Q253 -15 199.5 6Q146 27 107.5 65Q69 103 47.5 155Q26 207 26 269Q26 340 50.5 401.5Q75 463 112 515Q149 567 191 610Q233 653 268 687Q276 695 285 697.5Q294 700 305 700H443Q462 700 466 683.5Q470 667 458 655L251 441Q302 470 359 470Q410 470 454 452.5Q498 435 530.5 404.5Q563 374 581 333Q599 292 599 245Q599 191 578.5 143.5Q558 96 520.5 61Q483 26 431 5.5Q379 -15 317 -15ZM315 338Q271 338 241.5 308.5Q212 279 212 237Q212 195 241.5 165.5Q271 136 315 136Q359 136 388.5 165.5Q418 195 418 237Q418 279 388.5 308.5Q359 338 315 338Z" glyph-name="six" horiz-adv-x="608" unicode="6" /><glyph d="M540 611Q540 588 536 576.5Q532 565 527 554L277 19Q272 10 266.5 5Q261 0 245 0H100Q82 0 77 12Q72 24 79 37L338 540H39Q28 540 20.5 547Q13 554 13 565V675Q13 686 20.5 693Q28 700 39 700H515Q526 700 533 693Q540 686 540 675Z" glyph-name="seven" horiz-adv-x="556" unicode="7" /><glyph d="M317 -15Q246 -15 191.5 3.5Q137 22 100 52.5Q63 83 44 123.5Q25 164 25 209Q25 242 35 269.5Q45 297 61.5 319Q78 341 98.5 356Q119 371 141 380Q108 398 82.5 434Q57 470 57 521Q57 564 76 600Q95 636 129.5 661.5Q164 687 212 701Q260 715 317 715Q374 715 422 701Q470 687 504.5 661.5Q539 636 558 600Q577 564 577 521Q577 470 551.5 434Q526 398 493 380Q515 371 535.5 356Q556 341 572.5 319Q589 297 599 269.5Q609 242 609 209Q609 164 590 123.5Q571 83 534 52.5Q497 22 442.5 3.5Q388 -15 317 -15ZM317 440Q355 440 381.5 459.5Q408 479 408 511Q408 541 381.5 560Q355 579 317 579Q279 579 253 560Q227 541 227 511Q227 479 253 459.5Q279 440 317 440ZM317 303Q271 303 240.5 278.5Q210 254 210 216Q210 179 240.5 154.5Q271 130 317 130Q363 130 393.5 154.5Q424 179 424 216Q424 254 393.5 278.5Q363 303 317 303Z" glyph-name="eight" horiz-adv-x="634" unicode="8" /><glyph d="M166 0Q147 0 143 16.5Q139 33 151 45L358 259Q307 230 250 230Q199 230 155 247.5Q111 265 78.5 295.5Q46 326 28 367Q10 408 10 455Q10 509 30.5 556.5Q51 604 88.5 639Q126 674 178 694.5Q230 715 292 715Q356 715 409.5 694Q463 673 501.5 635Q540 597 561.5 545Q583 493 583 431Q583 360 558.5 298.5Q534 237 497 185Q460 133 418 90Q376 47 341 13Q333 5 324 2.5Q315 0 304 0ZM294 362Q338 362 367.5 391.5Q397 421 397 463Q397 505 367.5 534.5Q338 564 294 564Q250 564 220.5 534.5Q191 505 191 463Q191 421 220.5 391.5Q250 362 294 362Z" glyph-name="nine" horiz-adv-x="609" unicode="9" /><glyph d="M138 284Q116 284 97 292.5Q78 301 64 315Q50 329 41.5 348Q33 367 33 389Q33 411 41.5 430Q50 449 64 463.5Q78 478 97 486.5Q116 495 138 495Q160 495 179 486.5Q198 478 212.5 463.5Q227 449 235.5 430Q244 411 244 389Q244 367 235.5 348Q227 329 212.5 315Q198 301 179 292.5Q160 284 138 284ZM138 -15Q116 -15 97 -6.5Q78 2 64 16Q50 30 41.5 49.5Q33 69 33 90Q33 112 41.5 131Q50 150 64 164.5Q78 179 97 187.5Q116 196 138 196Q160 196 179 187.5Q198 179 212.5 164.5Q227 150 235.5 131Q244 112 244 90Q244 69 235.5 49.5Q227 30 212.5 16Q198 2 179 -6.5Q160 -15 138 -15Z" glyph-name="colon" horiz-adv-x="277" unicode=":" /><glyph d="M140 284Q118 284 99 292.5Q80 301 66 315Q52 329 43.5 348Q35 367 35 389Q35 411 43.5 430Q52 449 66 463.5Q80 478 99 486.5Q118 495 140 495Q162 495 181 486.5Q200 478 214.5 463.5Q229 449 237.5 430Q246 411 246 389Q246 367 237.5 348Q229 329 214.5 315Q200 301 181 292.5Q162 284 140 284ZM90 -1Q64 12 48.5 36.5Q33 61 33 90Q33 112 41 131Q49 150 63.5 164.5Q78 179 97.5 187.5Q117 196 140 196Q162 196 181.5 188Q201 180 216 165.5Q231 151 240 130Q249 109 249 83Q249 48 234.5 14.5Q220 -19 199 -47.5Q178 -76 154.5 -98Q131 -120 113 -132Q96 -143 80 -146.5Q64 -150 49 -140L34 -129Q21 -120 20.5 -109Q20 -98 28 -88Z" glyph-name="semicolon" horiz-adv-x="282" unicode=";" /><glyph d="M554 66Q554 43 538 37.5Q522 32 505 42L58 277Q36 288 30.5 308Q25 328 25 345Q25 363 30.5 382.5Q36 402 57 413L505 648Q522 658 538 652.5Q554 647 554 624V491Q554 476 544 468Q534 460 520 453L298 345L520 237Q534 230 544 222Q554 214 554 199Z" glyph-name="less" horiz-adv-x="608" unicode="&lt;" /><glyph d="M86 390Q75 390 68 397Q61 404 61 415V535Q61 546 68 553Q75 560 86 560H603Q614 560 621 553Q628 546 628 535V415Q628 404 621 397Q614 390 603 390ZM86 140Q75 140 68 147Q61 154 61 165V285Q61 296 68 303Q75 310 86 310H603Q614 310 621 303Q628 296 628 285V165Q628 154 621 147Q614 140 603 140Z" glyph-name="equal" horiz-adv-x="689" unicode="=" /><glyph d="M54 199Q54 214 64 222Q74 230 88 237L310 345L88 453Q74 460 64 468Q54 476 54 491V624Q54 647 70 652.5Q86 658 103 648L551 413Q572 402 577.5 382.5Q583 363 583 345Q583 328 577.5 308Q572 288 550 277L103 42Q86 32 70 37.5Q54 43 54 66Z" glyph-name="greater" horiz-adv-x="607" unicode="&gt;" /><glyph d="M252 715Q312 715 355 697Q398 679 425.5 651Q453 623 465.5 588Q478 553 478 519Q478 473 458.5 435.5Q439 398 415.5 368Q392 338 372.5 314.5Q353 291 353 272V268Q353 256 345.5 250Q338 244 328 244H202Q191 244 184 251Q177 258 177 269V296Q177 323 195 351Q213 379 234 405.5Q255 432 273 457Q291 482 291 504Q291 519 278 536.5Q265 554 233 554Q205 554 185.5 541Q166 528 147 508Q136 497 120.5 494.5Q105 492 92 504L37 556Q33 561 28.5 567.5Q24 574 23.5 583.5Q23 593 27 604.5Q31 616 43 629Q55 642 73.5 657Q92 672 118 685Q144 698 177.5 706.5Q211 715 252 715ZM266 -15Q244 -15 225 -6.5Q206 2 192 16Q178 30 169.5 49.5Q161 69 161 90Q161 112 169.5 131Q178 150 192 164.5Q206 179 225 187.5Q244 196 266 196Q288 196 307 187.5Q326 179 340.5 164.5Q355 150 363.5 131Q372 112 372 90Q372 69 363.5 49.5Q355 30 340.5 16Q326 2 307 -6.5Q288 -15 266 -15Z" glyph-name="question" horiz-adv-x="513" unicode="?" /><glyph d="M522 -235Q418 -235 328 -196Q238 -157 171.5 -90Q105 -23 67 65.5Q29 154 29 253Q29 366 70 457Q111 548 180 612.5Q249 677 339 711.5Q429 746 527 746Q617 746 701.5 715.5Q786 685 851.5 628Q917 571 956 488.5Q995 406 995 301Q995 239 980 184.5Q965 130 937 89Q909 48 868.5 24Q828 0 776 0Q718 0 687 24.5Q656 49 642 78Q622 43 581.5 21.5Q541 0 490 0Q441 0 397.5 19Q354 38 322 71Q290 104 271 149.5Q252 195 252 249Q252 302 271 347Q290 392 322 425Q354 458 397.5 476.5Q441 495 490 495Q532 495 568 479.5Q604 464 630 433V450Q630 460 637 466.5Q644 473 654 473H748Q760 473 767 466.5Q774 460 774 450V181Q774 156 780.5 144.5Q787 133 804 133Q814 133 824.5 141Q835 149 844 169Q853 189 859 222.5Q865 256 865 307Q865 382 836.5 441.5Q808 501 761.5 542.5Q715 584 655 605.5Q595 627 532 627Q463 627 397.5 603Q332 579 281 531.5Q230 484 199 415Q168 346 168 256Q168 177 198.5 109.5Q229 42 280 -8Q331 -58 398 -86.5Q465 -115 539 -115Q577 -115 615 -109Q653 -103 687 -89Q714 -79 737 -62Q740 -60 751.5 -54Q763 -48 775 -59L835 -113Q842 -119 842 -125Q842 -131 838 -135Q794 -177 714 -206Q634 -235 522 -235ZM511 351Q469 351 443 323Q417 295 417 251Q417 209 443 180.5Q469 152 511 152Q552 152 578.5 180.5Q605 209 605 251Q605 295 578.5 323Q552 351 511 351Z" glyph-name="at" horiz-adv-x="1028" unicode="@" /><glyph d="M424 297 348 545L272 297ZM187 22Q184 13 178 6.5Q172 0 162 0H27Q12 0 5 11Q-2 22 5 41L220 675Q225 689 234 694.5Q243 700 251 700H454Q462 700 471 694.5Q480 689 485 675L700 41Q707 21 699.5 10.5Q692 0 677 0H534Q515 0 509 22L471 147H225Z" glyph-name="A" horiz-adv-x="705" unicode="A" /><glyph d="M395 700Q463 700 508.5 682.5Q554 665 581.5 638.5Q609 612 620.5 580Q632 548 632 519Q632 482 613 442.5Q594 403 544 380Q580 367 603.5 347Q627 327 640.5 304Q654 281 659.5 256.5Q665 232 665 209Q665 170 649.5 132.5Q634 95 604 65.5Q574 36 529.5 18Q485 0 427 0H72Q61 0 54 6.5Q47 13 47 24V676Q47 686 53.5 693Q60 700 72 700ZM447 494Q447 519 428.5 540Q410 561 367 561H227V427H367Q410 427 428.5 448Q447 469 447 494ZM227 296 227 139H391Q432 139 455 162.5Q478 186 478 218Q478 250 455 273Q432 296 391 296Z" glyph-name="B" horiz-adv-x="682" unicode="B" /><glyph d="M394 -15Q315 -15 246 13.5Q177 42 126 91.5Q75 141 46 207.5Q17 274 17 350Q17 426 46 492.5Q75 559 126 608.5Q177 658 246 686.5Q315 715 394 715Q452 715 505 700Q558 685 602 657.5Q646 630 679.5 590Q713 550 732 500Q734 495 734.5 486.5Q735 478 721 474L581 436Q567 432 562 438.5Q557 445 555 449Q532 490 493.5 519Q455 548 395 548Q353 548 318.5 532.5Q284 517 258.5 490Q233 463 219 427Q205 391 205 350Q205 309 219 273Q233 237 258.5 210Q284 183 318.5 167.5Q353 152 395 152Q455 152 493.5 181Q532 210 555 251Q557 255 562 261.5Q567 268 581 264L721 226Q735 222 734.5 213.5Q734 205 732 200Q713 150 679.5 110Q646 70 602 42.5Q558 15 505 0Q452 -15 394 -15Z" glyph-name="C" horiz-adv-x="735" unicode="C" /><glyph d="M370 700Q447 700 512 675Q577 650 623.5 604.5Q670 559 696 494.5Q722 430 722 352Q722 274 696 209Q670 144 623.5 97.5Q577 51 512 25.5Q447 0 370 0H72Q61 0 54 7Q47 14 47 25V676Q47 686 54 693Q61 700 72 700ZM366 165Q404 165 434.5 180.5Q465 196 487.5 222Q510 248 522 281.5Q534 315 534 352Q534 389 522 422Q510 455 487.5 480Q465 505 434.5 520Q404 535 366 535H227V165Z" glyph-name="D" horiz-adv-x="741" unicode="D" /><glyph d="M588 700Q599 700 606 693Q613 686 613 675V560Q613 549 606 542Q599 535 588 535H227V430H417Q428 430 435 423Q442 416 442 405V295Q442 284 435 277Q428 270 417 270H227V165H598Q609 165 616 158Q623 151 623 140V25Q623 14 616 7Q609 0 598 0H72Q61 0 54 7Q47 14 47 25V676Q47 686 54 693Q61 700 72 700Z" glyph-name="E" horiz-adv-x="642" unicode="E" /><glyph d="M512 250Q512 239 505 232Q498 225 487 225H227V25Q227 14 220 7Q213 0 202 0H72Q61 0 54 7Q47 14 47 25V676Q47 686 54 693Q61 700 72 700H573Q584 700 591 693Q598 686 598 675V560Q598 549 591 542Q584 535 573 535H227V385H487Q498 385 505 378Q512 371 512 360Z" glyph-name="F" horiz-adv-x="614" unicode="F" /><glyph d="M399 715Q459 715 514.5 700Q570 685 616.5 657.5Q663 630 698 590Q733 550 752 500Q754 495 754.5 486.5Q755 478 741 474L601 436Q587 432 582 438.5Q577 445 575 449Q549 491 507 519.5Q465 548 400 548Q358 548 322.5 532Q287 516 261 488.5Q235 461 220 424.5Q205 388 205 347Q205 304 220 267.5Q235 231 261.5 205Q288 179 325 164Q362 149 405 149Q447 149 492 165.5Q537 182 575 231H412Q401 231 394 238Q387 245 387 256V350Q387 361 394 368Q401 375 412 375H726Q737 375 744 368Q751 361 751 350V25Q751 14 744 7Q737 0 726 0H611Q600 0 593 7Q586 14 586 25V65Q550 27 498 6Q446 -15 374 -15Q298 -15 233 13.5Q168 42 120 91.5Q72 141 44.5 207.5Q17 274 17 350Q17 426 46 492.5Q75 559 126.5 608.5Q178 658 248 686.5Q318 715 399 715Z" glyph-name="G" horiz-adv-x="786" unicode="G" /><glyph d="M691 25Q691 14 684 7Q677 0 666 0H536Q525 0 518 7Q511 14 511 25V270H227V25Q227 14 220 7Q213 0 202 0H72Q61 0 54 7Q47 14 47 25V676Q47 686 54 693Q61 700 72 700H202Q213 700 220 693Q227 686 227 676V430H511V676Q511 686 518 693Q525 700 536 700H666Q677 700 684 693Q691 686 691 676Z" glyph-name="H" horiz-adv-x="738" unicode="H" /><glyph d="M72 0Q61 0 54 7Q47 14 47 25V676Q47 686 54 693Q61 700 72 700H202Q213 700 220 693Q227 686 227 676V25Q227 14 220 7Q213 0 202 0Z" glyph-name="I" horiz-adv-x="274" unicode="I" /><glyph d="M571 242Q571 174 547 125.5Q523 77 484 45.5Q445 14 395 -0.5Q345 -15 292 -15Q239 -15 189 -1Q139 13 100.5 44Q62 75 38.5 123.5Q15 172 15 242V286Q15 296 22 303Q29 310 40 310H170Q181 310 188 303Q195 296 195 286V247Q195 229 200.5 212Q206 195 217.5 181Q229 167 247.5 158.5Q266 150 292 150Q318 150 337 158.5Q356 167 368 181Q380 195 385.5 212Q391 229 391 247V676Q391 686 398 693Q405 700 416 700H546Q557 700 564 693Q571 686 571 676Z" glyph-name="J" horiz-adv-x="612" unicode="J" /><glyph d="M446 364 669 33Q679 19 673.5 9.5Q668 0 657 0H504Q488 0 478.5 3.5Q469 7 461 20L301 270H227V25Q227 14 220 7Q213 0 202 0H72Q61 0 54 7Q47 14 47 25V676Q47 686 54 693Q61 700 72 700H202Q213 700 220 693Q227 686 227 676V430H295L469 675Q478 688 487 694Q496 700 514 700H652Q668 700 673.5 690Q679 680 670 668Z" glyph-name="K" horiz-adv-x="670" unicode="K" /><glyph d="M568 25Q568 14 561 7Q554 0 543 0H72Q61 0 54 7Q47 14 47 24V675Q47 686 54 693Q61 700 72 700H202Q213 700 220 693Q227 686 227 675V165H543Q554 165 561 158Q568 151 568 140Z" glyph-name="L" horiz-adv-x="577" unicode="L" /><glyph d="M388 155Q375 155 367.5 159Q360 163 353 179L225 470V24Q225 13 218.5 6.5Q212 0 201 0H71Q60 0 53.5 6.5Q47 13 47 24V676Q47 686 54 693Q61 700 72 700H285Q296 700 305 696Q314 692 320 678L439 390L559 678Q565 692 574 696Q583 700 594 700H802Q813 700 820 693Q827 686 827 676V24Q827 13 820.5 6.5Q814 0 803 0H673Q662 0 655.5 6.5Q649 13 649 24V470L521 179Q514 163 506.5 159Q499 155 486 155Z" glyph-name="M" horiz-adv-x="874" unicode="M" /><glyph d="M227 416 227 24Q227 13 220.5 6.5Q214 0 203 0H72Q61 0 54 6.5Q47 13 47 24V676Q47 686 54 693Q61 700 72 700H242Q253 700 261 696Q269 692 276 680L501 301V676Q501 686 508 693Q515 700 525 700H656Q666 700 673.5 693Q681 686 681 676V24Q681 13 673.5 6.5Q666 0 656 0H515Q478 0 463 25Z" glyph-name="N" horiz-adv-x="728" unicode="N" /><glyph d="M773 350Q773 274 744 207.5Q715 141 664 91.5Q613 42 544 13.5Q475 -15 395 -15Q316 -15 247 13.5Q178 42 127 91.5Q76 141 46.5 207.5Q17 274 17 350Q17 426 46.5 492.5Q76 559 127 608.5Q178 658 247 686.5Q316 715 395 715Q475 715 544 686.5Q613 658 664 608.5Q715 559 744 492.5Q773 426 773 350ZM585 350Q585 391 571 427Q557 463 531.5 490Q506 517 471.5 532.5Q437 548 395 548Q353 548 318.5 532.5Q284 517 258.5 490Q233 463 219 427Q205 391 205 350Q205 309 219 273Q233 237 258.5 210Q284 183 318.5 167.5Q353 152 395 152Q437 152 471.5 167.5Q506 183 531.5 210Q557 237 571 273Q585 309 585 350Z" glyph-name="O" horiz-adv-x="790" unicode="O" /><glyph d="M227 24Q227 13 220 6.5Q213 0 203 0H72Q61 0 54 6.5Q47 13 47 24V676Q47 686 54 693Q61 700 72 700H366Q422 700 466 680.5Q510 661 541 628.5Q572 596 588.5 552.5Q605 509 605 461Q604 412 587 369Q570 326 539 293.5Q508 261 464.5 242Q421 223 366 223H227ZM335 380Q371 381 394 404Q417 427 417 462Q417 497 394 520Q371 543 335 543H227V380Z" glyph-name="P" horiz-adv-x="615" unicode="P" /><glyph d="M395 152Q436 152 473 168L382 249Q374 256 374.5 266Q375 276 382 284L444 354Q451 362 461.5 362.5Q472 363 480 356L571 274Q585 310 585 350Q585 391 571 427Q557 463 531.5 490Q506 517 471.5 532.5Q437 548 395 548Q353 548 318.5 532.5Q284 517 258.5 490Q233 463 219 427Q205 391 205 350Q205 309 219 273Q233 237 258.5 210Q284 183 318.5 167.5Q353 152 395 152ZM610 48Q564 18 509.5 1.5Q455 -15 395 -15Q316 -15 247 13.5Q178 42 127 91.5Q76 141 46.5 207.5Q17 274 17 350Q17 426 46.5 492.5Q76 559 127 608.5Q178 658 247 686.5Q316 715 395 715Q475 715 544 686.5Q613 658 664 608.5Q715 559 744 492.5Q773 426 773 350Q773 293 756.5 242.5Q740 192 711 148L767 98Q775 90 775 80.5Q775 71 767 63L705 -4Q697 -12 687 -12Q677 -12 669 -4Z" glyph-name="Q" horiz-adv-x="790" unicode="Q" /><glyph d="M371 391Q405 391 429.5 412.5Q454 434 454 469Q454 504 429.5 523.5Q405 543 373 543H227V391ZM503 0Q486 0 477 5.5Q468 11 459 26L323 247H227V25Q227 14 220 7Q213 0 202 0H72Q61 0 54 6.5Q47 13 47 24V676Q47 684 53 692Q59 700 72 700H397Q453 700 498.5 682.5Q544 665 576 635Q608 605 625.5 564.5Q643 524 643 479Q643 455 636.5 426Q630 397 614 368.5Q598 340 572.5 315.5Q547 291 508 277L664 35Q672 24 666.5 12Q661 0 645 0Z" glyph-name="R" horiz-adv-x="676" unicode="R" /><glyph d="M310 715Q355 715 393.5 707.5Q432 700 463 688.5Q494 677 517 663Q540 649 555 636Q568 625 572.5 615Q577 605 577 596.5Q577 588 573.5 581.5Q570 575 565 570L501 505Q488 492 472 492Q456 492 439 504Q410 525 377.5 540Q345 555 309 555Q274 555 249.5 541.5Q225 528 225 505Q225 488 237.5 475.5Q250 463 279 456L407 427Q449 418 485.5 401.5Q522 385 549 359.5Q576 334 591.5 298.5Q607 263 607 216Q607 174 589 132.5Q571 91 535 58.5Q499 26 444.5 5.5Q390 -15 316 -15Q215 -15 145 14Q75 43 37 81Q20 98 16.5 118.5Q13 139 33 155L111 217Q128 231 143 226Q158 221 170 208Q196 182 234 164Q272 146 320 146Q365 146 387 163Q409 180 409 200Q409 227 386.5 240.5Q364 254 319 264L209 288Q171 296 138 313.5Q105 331 81 356.5Q57 382 43.5 415.5Q30 449 30 490Q30 539 51 580Q72 621 109 651Q146 681 197.5 698Q249 715 310 715Z" glyph-name="S" horiz-adv-x="625" unicode="S" /><glyph d="M11 675Q11 686 18 693Q25 700 36 700H588Q599 700 606 693Q613 686 613 675V560Q613 549 606 542Q599 535 588 535H405V25Q405 14 398 7Q391 0 380 0H244Q233 0 226 7Q219 14 219 25V535H36Q25 535 18 542Q11 549 11 560Z" glyph-name="T" horiz-adv-x="624" unicode="T" /><glyph d="M647 257Q647 183 620.5 131.5Q594 80 551 47.5Q508 15 454 0Q400 -15 344 -15Q289 -15 234.5 0Q180 15 137 47.5Q94 80 67.5 131.5Q41 183 41 257V676Q41 686 48 693Q55 700 66 700H196Q207 700 214 693Q221 686 221 676V272Q221 217 253 183.5Q285 150 344 150Q403 150 435 183.5Q467 217 467 272V676Q467 686 474 693Q481 700 492 700H622Q633 700 640 693Q647 686 647 676Z" glyph-name="U" horiz-adv-x="688" unicode="U" /><glyph d="M249 0Q241 0 232 5.5Q223 11 218 25L5 659Q-2 679 5.5 689.5Q13 700 28 700H181Q200 700 206 678L349 196H351L493 678Q496 687 502 693.5Q508 700 518 700H663Q678 700 685 690Q692 680 685 660L472 25Q467 11 458 5.5Q449 0 441 0Z" glyph-name="V" horiz-adv-x="690" unicode="V" /><glyph d="M845 25Q842 11 829 5.5Q816 0 814 0H617Q609 0 599.5 5.5Q590 11 586 25L506 410L423 25Q420 11 410 5.5Q400 0 392 0H185Q177 0 167 5.5Q157 11 154 25L9 659Q4 680 13 690Q22 700 37 700H184Q194 700 200.5 692.5Q207 685 209 676L296 217L396 678Q399 688 403 694Q407 700 420 700H587Q597 700 603.5 693.5Q610 687 612 678L713 222L799 676Q801 685 807.5 692.5Q814 700 824 700H962Q978 700 986.5 691.5Q995 683 990 659Z" glyph-name="W" horiz-adv-x="999" unicode="W" /><glyph d="M210 20Q205 12 198 6Q191 0 176 0H20Q0 0 -3.5 13.5Q-7 27 1 38L207 356L13 662Q4 676 10.5 688Q17 700 33 700H188Q203 700 209 694.5Q215 689 220 681L337 488L450 681Q455 689 461 694.5Q467 700 482 700H630Q649 700 653 688Q657 676 649 663L458 358L662 37Q670 24 665.5 12Q661 0 642 0H486Q471 0 464.5 6.5Q458 13 453 21L329 216Z" glyph-name="X" horiz-adv-x="664" unicode="X" /><glyph d="M244 250 7 659Q-2 674 4.5 687Q11 700 26 700H186Q204 700 214 682L337 454H339L461 682Q471 700 489 700H642Q657 700 664.5 688.5Q672 677 661 659L424 250V25Q424 14 417 7Q410 0 400 0H269Q258 0 251 7Q244 14 244 25Z" glyph-name="Y" horiz-adv-x="668" unicode="Y" /><glyph d="M41 0Q30 0 23 7Q16 14 16 25V111Q16 122 20.5 130Q25 138 30 145L343 542H59Q48 542 41 549Q34 556 34 566V675Q34 685 41 692.5Q48 700 59 700H555Q565 700 572 692.5Q579 685 579 675V572Q579 556 570 545L269 158H580Q590 158 597 151.5Q604 145 604 134V25Q604 14 597 7Q590 0 580 0Z" glyph-name="Z" horiz-adv-x="619" unicode="Z" /><glyph d="M352 648Q352 638 345 631.5Q338 625 328 625H224V22H328Q338 22 345 15.5Q352 9 352 -1V-79Q352 -89 345 -96Q338 -103 328 -103H85Q75 -103 67.5 -96.5Q60 -90 60 -80V727Q60 737 67.5 743.5Q75 750 85 750H328Q338 750 345 743Q352 736 352 726Z" glyph-name="bracketleft" horiz-adv-x="364" unicode="[" /><glyph d="M461 36Q467 24 463.5 12Q460 0 441 0H370Q354 0 348.5 5.5Q343 11 339 19L28 665Q21 679 25.5 689.5Q30 700 48 700H119Q130 700 135.5 697Q141 694 146 683Z" glyph-name="backslash" horiz-adv-x="489" unicode="\" /><glyph d="M12 726Q12 736 19 743Q26 750 36 750H279Q289 750 296.5 743.5Q304 737 304 727V-80Q304 -90 296.5 -96.5Q289 -103 279 -103H36Q26 -103 19 -96Q12 -89 12 -79V-1Q12 9 19 15.5Q26 22 36 22H140V625H36Q26 625 19 631.5Q12 638 12 648Z" glyph-name="bracketright" horiz-adv-x="364" unicode="]" /><glyph d="M56 205Q37 205 31 216Q25 227 32 244L209 676Q213 686 220 693Q227 700 239 700H385Q397 700 404 693Q411 686 415 676L592 244Q599 227 593 216Q587 205 568 205H434Q417 205 410 213Q403 221 400 229L312 473L224 229Q221 221 214 213Q207 205 190 205Z" glyph-name="asciicircum" horiz-adv-x="624" unicode="^" /><glyph d="M30 -200Q19 -200 12 -193Q5 -186 5 -175V-65Q5 -54 12 -47Q19 -40 30 -40H340Q351 -40 358 -47Q365 -54 365 -65V-175Q365 -186 358 -193Q351 -200 340 -200Z" glyph-name="underscore" horiz-adv-x="370" unicode="_" /><glyph d="M210 759Q233 759 238 739L273 577Q281 540 242 540H161Q151 540 144.5 543.5Q138 547 132 557L34 720Q26 733 32 746Q38 759 58 759Z" glyph-name="grave" horiz-adv-x="305" unicode="`" /><glyph d="M190 247Q190 226 198 207.5Q206 189 219.5 175Q233 161 251 153Q269 145 290 145Q311 145 329.5 153Q348 161 361.5 175Q375 189 382.5 207.5Q390 226 390 247Q390 268 382.5 286.5Q375 305 361.5 319Q348 333 329.5 341Q311 349 290 349Q269 349 251 341Q233 333 219.5 319Q206 305 198 286.5Q190 268 190 247ZM16 249Q16 310 37 358.5Q58 407 92.5 440.5Q127 474 172 492Q217 510 264 510Q309 510 342 495Q375 480 391 457V472Q391 482 398 488.5Q405 495 414 495H539Q549 495 555.5 488.5Q562 482 562 472V23Q562 13 555.5 6.5Q549 0 539 0H414Q404 0 397.5 6.5Q391 13 391 23V38Q375 15 341.5 0Q308 -15 263 -15Q216 -15 171.5 3.5Q127 22 92.5 56Q58 90 37 139Q16 188 16 249Z" glyph-name="a" horiz-adv-x="596" unicode="a" /><glyph d="M207 461Q227 484 261.5 497Q296 510 339 510Q387 510 431 492Q475 474 508 440.5Q541 407 560.5 358.5Q580 310 580 249Q580 188 560 139Q540 90 506.5 56Q473 22 429 3.5Q385 -15 336 -15Q319 -15 300.5 -12.5Q282 -10 264 -4.5Q246 1 230.5 9.5Q215 18 205 31V23Q205 13 198.5 6.5Q192 0 182 0H57Q47 0 40.5 6.5Q34 13 34 23V677Q34 687 40.5 693.5Q47 700 57 700H184Q193 700 200 693.5Q207 687 207 677ZM206 247Q206 226 214 207.5Q222 189 235.5 175Q249 161 267 153Q285 145 306 145Q327 145 345.5 153Q364 161 377.5 175Q391 189 398.5 207.5Q406 226 406 247Q406 268 398.5 286.5Q391 305 377.5 319Q364 333 345.5 341Q327 349 306 349Q285 349 267 341Q249 333 235.5 319Q222 305 214 286.5Q206 268 206 247Z" glyph-name="b" horiz-adv-x="597" unicode="b" /><glyph d="M511 96Q480 49 422.5 17Q365 -15 286 -15Q228 -15 178.5 5Q129 25 93 60.5Q57 96 36.5 144Q16 192 16 247Q16 303 36.5 351Q57 399 93 434Q129 469 178.5 489.5Q228 510 286 510Q365 510 422.5 478Q480 446 511 399Q518 387 513.5 374.5Q509 362 498 354L423 298Q406 286 394 293Q382 300 376 307Q359 327 338.5 338Q318 349 289 349Q245 349 217.5 319Q190 289 190 247Q190 205 217.5 175.5Q245 146 289 146Q318 146 338.5 157Q359 168 376 188Q382 195 394 202Q406 209 423 197L498 141Q509 133 513.5 120.5Q518 108 511 96Z" glyph-name="c" horiz-adv-x="524" unicode="c" /><glyph d="M191 247Q191 226 199 207.5Q207 189 220.5 175Q234 161 252 153Q270 145 291 145Q312 145 330.5 153Q349 161 362.5 175Q376 189 383.5 207.5Q391 226 391 247Q391 268 383.5 286.5Q376 305 362.5 319Q349 333 330.5 341Q312 349 291 349Q270 349 252 341Q234 333 220.5 319Q207 305 199 286.5Q191 268 191 247ZM17 249Q17 310 37.5 358.5Q58 407 92.5 440.5Q127 474 171 492Q215 510 261 510Q307 510 340.5 495Q374 480 390 460V677Q390 687 397 693.5Q404 700 413 700H540Q550 700 556.5 693.5Q563 687 563 677V23Q563 13 556.5 6.5Q550 0 540 0H415Q405 0 398.5 6.5Q392 13 392 23V38Q373 15 341 0Q309 -15 264 -15Q217 -15 172.5 3.5Q128 22 93.5 56Q59 90 38 139Q17 188 17 249Z" glyph-name="d" horiz-adv-x="597" unicode="d" /><glyph d="M282 510Q343 510 390.5 488.5Q438 467 470.5 432Q503 397 520 352.5Q537 308 537 263V232Q537 221 531.5 213.5Q526 206 509 206H194Q199 170 226 150.5Q253 131 285 131Q315 131 335.5 141Q356 151 373 169Q378 174 384.5 177Q391 180 400 175L502 113Q512 107 511 97Q510 87 506 82Q477 41 421.5 13Q366 -15 282 -15Q222 -15 173 5Q124 25 89 60.5Q54 96 35 143Q16 190 16 244Q16 300 35.5 348.5Q55 397 90.5 433Q126 469 175 489.5Q224 510 282 510ZM367 311Q356 345 331.5 359Q307 373 283 373Q257 373 233 357.5Q209 342 198 311Z" glyph-name="e" horiz-adv-x="549" unicode="e" /><glyph d="M94 495 94 549Q94 598 110.5 633.5Q127 669 154 691.5Q181 714 215.5 724.5Q250 735 286 735Q305 735 326.5 731.5Q348 728 369 721Q390 714 409 704Q428 694 442 680Q450 672 451 660.5Q452 649 444 638L392 563Q381 547 367.5 551Q354 555 346 561Q333 570 323 573.5Q313 577 306 577Q292 577 279.5 567Q267 557 267 531V495H356Q366 495 373 488.5Q380 482 380 472V376Q380 366 373 359Q366 352 356 352H267V24Q267 14 260.5 7Q254 0 244 0H118Q108 0 101 7Q94 14 94 24V352H33Q23 352 16.5 359Q10 366 10 376V472Q10 482 16.5 488.5Q23 495 33 495Z" glyph-name="f" horiz-adv-x="385" unicode="f" /><glyph d="M190 255Q190 213 219 185Q248 157 290 157Q332 157 361 185Q390 213 390 255Q390 297 361 325Q332 353 290 353Q248 353 219 325Q190 297 190 255ZM294 -88Q341 -88 366 -63Q391 -38 391 3V48Q376 28 343 14Q310 0 266 0Q216 0 171 18Q126 36 91.5 69Q57 102 36.5 149Q16 196 16 254Q16 312 36.5 359Q57 406 90.5 439.5Q124 473 168 491.5Q212 510 259 510Q304 510 339 494.5Q374 479 391 457V472Q391 482 398 488.5Q405 495 414 495H539Q549 495 555.5 488.5Q562 482 562 472V-2Q562 -55 543 -98Q524 -141 488.5 -172Q453 -203 402.5 -220Q352 -237 289 -237Q241 -237 198 -226Q155 -215 121 -195Q87 -175 63.5 -147.5Q40 -120 31 -87Q29 -82 30.5 -75Q32 -68 42 -65L171 -25Q189 -20 199 -37Q208 -53 230.5 -70.5Q253 -88 294 -88Z" glyph-name="g" horiz-adv-x="596" unicode="g" /><glyph d="M399 248Q399 294 373.5 322Q348 350 304 350Q260 350 233.5 322Q207 294 207 248V21Q207 12 199.5 6Q192 0 183 0H57Q47 0 40.5 6.5Q34 13 34 23V677Q34 687 40.5 693.5Q47 700 57 700H183Q192 700 199.5 694Q207 688 207 679V456Q230 476 267 493Q304 510 359 510Q408 510 447.5 493.5Q487 477 514.5 448Q542 419 557 380.5Q572 342 572 297V21Q572 12 564.5 6Q557 0 548 0H423Q414 0 406.5 6Q399 12 399 21Z" glyph-name="h" horiz-adv-x="601" unicode="h" /><glyph d="M121 528Q101 528 83 536Q65 544 51.5 557.5Q38 571 30 589Q22 607 22 627Q22 647 30 665Q38 683 51.5 696.5Q65 710 83 718Q101 726 121 726Q141 726 159 718Q177 710 190.5 696.5Q204 683 212 665Q220 647 220 627Q220 607 212 589Q204 571 190.5 557.5Q177 544 159 536Q141 528 121 528ZM58 0Q48 0 41 7Q34 14 34 24V472Q34 482 41 488.5Q48 495 58 495H184Q194 495 200.5 488.5Q207 482 207 472V24Q207 14 200.5 7Q194 0 184 0Z" glyph-name="i" horiz-adv-x="241" unicode="i" /><glyph d="M121 528Q101 528 83 536Q65 544 51.5 557.5Q38 571 30 589Q22 607 22 627Q22 647 30 665Q38 683 51.5 696.5Q65 710 83 718Q101 726 121 726Q141 726 159 718Q177 710 190.5 696.5Q204 683 212 665Q220 647 220 627Q220 607 212 589Q204 571 190.5 557.5Q177 544 159 536Q141 528 121 528ZM183 495Q193 495 200 488Q207 481 207 471V-41Q207 -96 189.5 -133.5Q172 -171 144.5 -194Q117 -217 82 -227Q47 -237 11 -237Q-8 -237 -29.5 -234Q-51 -231 -71 -224Q-91 -217 -109.5 -207Q-128 -197 -141 -182Q-149 -174 -149 -162Q-149 -150 -141 -139L-91 -72Q-80 -58 -69 -57Q-58 -56 -48 -63Q-36 -72 -26.5 -75.5Q-17 -79 -7 -79Q4 -79 19 -70.5Q34 -62 34 -33V471Q34 481 40.5 488Q47 495 57 495Z" glyph-name="j" horiz-adv-x="241" unicode="j" /><glyph d="M207 23Q207 13 200.5 6.5Q194 0 184 0H58Q48 0 41 6.5Q34 13 34 23V677Q34 687 41 693.5Q48 700 58 700H184Q194 700 200.5 693.5Q207 687 207 677V334H236L326 477Q333 488 341.5 491.5Q350 495 360 495H483Q501 495 506 482Q511 469 501 454L384 274L526 43Q536 27 529.5 13.5Q523 0 503 0H368Q348 0 337 20L240 187H207Z" glyph-name="k" horiz-adv-x="525" unicode="k" /><glyph d="M166 0Q128 0 102.5 10Q77 20 61 37.5Q45 55 38.5 78Q32 101 32 126V676Q32 686 39 693Q46 700 56 700H182Q192 700 198.5 693Q205 686 205 676V163Q205 155 210.5 149Q216 143 224 143H258Q266 143 273 138.5Q280 134 280 121V30Q280 10 268.5 5Q257 0 248 0Z" glyph-name="l" horiz-adv-x="287" unicode="l" /><glyph d="M207 21Q207 12 199.5 6Q192 0 183 0H57Q47 0 40.5 6.5Q34 13 34 23V472Q34 482 40.5 488.5Q47 495 57 495H183Q192 495 199.5 489Q207 483 207 474V456Q230 478 267 494Q304 510 348 510Q398 510 435 491.5Q472 473 495 442Q533 481 577.5 495.5Q622 510 660 510Q717 510 758.5 491.5Q800 473 826 443Q852 413 864.5 376Q877 339 877 303V21Q877 12 869.5 6Q862 0 853 0H728Q719 0 711.5 6Q704 12 704 21V261Q704 297 685.5 323.5Q667 350 625 350Q583 350 562.5 323.5Q542 297 542 261V21Q542 12 534.5 6Q527 0 518 0H393Q384 0 376.5 6Q369 12 369 21V261Q369 297 350.5 323.5Q332 350 290 350Q248 350 227.5 323.5Q207 297 207 261Z" glyph-name="m" horiz-adv-x="906" unicode="m" /><glyph d="M399 248Q399 294 373.5 322Q348 350 304 350Q260 350 233.5 322Q207 294 207 248V21Q207 12 199.5 6Q192 0 183 0H57Q47 0 40.5 6.5Q34 13 34 23V472Q34 482 40.5 488.5Q47 495 57 495H183Q192 495 199.5 489Q207 483 207 474V456Q230 476 267 493Q304 510 359 510Q408 510 447.5 493.5Q487 477 514.5 448Q542 419 557 380.5Q572 342 572 297V21Q572 12 564.5 6Q557 0 548 0H423Q414 0 406.5 6Q399 12 399 21Z" glyph-name="n" horiz-adv-x="601" unicode="n" /><glyph d="M15 246Q15 301 36.5 349Q58 397 95 433Q132 469 182 489.5Q232 510 289 510Q346 510 396 489.5Q446 469 483 433Q520 397 541.5 349Q563 301 563 246Q563 192 541.5 144Q520 96 483 61Q446 26 396 5.5Q346 -15 289 -15Q232 -15 182 5.5Q132 26 95 61Q58 96 36.5 144Q15 192 15 246ZM189 247Q189 205 218 175.5Q247 146 289 146Q331 146 360 175.5Q389 205 389 247Q389 268 381.5 286.5Q374 305 360.5 319Q347 333 328.5 341Q310 349 289 349Q268 349 250 341Q232 333 218.5 319Q205 305 197 286.5Q189 268 189 247Z" glyph-name="o" horiz-adv-x="578" unicode="o" /><glyph d="M206 247Q206 226 214 207.5Q222 189 235.5 175Q249 161 267 153Q285 145 306 145Q327 145 345.5 153Q364 161 377.5 175Q391 189 398.5 207.5Q406 226 406 247Q406 268 398.5 286.5Q391 305 377.5 319Q364 333 345.5 341Q327 349 306 349Q285 349 267 341Q249 333 235.5 319Q222 305 214 286.5Q206 268 206 247ZM205 458Q225 480 259 495Q293 510 339 510Q386 510 429.5 492Q473 474 506.5 440.5Q540 407 560 358.5Q580 310 580 249Q580 188 560 139Q540 90 506.5 56Q473 22 429 3.5Q385 -15 336 -15Q319 -15 300.5 -12.5Q282 -10 264 -4.5Q246 1 230.5 9.5Q215 18 205 31V-199Q205 -209 198.5 -215.5Q192 -222 182 -222H57Q47 -222 40.5 -215.5Q34 -209 34 -199V472Q34 482 40.5 488.5Q47 495 57 495H182Q191 495 198 488.5Q205 482 205 472Z" glyph-name="p" horiz-adv-x="597" unicode="p" /><glyph d="M17 249Q17 310 38 358.5Q59 407 93.5 440.5Q128 474 172.5 492Q217 510 263 510Q309 510 342.5 495Q376 480 392 460V472Q392 482 399 488.5Q406 495 415 495H540Q550 495 556.5 488.5Q563 482 563 472V-199Q563 -209 556.5 -215.5Q550 -222 540 -222H415Q405 -222 398.5 -215.5Q392 -209 392 -199V38Q373 15 341 0Q309 -15 264 -15Q217 -15 172.5 3.5Q128 22 93.5 56Q59 90 38 139Q17 188 17 249ZM191 247Q191 226 199 207.5Q207 189 220.5 175Q234 161 252 153Q270 145 291 145Q312 145 330.5 153Q349 161 362.5 175Q376 189 383.5 207.5Q391 226 391 247Q391 268 383.5 286.5Q376 305 362.5 319Q349 333 330.5 341Q312 349 291 349Q270 349 252 341Q234 333 220.5 319Q207 305 199 286.5Q191 268 191 247Z" glyph-name="q" horiz-adv-x="597" unicode="q" /><glyph d="M322 504Q330 504 339.5 499Q349 494 349 474V351Q349 331 337.5 325.5Q326 320 318 320H289Q245 320 226 299.5Q207 279 207 236V21Q207 12 199.5 6Q192 0 183 0H57Q47 0 40.5 6.5Q34 13 34 23V472Q34 482 40.5 488.5Q47 495 57 495H176Q185 495 192.5 489Q200 483 200 474V446Q223 478 251 491Q279 504 309 504Z" glyph-name="r" horiz-adv-x="359" unicode="r" /><glyph d="M243 510Q283 510 316.5 504Q350 498 376.5 488.5Q403 479 421.5 468Q440 457 451 447Q478 424 453 396L407 346Q396 334 383 333.5Q370 333 353 343Q332 355 304 366.5Q276 378 247 378Q228 378 215.5 372Q203 366 203 356Q203 345 213 338.5Q223 332 250 327L323 312Q353 306 381 295.5Q409 285 431 267Q453 249 466.5 222.5Q480 196 480 159Q480 123 464.5 91.5Q449 60 420 36Q391 12 348 -1.5Q305 -15 251 -15Q191 -15 144 -1Q97 13 65 33Q23 59 17 83Q11 107 32 123L89 165Q108 179 121 175.5Q134 172 145 162Q167 144 194.5 130.5Q222 117 255 117Q278 117 290.5 125Q303 133 303 143Q303 157 288.5 164Q274 171 245 177L161 195Q99 209 62 245Q25 281 25 343Q25 377 39.5 407.5Q54 438 82 460.5Q110 483 150.5 496.5Q191 510 243 510Z" glyph-name="s" horiz-adv-x="497" unicode="s" /><glyph d="M87 352 26 352Q16 352 9.5 359Q3 366 3 376V472Q3 482 9.5 488.5Q16 495 26 495H87V617Q87 627 94 633.5Q101 640 111 640H237Q247 640 253.5 633.5Q260 627 260 617V495H394Q404 495 411 488.5Q418 482 418 472V376Q418 366 411 359Q404 352 394 352H260V194Q260 177 265 168Q270 159 276.5 154.5Q283 150 289.5 149Q296 148 299 148Q306 148 316.5 151Q327 154 339 162Q352 170 364 169.5Q376 169 384 157L427 88Q442 65 424 47Q398 18 355.5 2.5Q313 -13 266 -13Q232 -13 200 -4Q168 5 143 25Q118 45 102.5 76Q87 107 87 151Z" glyph-name="t" horiz-adv-x="432" unicode="t" /><glyph d="M202 222Q202 183 220.5 157Q239 131 283 131Q324 131 344 156Q364 181 364 219V474Q364 483 371.5 489Q379 495 388 495H514Q524 495 530.5 488.5Q537 482 537 472V23Q537 13 530.5 6.5Q524 0 514 0H388Q379 0 371.5 6Q364 12 364 21V39Q341 17 311.5 1Q282 -15 228 -15Q182 -15 145 0Q108 15 82.5 42.5Q57 70 43 108.5Q29 147 29 193V474Q29 483 36.5 489Q44 495 53 495H178Q187 495 194.5 489Q202 483 202 474Z" glyph-name="u" horiz-adv-x="571" unicode="u" /><glyph d="M178 0Q166 0 158.5 7Q151 14 148 24L6 456Q1 472 8 483.5Q15 495 30 495H163Q177 495 183.5 487.5Q190 480 193 471L278 176L357 471Q359 480 365.5 487.5Q372 495 386 495H512Q527 495 534 483.5Q541 472 536 456L394 24Q391 14 383.5 7Q376 0 364 0Z" glyph-name="v" horiz-adv-x="542" unicode="v" /><glyph d="M334 24Q331 14 323.5 7Q316 0 304 0H172Q160 0 152.5 7Q145 14 142 24L5 458Q-1 477 6 486Q13 495 29 495H159Q173 495 179.5 487.5Q186 480 188 471L248 211L324 473Q331 495 354 495H464Q487 495 494 473L570 211L634 471Q636 480 642.5 487.5Q649 495 663 495H778Q794 495 801 486Q808 477 802 458L664 24Q661 14 653.5 7Q646 0 634 0H503Q491 0 483.5 7Q476 14 473 24L403 268Z" glyph-name="w" horiz-adv-x="807" unicode="w" /><glyph d="M179 19Q171 6 162 3Q153 0 143 0H19Q5 0 0 11Q-5 22 3 33L159 259L12 460Q4 471 9 483Q14 495 28 495H171Q181 495 189.5 492Q198 489 207 476L282 374L350 477Q358 490 367 493Q376 496 386 496H510Q524 496 529 485Q534 474 526 463L376 244L530 33Q538 22 533 11Q528 0 514 0H370Q360 0 351.5 3Q343 6 334 19L253 130Z" glyph-name="x" horiz-adv-x="535" unicode="x" /><glyph d="M175 -237Q126 -237 85.5 -222.5Q45 -208 16 -184Q-3 -168 13 -142L56 -73Q67 -56 81.5 -56Q96 -56 107 -64Q118 -72 133 -79Q148 -86 164 -86Q181 -86 196 -79Q211 -72 219 -50L236 0H173Q161 0 153.5 7Q146 14 143 24L6 456Q1 471 5.5 483Q10 495 33 495H177Q187 495 193 487.5Q199 480 201 471L285 161L359 471Q361 480 367.5 487.5Q374 495 388 495H519Q536 495 541 484.5Q546 474 541 456L389 -67Q366 -146 312.5 -191.5Q259 -237 175 -237Z" glyph-name="y" horiz-adv-x="548" unicode="y" /><glyph d="M255 148 450 148Q460 148 466.5 141.5Q473 135 473 125V23Q473 13 466.5 6.5Q460 0 450 0H44Q34 0 27 7Q20 14 20 24V108Q20 118 23 124Q26 130 31 135L231 347H52Q42 347 35 354Q28 361 28 371V471Q28 481 35 488Q42 495 52 495H438Q448 495 455 488Q462 481 462 471V387Q462 370 451 359Z" glyph-name="z" horiz-adv-x="491" unicode="z" /><glyph d="M258 54Q258 36 265.5 29Q273 22 289 22H319Q329 22 336 15Q343 8 343 -2V-79Q343 -89 336 -96Q329 -103 319 -103H222Q156 -103 118.5 -70.5Q81 -38 81 40V222Q81 246 72.5 254Q64 262 44 262H40Q33 262 23.5 267Q14 272 14 292V358Q14 378 23.5 383Q33 388 40 388H44Q64 388 72.5 396Q81 404 81 428V607Q81 685 118.5 717.5Q156 750 222 750H319Q329 750 336 743Q343 736 343 726V649Q343 639 336 632Q329 625 319 625H289Q273 625 265.5 618Q258 611 258 593V448Q258 406 244 382Q230 358 213 345Q193 330 168 325Q193 320 213 305Q231 292 244.5 268Q258 244 258 202Z" glyph-name="braceleft" horiz-adv-x="359" unicode="{" /><glyph d="M84 -125Q74 -125 67 -118Q60 -111 60 -101V802Q60 812 67 818.5Q74 825 84 825H130Q140 825 147 818.5Q154 812 154 802V-101Q154 -111 147 -118Q140 -125 130 -125Z" glyph-name="bar" horiz-adv-x="214" unicode="|" /><glyph d="M101 202Q101 244 115 268Q129 292 146 305Q166 320 191 325Q166 330 146 345Q128 358 114.5 382Q101 406 101 448V593Q101 611 93.5 618Q86 625 70 625H40Q30 625 23 632Q16 639 16 649V726Q16 736 23 743Q30 750 40 750H137Q203 750 240.5 717.5Q278 685 278 607V428Q278 404 286.5 396Q295 388 315 388H319Q326 388 335.5 383Q345 378 345 358V292Q345 272 335.5 267Q326 262 319 262H315Q295 262 286.5 254Q278 246 278 222V40Q278 -38 240.5 -70.5Q203 -103 137 -103H40Q30 -103 23 -96Q16 -89 16 -79V-2Q16 8 23 15Q30 22 40 22H70Q86 22 93.5 29Q101 36 101 54Z" glyph-name="braceright" horiz-adv-x="359" unicode="}" /><glyph d="M459 252Q436 252 396.5 257Q357 262 317 268.5Q277 275 243.5 280Q210 285 198 285Q179 285 167 279.5Q155 274 146.5 267Q138 260 130.5 254.5Q123 249 112 249Q98 249 85 267L41 329Q29 346 29 364Q29 373 41 388Q53 403 73 417.5Q93 432 118 442Q143 452 169 452Q190 452 228.5 447Q267 442 307 435.5Q347 429 381.5 424Q416 419 430 419Q449 419 461.5 424.5Q474 430 483 437Q492 444 500 449.5Q508 455 519 455Q535 455 546 437L584 375Q596 356 596 340Q596 331 584.5 316Q573 301 553.5 286.5Q534 272 509.5 262Q485 252 459 252Z" glyph-name="asciitilde" horiz-adv-x="625" unicode="~" /><glyph d="" glyph-name="uni00A0" horiz-adv-x="184" unicode=" " /><glyph d="M141 510Q163 510 182 501.5Q201 493 215.5 479Q230 465 238.5 445.5Q247 426 247 405Q247 383 238.5 364Q230 345 215.5 330.5Q201 316 182 307.5Q163 299 141 299Q119 299 100 307.5Q81 316 67 330.5Q53 345 44.5 364Q36 383 36 405Q36 426 44.5 445.5Q53 465 67 479Q81 493 100 501.5Q119 510 141 510ZM231 -181Q231 -191 224 -198Q217 -205 206 -205H76Q65 -205 58 -198Q51 -191 51 -181V226Q51 237 58 244Q65 251 76 251H206Q217 251 224 244Q231 237 231 226Z" glyph-name="exclamdown" horiz-adv-x="282" unicode="¡" /><glyph d="M333 -72Q333 -82 326 -89Q319 -96 309 -96H293Q283 -96 276 -89Q269 -82 269 -72V-13Q218 -7 174.5 15Q131 37 99.5 71.5Q68 106 50 151Q32 196 32 247Q32 298 50 343.5Q68 389 99.5 423.5Q131 458 174.5 480Q218 502 269 508V565Q269 575 276 581.5Q283 588 293 588H309Q319 588 326 581.5Q333 575 333 565V509Q401 502 450 471.5Q499 441 527 399Q534 387 529.5 374.5Q525 362 514 354L439 298Q422 286 410 293Q398 300 392 307Q379 322 365 331.5Q351 341 333 346V149Q351 154 365 163.5Q379 173 392 188Q398 195 410 202Q422 209 439 197L514 141Q525 133 529.5 120.5Q534 108 527 96Q499 54 450 23.5Q401 -7 333 -14ZM206 247Q206 214 223 188.5Q240 163 269 152V343Q240 332 223 306Q206 280 206 247Z" glyph-name="cent" horiz-adv-x="560" unicode="¢" /><glyph d="M609 25Q609 14 602 7Q595 0 584 0H64Q53 0 46 7Q39 14 39 25V145Q39 156 46 163Q53 170 64 170H119V260H64Q53 260 46 267Q39 274 39 285V380Q39 391 46 398Q53 405 64 405H119V471Q119 524 138 568.5Q157 613 191.5 645.5Q226 678 273.5 696.5Q321 715 378 715Q423 715 462.5 705Q502 695 533.5 678Q565 661 588.5 638.5Q612 616 626 590Q633 576 629 567.5Q625 559 614 551L532 489Q523 482 515 481.5Q507 481 501 484Q495 487 490.5 491.5Q486 496 483 499Q466 521 443.5 537.5Q421 554 390 554Q344 554 321 524Q298 494 298 452V405H448Q459 405 466 398Q473 391 473 380V285Q473 274 466 267Q459 260 448 260H298V170H584Q595 170 602 163Q609 156 609 145Z" glyph-name="sterling" horiz-adv-x="658" unicode="£" /><glyph d="M748 351Q748 294 730 244Q712 194 680 151L749 82Q757 74 757 64Q757 54 749 47L699 -3Q691 -11 681.5 -10.5Q672 -10 664 -3L592 71Q550 44 500.5 29Q451 14 396 14Q341 14 291.5 29Q242 44 200 71L128 -3Q120 -10 110.5 -10.5Q101 -11 93 -3L43 47Q35 54 35 64Q35 74 43 82L112 151Q80 194 62 244Q44 294 44 351Q44 408 62 458Q80 508 112 551L43 620Q35 628 35 638Q35 648 43 655L93 705Q101 713 110.5 712.5Q120 712 128 705L200 631Q242 658 291.5 673Q341 688 396 688Q451 688 500.5 673Q550 658 592 631L664 705Q672 712 681.5 712.5Q691 713 699 705L749 655Q757 648 757 638Q757 628 749 620L680 551Q712 508 730 458Q748 408 748 351ZM396 554Q370 554 346 547.5Q322 541 301 530L396 434L491 530Q470 541 446 547.5Q422 554 396 554ZM196 351Q196 300 219 257L311 351L219 445Q196 402 196 351ZM596 351Q596 402 573 445L481 351L573 257Q596 300 596 351ZM396 148Q422 148 446 154.5Q470 161 491 172L396 268L301 172Q322 161 346 154.5Q370 148 396 148Z" glyph-name="currency" horiz-adv-x="792" unicode="¤" /><glyph d="M447 25Q447 14 440 7Q433 0 423 0H292Q281 0 274 7Q267 14 267 25V129H114Q103 129 96 136Q89 143 89 154V224Q89 235 96 242Q103 249 114 249H267V250L242 294H114Q103 294 96 301Q89 308 89 319V389Q89 400 96 407Q103 414 114 414H172L30 659Q21 674 27.5 687Q34 700 49 700H209Q227 700 237 682L360 454H362L484 682Q494 700 512 700H665Q680 700 687.5 688.5Q695 677 684 659L542 414H598Q609 414 616 407Q623 400 623 389V319Q623 308 616 301Q609 294 598 294H472L447 250V249H598Q609 249 616 242Q623 235 623 224V154Q623 143 616 136Q609 129 598 129H447Z" glyph-name="yen" horiz-adv-x="715" unicode="¥" /><glyph d="M156 459Q156 449 149 442Q142 435 132 435H86Q76 435 69 442Q62 449 62 459V802Q62 812 69 818.5Q76 825 86 825H132Q142 825 149 818.5Q156 812 156 802ZM156 -101Q156 -111 149 -118Q142 -125 132 -125H86Q76 -125 69 -118Q62 -111 62 -101V242Q62 252 69 258.5Q76 265 86 265H132Q142 265 149 258.5Q156 252 156 242Z" glyph-name="brokenbar" horiz-adv-x="218" unicode="¦" /><glyph d="M485 158Q497 153 518 141Q539 129 562 109Q581 120 589.5 136.5Q598 153 598 171Q598 208 565.5 233.5Q533 259 485 281L325 354Q313 359 292 371Q271 383 248 403Q229 392 220.5 375.5Q212 359 212 341Q212 304 244.5 278.5Q277 253 325 231ZM380 -276Q339 -276 302.5 -266.5Q266 -257 236 -242.5Q206 -228 184 -210.5Q162 -193 150 -178Q132 -155 134 -139.5Q136 -124 147 -115L221 -51Q235 -40 250 -41.5Q265 -43 276 -55Q299 -80 324 -96Q349 -112 381 -112Q410 -112 426.5 -97Q443 -82 443 -63Q443 -36 422 -16.5Q401 3 358 22L181 101Q148 116 119 137Q90 158 69 186Q48 214 35.5 247.5Q23 281 23 321Q23 348 30.5 378Q38 408 56 436.5Q74 465 103 490.5Q132 516 175 535Q174 543 173.5 551Q173 559 173 568Q174 615 193 655.5Q212 696 245.5 725.5Q279 755 326 771.5Q373 788 430 788Q471 788 507.5 778.5Q544 769 574 754.5Q604 740 626 722.5Q648 705 660 690Q678 667 676 651.5Q674 636 663 627L589 563Q575 552 560 553.5Q545 555 534 567Q511 592 486 608Q461 624 429 624Q400 624 383.5 609Q367 594 367 575Q367 548 388 528.5Q409 509 452 490L629 411Q662 396 691 375Q720 354 741 326Q762 298 774.5 264.5Q787 231 787 191Q787 164 779.5 134Q772 104 754 75.5Q736 47 707 21.5Q678 -4 635 -23Q636 -31 636.5 -39Q637 -47 637 -56Q636 -103 617 -143.5Q598 -184 564.5 -213.5Q531 -243 484 -259.5Q437 -276 380 -276Z" glyph-name="section" horiz-adv-x="810" unicode="§" /><glyph d="M29 637Q29 658 37 676.5Q45 695 59 709Q73 723 91.5 731Q110 739 131 739Q152 739 170.5 731Q189 723 203 709Q217 695 225 676.5Q233 658 233 637Q233 616 225 597.5Q217 579 203 565Q189 551 170.5 543Q152 535 131 535Q110 535 91.5 543Q73 551 59 565Q45 579 37 597.5Q29 616 29 637ZM265 637Q265 658 273 676.5Q281 695 295 709Q309 723 327.5 731Q346 739 367 739Q388 739 406.5 731Q425 723 439 709Q453 695 461 676.5Q469 658 469 637Q469 616 461 597.5Q453 579 439 565Q425 551 406.5 543Q388 535 367 535Q346 535 327.5 543Q309 551 295 565Q281 579 273 597.5Q265 616 265 637Z" glyph-name="dieresis" horiz-adv-x="498" unicode="¨" /><glyph d="M30 350Q30 440 64.5 519Q99 598 159.5 656.5Q220 715 302 749Q384 783 478 783Q572 783 653.5 749Q735 715 795.5 656.5Q856 598 890.5 519Q925 440 925 350Q925 260 890.5 181Q856 102 795.5 43.5Q735 -15 653.5 -49Q572 -83 478 -83Q384 -83 302 -49Q220 -15 159.5 43.5Q99 102 64.5 181Q30 260 30 350ZM827 350Q827 422 800.5 485.5Q774 549 727.5 596Q681 643 617 670Q553 697 478 697Q403 697 338.5 670Q274 643 227.5 596Q181 549 154.5 485.5Q128 422 128 350Q128 278 154.5 214.5Q181 151 227.5 104Q274 57 338.5 30Q403 3 478 3Q553 3 617 30Q681 57 727.5 104Q774 151 800.5 214.5Q827 278 827 350ZM478 454Q434 454 406.5 424Q379 394 379 352Q379 310 406.5 280.5Q434 251 478 251Q507 251 527.5 262Q548 273 565 293Q571 300 583 307Q595 314 612 302L686 246Q697 238 701.5 225.5Q706 213 699 201Q668 154 610.5 122Q553 90 475 90Q417 90 367.5 110Q318 130 282 165.5Q246 201 225.5 249Q205 297 205 352Q205 408 225.5 456Q246 504 282 539Q318 574 367.5 594.5Q417 615 475 615Q553 615 610.5 583Q668 551 699 504Q706 492 701.5 479.5Q697 467 686 459L612 403Q595 391 583 398Q571 405 565 412Q548 432 527.5 443Q507 454 478 454Z" glyph-name="copyright" horiz-adv-x="955" unicode="©" /><glyph d="M222 603Q193 603 172.5 582Q152 561 152 532Q152 503 172.5 482Q193 461 222 461Q251 461 271.5 482Q292 503 292 532Q292 561 271.5 582Q251 603 222 603ZM293 386Q282 369 258 359Q234 349 203 349Q170 349 139 361.5Q108 374 83.5 398Q59 422 44.5 456Q30 490 30 533Q30 576 45 610Q60 644 84 667.5Q108 691 139.5 703.5Q171 716 204 716Q235 716 258.5 706Q282 696 293 679V689Q293 706 309 706H396Q412 706 412 689V375Q412 359 396 359H309Q293 359 293 375ZM72 206Q55 206 55 223V304Q55 312 59.5 317Q64 322 72 322H394Q402 322 407 317Q412 312 412 304V223Q412 215 407 210.5Q402 206 394 206Z" glyph-name="ordfeminine" horiz-adv-x="461" unicode="ª" /><glyph d="M185 0Q174 0 166.5 3Q159 6 151 19L27 230Q22 238 22 247.5Q22 257 27 265L151 476Q158 488 166.5 491.5Q175 495 185 495H305Q315 495 321 485Q327 475 321 462L213 247L321 33Q327 20 321 10Q315 0 305 0ZM435 0Q424 0 416.5 3Q409 6 401 19L277 230Q272 238 272 247.5Q272 257 277 265L401 476Q408 488 416.5 491.5Q425 495 435 495H555Q565 495 571 485Q577 475 571 462L463 247L571 33Q577 20 571 10Q565 0 555 0Z" glyph-name="guillemotleft" horiz-adv-x="602" unicode="«" /><glyph d="M598 165Q598 154 591 147Q584 140 573 140H443Q432 140 425 147Q418 154 418 165V390H56Q45 390 38 397Q31 404 31 415V535Q31 546 38 553Q45 560 56 560H573Q584 560 591 553Q598 546 598 535Z" glyph-name="logicalnot" horiz-adv-x="664" unicode="¬" /><glyph d="M29 350Q29 440 63 519Q97 598 156 656.5Q215 715 295 749Q375 783 468 783Q560 783 640 749Q720 715 779 656.5Q838 598 872 519Q906 440 906 350Q906 260 872 181Q838 102 779 43.5Q720 -15 640 -49Q560 -83 468 -83Q375 -83 295 -49Q215 -15 156 43.5Q97 102 63 181Q29 260 29 350ZM810 350Q810 422 784 485.5Q758 549 712.5 596Q667 643 604.5 670Q542 697 468 697Q394 697 331 670Q268 643 222.5 596Q177 549 151 485.5Q125 422 125 350Q125 278 151 214.5Q177 151 222.5 104Q268 57 331 30Q394 3 468 3Q542 3 604.5 30Q667 57 712.5 104Q758 151 784 214.5Q810 278 810 350ZM562 426Q562 452 545 469Q528 486 502 486H423V366H502Q528 367 545 383.5Q562 400 562 426ZM300 95Q292 95 287 99.5Q282 104 282 112V588Q282 595 287 600Q292 605 300 605H510Q558 605 595 590Q632 575 657.5 550.5Q683 526 696 493.5Q709 461 709 426Q709 379 685 337.5Q661 296 615 272L694 124Q700 112 696 105Q692 98 681 98H566Q542 98 533 117L473 247H423V112Q423 104 418 99.5Q413 95 406 95Z" glyph-name="registered" horiz-adv-x="935" unicode="®" /><glyph d="M65 555Q54 555 47 562Q40 569 40 580V675Q40 686 47 693Q54 700 65 700H412Q423 700 430 693Q437 686 437 675V580Q437 569 430 562Q423 555 412 555Z" glyph-name="macron" horiz-adv-x="477" unicode="¯" /><glyph d="M194 377Q158 377 126 390Q94 403 70.5 426Q47 449 33 479.5Q19 510 19 546Q19 582 33 612.5Q47 643 70.5 666Q94 689 126 702Q158 715 194 715Q230 715 262 702Q294 689 317.5 666Q341 643 355 612.5Q369 582 369 546Q369 510 355 479.5Q341 449 317.5 426Q294 403 262 390Q230 377 194 377ZM194 619Q163 619 143 598.5Q123 578 123 546Q123 514 143 493.5Q163 473 194 473Q225 473 245 493.5Q265 514 265 546Q265 578 245 598.5Q225 619 194 619Z" glyph-name="degree" horiz-adv-x="388" unicode="°" /><glyph d="M58 0Q47 0 40 7Q33 14 33 25V145Q33 156 40 163Q47 170 58 170H226V344H58Q47 344 40 351Q33 358 33 369V489Q33 500 40 507Q47 514 58 514H226V692Q226 703 233 710Q240 717 251 717H381Q392 717 399 710Q406 703 406 692V514H575Q586 514 593 507Q600 500 600 489V369Q600 358 593 351Q586 344 575 344H406V170H575Q586 170 593 163Q600 156 600 145V25Q600 14 593 7Q586 0 575 0Z" glyph-name="plusminus" horiz-adv-x="633" unicode="±" /><glyph d="M36 500Q31 500 27.5 503.5Q24 507 24 512V561Q24 571 27.5 575Q31 579 33 581L126 656Q154 679 170.5 697Q187 715 187 735Q187 751 175 762Q163 773 146 773Q123 773 111.5 760.5Q100 748 93 732Q90 724 83 721Q76 718 68 722L23 742Q8 749 13 764Q18 780 29.5 796.5Q41 813 59 826Q77 839 100.5 847.5Q124 856 153 856Q178 856 201 848Q224 840 241.5 825.5Q259 811 269.5 790Q280 769 280 742Q280 720 272 701.5Q264 683 251 666.5Q238 650 221.5 635.5Q205 621 188 608L150 580H275Q280 580 283.5 576.5Q287 573 287 569V512Q287 507 283.5 503.5Q280 500 275 500Z" glyph-name="twosuperior" horiz-adv-x="308" unicode="²" /><glyph d="M154 782Q137 782 124 771.5Q111 761 104 750Q96 738 85 743L42 765Q28 771 35 786Q40 798 50 810.5Q60 823 75.5 833.5Q91 844 111.5 850.5Q132 857 158 857Q180 857 200.5 851Q221 845 237 833Q253 821 262.5 804Q272 787 272 766Q272 742 258.5 722.5Q245 703 225 695Q251 689 271 666.5Q291 644 291 609Q291 582 280 560.5Q269 539 250 524Q231 509 206 501Q181 493 152 493Q90 493 50.5 525.5Q11 558 11 611V619Q11 632 24 632H85Q99 632 99 619V617Q99 596 112.5 582Q126 568 150 568Q173 568 186 581Q199 594 199 611Q199 628 186.5 638.5Q174 649 150 649H137Q126 649 126 661V705Q126 718 137 718H150Q165 718 178 726Q191 734 191 751Q191 765 180 773.5Q169 782 154 782Z" glyph-name="threesuperior" horiz-adv-x="308" unicode="³" /><glyph d="M249 759Q269 759 275 746Q281 733 273 720L175 557Q169 547 162.5 543.5Q156 540 146 540H65Q26 540 34 577L69 739Q74 759 97 759Z" glyph-name="acute" horiz-adv-x="305" unicode="´" /><glyph d="M58 474Q58 483 65.5 489Q73 495 82 495H207Q216 495 223.5 489Q231 483 231 474V222Q231 183 249.5 157Q268 131 312 131Q353 131 373 156Q393 181 393 219V474Q393 483 400.5 489Q408 495 417 495H543Q553 495 559.5 488.5Q566 482 566 472V23Q566 13 559.5 6.5Q553 0 543 0H417Q408 0 400.5 6Q393 12 393 21V39Q373 16 342.5 0.5Q312 -15 277 -15Q251 -15 232.5 -10Q214 -5 201 2V-136Q201 -146 194.5 -153Q188 -160 178 -160H82Q72 -160 65 -153Q58 -146 58 -136Z" glyph-name="mu" horiz-adv-x="624" unicode="µ" /><glyph d="M26 455Q26 505 42.5 549.5Q59 594 89.5 627.5Q120 661 163 680.5Q206 700 260 700H574Q585 700 592 693Q599 686 599 676V25Q599 14 592 7Q585 0 574 0H494Q483 0 476 7Q469 14 469 25V594H383V24Q383 13 376 6.5Q369 0 358 0H277Q267 0 260 6.5Q253 13 253 24V224H249Q194 224 152.5 242.5Q111 261 83 293Q55 325 40.5 367Q26 409 26 455Z" glyph-name="paragraph" horiz-adv-x="672" unicode="¶" /><glyph d="M136 241Q113 241 93 250Q73 259 58 274Q43 289 34 309Q25 329 25 352Q25 375 34 395Q43 415 58 430Q73 445 93 454Q113 463 136 463Q159 463 179 454Q199 445 214 430Q229 415 238 395Q247 375 247 352Q247 329 238 309Q229 289 214 274Q199 259 179 250Q159 241 136 241Z" glyph-name="periodcentered" horiz-adv-x="272" unicode="·" /><glyph d="M282 4 201 -154Q196 -165 187.5 -167Q179 -169 169 -169H74Q60 -169 53 -160Q46 -151 51 -136L103 30Z" glyph-name="cedilla" horiz-adv-x="305" unicode="¸" /><glyph d="M9 793Q9 807 22 807H35Q55 807 65.5 816Q76 825 83 839Q87 847 92 848.5Q97 850 103 850H143Q149 850 152.5 846.5Q156 843 156 838V513Q156 500 143 500H78Q74 500 70 504Q66 508 66 513V733H21Q16 733 12.5 737Q9 741 9 746Z" glyph-name="onesuperior" horiz-adv-x="195" unicode="¹" /><glyph d="M224 348Q184 348 149.5 362Q115 376 89 401Q63 426 48 459Q33 492 33 530Q33 568 48 602Q63 636 89 661Q115 686 149.5 700.5Q184 715 224 715Q264 715 299 700.5Q334 686 360 661Q386 636 401 602Q416 568 416 530Q416 492 401 459Q386 426 360 401Q334 376 299 362Q264 348 224 348ZM224 602Q195 602 174.5 581Q154 560 154 531Q154 502 174.5 481Q195 460 224 460Q254 460 274 481Q294 502 294 531Q294 560 274 581Q254 602 224 602ZM63 206Q46 206 46 223V304Q46 312 50.5 317Q55 322 63 322H385Q393 322 398 317Q403 312 403 304V223Q403 215 398 210.5Q393 206 385 206Z" glyph-name="ordmasculine" horiz-adv-x="448" unicode="º" /><glyph d="M450 19Q442 6 434.5 3Q427 0 416 0H296Q286 0 280 10Q274 20 280 33L388 247L280 462Q274 475 280 485Q286 495 296 495H416Q426 495 434.5 491.5Q443 488 450 476L574 265Q579 257 579 247.5Q579 238 574 230ZM200 19Q192 6 184.5 3Q177 0 166 0H46Q36 0 30 10Q24 20 30 33L138 247L30 462Q24 475 30 485Q36 495 46 495H166Q176 495 184.5 491.5Q193 488 200 476L324 265Q329 257 329 247.5Q329 238 324 230Z" glyph-name="guillemotright" horiz-adv-x="602" unicode="»" /><glyph d="M31 643Q31 657 44 657H57Q77 657 87.5 666Q98 675 105 689Q109 697 114 698.5Q119 700 125 700H165Q171 700 174.5 696.5Q178 693 178 688V363Q178 350 165 350H100Q96 350 92 354Q88 358 88 363V583H43Q38 583 34.5 587Q31 591 31 596ZM133 19Q128 11 121.5 5.5Q115 0 99 0H76Q57 0 52.5 12Q48 24 56 36L504 681Q509 689 515.5 694.5Q522 700 538 700H561Q580 700 584.5 688Q589 676 581 664ZM519 0Q506 0 506 13V80H352Q347 80 343 83.5Q339 87 339 92V136Q339 144 340.5 151.5Q342 159 347 167L475 340Q478 345 481.5 347.5Q485 350 492 350H582Q587 350 591.5 346.5Q596 343 596 338V151H638Q650 151 650 138V92Q650 87 646.5 83.5Q643 80 638 80H596V13Q596 8 591.5 4Q587 0 582 0ZM506 151 506 269L418 151Z" glyph-name="onequarter" horiz-adv-x="676" unicode="¼" /><glyph d="M30 643Q30 657 43 657H56Q76 657 86.5 666Q97 675 104 689Q108 697 113 698.5Q118 700 124 700H164Q170 700 173.5 696.5Q177 693 177 688V363Q177 350 164 350H99Q95 350 91 354Q87 358 87 363V583H42Q37 583 33.5 587Q30 591 30 596ZM125 19Q120 11 113.5 5.5Q107 0 91 0H68Q49 0 44.5 12Q40 24 48 36L496 681Q501 689 507.5 694.5Q514 700 530 700H553Q572 700 576.5 688Q581 676 573 664ZM427 0Q422 0 418.5 3.5Q415 7 415 12V61Q415 71 418.5 75Q422 79 424 81L517 156Q545 179 561.5 197Q578 215 578 235Q578 251 566 262Q554 273 537 273Q514 273 502.5 260.5Q491 248 484 232Q481 224 474 221Q467 218 459 222L414 242Q399 249 404 264Q409 280 420.5 296.5Q432 313 450 326Q468 339 491.5 347.5Q515 356 544 356Q569 356 592 348Q615 340 632.5 325.5Q650 311 660.5 290Q671 269 671 242Q671 220 663 201.5Q655 183 642 166.5Q629 150 612.5 135.5Q596 121 579 108L541 80H666Q671 80 674.5 76.5Q678 73 678 69V12Q678 7 674.5 3.5Q671 0 666 0Z" glyph-name="onehalf" horiz-adv-x="706" unicode="½" /><glyph d="M206 19Q201 11 194.5 5.5Q188 0 172 0H149Q130 0 125.5 12Q121 24 129 36L577 681Q582 689 588.5 694.5Q595 700 611 700H634Q653 700 657.5 688Q662 676 654 664ZM169 632Q152 632 139 621.5Q126 611 119 600Q111 588 100 593L57 615Q43 621 50 636Q55 648 65 660.5Q75 673 90.5 683.5Q106 694 126.5 700.5Q147 707 173 707Q195 707 215.5 701Q236 695 252 683Q268 671 277.5 654Q287 637 287 616Q287 592 273.5 572.5Q260 553 240 545Q266 539 286 516.5Q306 494 306 459Q306 432 295 410.5Q284 389 265 374Q246 359 221 351Q196 343 167 343Q105 343 65.5 375.5Q26 408 26 461V469Q26 482 39 482H100Q114 482 114 469V467Q114 446 127.5 432Q141 418 165 418Q188 418 201 431Q214 444 214 461Q214 478 201.5 488.5Q189 499 165 499H152Q141 499 141 511V555Q141 568 152 568H165Q180 568 193 576Q206 584 206 601Q206 615 195 623.5Q184 632 169 632ZM582 0Q569 0 569 13V80H415Q410 80 406 83.5Q402 87 402 92V136Q402 144 403.5 151.5Q405 159 410 167L538 340Q541 345 544.5 347.5Q548 350 555 350H645Q650 350 654.5 346.5Q659 343 659 338V151H701Q713 151 713 138V92Q713 87 709.5 83.5Q706 80 701 80H659V13Q659 8 654.5 4Q650 0 645 0ZM569 151 569 269L481 151Z" glyph-name="threequarters" horiz-adv-x="740" unicode="¾" /><glyph d="M241 510Q263 510 282 501.5Q301 493 315.5 479Q330 465 338 445.5Q346 426 346 405Q346 383 338 364Q330 345 315.5 330.5Q301 316 282 307.5Q263 299 241 299Q219 299 200 307.5Q181 316 166.5 330.5Q152 345 143.5 364Q135 383 135 405Q135 426 143.5 445.5Q152 465 166.5 479Q181 493 200 501.5Q219 510 241 510ZM255 -220Q195 -220 152 -202Q109 -184 81.5 -156Q54 -128 41.5 -93Q29 -58 29 -24Q29 23 48.5 60Q68 97 91.5 127Q115 157 134.5 180.5Q154 204 154 223V227Q154 239 161.5 245Q169 251 179 251H305Q316 251 323 244Q330 237 330 226V199Q330 172 312 144Q294 116 273 89.5Q252 63 234 38Q216 13 216 -9Q216 -24 229 -41.5Q242 -59 274 -59Q302 -59 321.5 -46Q341 -33 360 -13Q371 -2 386.5 0.5Q402 3 415 -9L470 -61Q475 -66 479 -72.5Q483 -79 483.5 -88.5Q484 -98 480 -109.5Q476 -121 464 -134Q452 -147 433.5 -162Q415 -177 389 -190Q363 -203 329.5 -211.5Q296 -220 255 -220Z" glyph-name="questiondown" horiz-adv-x="504" unicode="¿" /><glyph d="M359 964Q382 964 387 944L422 782Q430 745 391 745H310Q300 745 293.5 748.5Q287 752 281 762L183 925Q175 938 181 951Q187 964 207 964ZM424 297 348 545L272 297ZM187 22Q184 13 178 6.5Q172 0 162 0H27Q12 0 5 11Q-2 22 5 41L220 675Q225 689 234 694.5Q243 700 251 700H454Q462 700 471 694.5Q480 689 485 675L700 41Q707 21 699.5 10.5Q692 0 677 0H534Q515 0 509 22L471 147H225Z" glyph-name="Agrave" horiz-adv-x="705" unicode="À" /><glyph d="M498 964Q518 964 524 951Q530 938 522 925L424 762Q418 752 411.5 748.5Q405 745 395 745H314Q275 745 283 782L318 944Q323 964 346 964ZM424 297 348 545L272 297ZM187 22Q184 13 178 6.5Q172 0 162 0H27Q12 0 5 11Q-2 22 5 41L220 675Q225 689 234 694.5Q243 700 251 700H454Q462 700 471 694.5Q480 689 485 675L700 41Q707 21 699.5 10.5Q692 0 677 0H534Q515 0 509 22L471 147H225Z" glyph-name="Aacute" horiz-adv-x="705" unicode="Á" /><glyph d="M431 964Q450 964 464 940L557 782Q568 765 559 755Q550 745 540 745H437Q423 745 417.5 749.5Q412 754 404 764L352 835L300 764Q292 754 286.5 749.5Q281 745 267 745H164Q154 745 145.5 755Q137 765 147 782L240 940Q254 964 273 964ZM424 297 348 545L272 297ZM187 22Q184 13 178 6.5Q172 0 162 0H27Q12 0 5 11Q-2 22 5 41L220 675Q225 689 234 694.5Q243 700 251 700H454Q462 700 471 694.5Q480 689 485 675L700 41Q707 21 699.5 10.5Q692 0 677 0H534Q515 0 509 22L471 147H225Z" glyph-name="Acircumflex" horiz-adv-x="705" unicode="Â" /><glyph d="M450 756Q429 756 404.5 761Q380 766 356.5 771.5Q333 777 313 782Q293 787 282 787Q265 787 254.5 781.5Q244 776 236 770Q228 764 221.5 758.5Q215 753 205 753Q197 753 191.5 757.5Q186 762 180 770L141 829Q130 846 130 862Q130 871 141 885.5Q152 900 170 913.5Q188 927 210.5 936.5Q233 946 256 946Q275 946 299 941Q323 936 346.5 930.5Q370 925 391 920Q412 915 424 915Q441 915 452 920.5Q463 926 471.5 932Q480 938 487 943.5Q494 949 504 949Q517 949 529 932L563 873Q568 863 571 855Q574 847 574 839Q574 830 563.5 816Q553 802 535.5 788.5Q518 775 496 765.5Q474 756 450 756ZM424 297 348 545L272 297ZM187 22Q184 13 178 6.5Q172 0 162 0H27Q12 0 5 11Q-2 22 5 41L220 675Q225 689 234 694.5Q243 700 251 700H454Q462 700 471 694.5Q480 689 485 675L700 41Q707 21 699.5 10.5Q692 0 677 0H534Q515 0 509 22L471 147H225Z" glyph-name="Atilde" horiz-adv-x="705" unicode="Ã" /><glyph d="M132 842Q132 863 140 881.5Q148 900 162 914Q176 928 194.5 936Q213 944 234 944Q255 944 273.5 936Q292 928 306 914Q320 900 328 881.5Q336 863 336 842Q336 821 328 802.5Q320 784 306 770Q292 756 273.5 748Q255 740 234 740Q213 740 194.5 748Q176 756 162 770Q148 784 140 802.5Q132 821 132 842ZM368 842Q368 863 376 881.5Q384 900 398 914Q412 928 430.5 936Q449 944 470 944Q491 944 509.5 936Q528 928 542 914Q556 900 564 881.5Q572 863 572 842Q572 821 564 802.5Q556 784 542 770Q528 756 509.5 748Q491 740 470 740Q449 740 430.5 748Q412 756 398 770Q384 784 376 802.5Q368 821 368 842ZM424 297 348 545L272 297ZM187 22Q184 13 178 6.5Q172 0 162 0H27Q12 0 5 11Q-2 22 5 41L220 675Q225 689 234 694.5Q243 700 251 700H454Q462 700 471 694.5Q480 689 485 675L700 41Q707 21 699.5 10.5Q692 0 677 0H534Q515 0 509 22L471 147H225Z" glyph-name="Adieresis" horiz-adv-x="705" unicode="Ä" /><glyph d="M522 904Q522 870 509 840.5Q496 811 473.5 789.5Q451 768 419.5 755.5Q388 743 352 743Q315 743 284 755.5Q253 768 230.5 789.5Q208 811 195 840.5Q182 870 182 904Q182 938 195 967.5Q208 997 230.5 1018.5Q253 1040 284 1052.5Q315 1065 352 1065Q388 1065 419.5 1052.5Q451 1040 473.5 1018.5Q496 997 509 967.5Q522 938 522 904ZM412 904Q412 930 395.5 948.5Q379 967 352 967Q325 967 308 948.5Q291 930 291 904Q291 878 308 859.5Q325 841 352 841Q379 841 395.5 859.5Q412 878 412 904ZM424 297 348 545L272 297ZM187 22Q184 13 178 6.5Q172 0 162 0H27Q12 0 5 11Q-2 22 5 41L220 675Q225 689 234 694.5Q243 700 251 700H454Q462 700 471 694.5Q480 689 485 675L700 41Q707 21 699.5 10.5Q692 0 677 0H534Q515 0 509 22L471 147H225Z" glyph-name="Aring" horiz-adv-x="705" unicode="Å" /><glyph d="M356 558 283 302H428ZM205 24Q203 15 196 7.5Q189 0 175 0H26Q11 0 3.5 9Q-4 18 2 38L208 675Q212 689 221.5 694.5Q231 700 239 700H905Q916 700 923 693Q930 686 930 675V555Q930 544 923 537Q916 530 905 530H560L592 430H769Q780 430 787 423Q794 416 794 405V295Q794 284 787 277Q780 270 769 270H644L676 170H905Q916 170 923 163Q930 156 930 145V25Q930 14 923 7Q916 0 905 0H540Q515 0 507 24L472 147H240Z" glyph-name="AE" horiz-adv-x="954" unicode="Æ" /><glyph d="M411 -154Q406 -165 397.5 -167Q389 -169 379 -169H284Q270 -169 263 -160Q256 -151 261 -136L302 -4Q240 11 187.5 43.5Q135 76 97 122.5Q59 169 38 227Q17 285 17 350Q17 426 46 492.5Q75 559 126 608.5Q177 658 246 686.5Q315 715 394 715Q452 715 505 700Q558 685 602 657.5Q646 630 679.5 590Q713 550 732 500Q734 495 734.5 486.5Q735 478 721 474L581 436Q567 432 562 438.5Q557 445 555 449Q532 490 493.5 519Q455 548 395 548Q353 548 318.5 532.5Q284 517 258.5 490Q233 463 219 427Q205 391 205 350Q205 309 219 273Q233 237 258.5 210Q284 183 318.5 167.5Q353 152 395 152Q455 152 493.5 181Q532 210 555 251Q557 255 562 261.5Q567 268 581 264L721 226Q735 222 734.5 213.5Q734 205 732 200Q702 121 637.5 68Q573 15 488 -5Z" glyph-name="Ccedilla" horiz-adv-x="735" unicode="Ç" /><glyph d="M341 964Q364 964 369 944L404 782Q412 745 373 745H292Q282 745 275.5 748.5Q269 752 263 762L165 925Q157 938 163 951Q169 964 189 964ZM588 700Q599 700 606 693Q613 686 613 675V560Q613 549 606 542Q599 535 588 535H227V430H417Q428 430 435 423Q442 416 442 405V295Q442 284 435 277Q428 270 417 270H227V165H598Q609 165 616 158Q623 151 623 140V25Q623 14 616 7Q609 0 598 0H72Q61 0 54 7Q47 14 47 25V676Q47 686 54 693Q61 700 72 700Z" glyph-name="Egrave" horiz-adv-x="642" unicode="È" /><glyph d="M480 964Q500 964 506 951Q512 938 504 925L406 762Q400 752 393.5 748.5Q387 745 377 745H296Q257 745 265 782L300 944Q305 964 328 964ZM588 700Q599 700 606 693Q613 686 613 675V560Q613 549 606 542Q599 535 588 535H227V430H417Q428 430 435 423Q442 416 442 405V295Q442 284 435 277Q428 270 417 270H227V165H598Q609 165 616 158Q623 151 623 140V25Q623 14 616 7Q609 0 598 0H72Q61 0 54 7Q47 14 47 25V676Q47 686 54 693Q61 700 72 700Z" glyph-name="Eacute" horiz-adv-x="642" unicode="É" /><glyph d="M413 964Q432 964 446 940L539 782Q550 765 541 755Q532 745 522 745H419Q405 745 399.5 749.5Q394 754 386 764L334 835L282 764Q274 754 268.5 749.5Q263 745 249 745H146Q136 745 127.5 755Q119 765 129 782L222 940Q236 964 255 964ZM588 700Q599 700 606 693Q613 686 613 675V560Q613 549 606 542Q599 535 588 535H227V430H417Q428 430 435 423Q442 416 442 405V295Q442 284 435 277Q428 270 417 270H227V165H598Q609 165 616 158Q623 151 623 140V25Q623 14 616 7Q609 0 598 0H72Q61 0 54 7Q47 14 47 25V676Q47 686 54 693Q61 700 72 700Z" glyph-name="Ecircumflex" horiz-adv-x="642" unicode="Ê" /><glyph d="M114 842Q114 863 122 881.5Q130 900 144 914Q158 928 176.5 936Q195 944 216 944Q237 944 255.5 936Q274 928 288 914Q302 900 310 881.5Q318 863 318 842Q318 821 310 802.5Q302 784 288 770Q274 756 255.5 748Q237 740 216 740Q195 740 176.5 748Q158 756 144 770Q130 784 122 802.5Q114 821 114 842ZM350 842Q350 863 358 881.5Q366 900 380 914Q394 928 412.5 936Q431 944 452 944Q473 944 491.5 936Q510 928 524 914Q538 900 546 881.5Q554 863 554 842Q554 821 546 802.5Q538 784 524 770Q510 756 491.5 748Q473 740 452 740Q431 740 412.5 748Q394 756 380 770Q366 784 358 802.5Q350 821 350 842ZM588 700Q599 700 606 693Q613 686 613 675V560Q613 549 606 542Q599 535 588 535H227V430H417Q428 430 435 423Q442 416 442 405V295Q442 284 435 277Q428 270 417 270H227V165H598Q609 165 616 158Q623 151 623 140V25Q623 14 616 7Q609 0 598 0H72Q61 0 54 7Q47 14 47 25V676Q47 686 54 693Q61 700 72 700Z" glyph-name="Edieresis" horiz-adv-x="642" unicode="Ë" /><glyph d="M144 964Q167 964 172 944L207 782Q215 745 176 745H95Q85 745 78.5 748.5Q72 752 66 762L-32 925Q-40 938 -34 951Q-28 964 -8 964ZM72 0Q61 0 54 7Q47 14 47 25V676Q47 686 54 693Q61 700 72 700H202Q213 700 220 693Q227 686 227 676V25Q227 14 220 7Q213 0 202 0Z" glyph-name="Igrave" horiz-adv-x="274" unicode="Ì" /><glyph d="M283 964Q303 964 309 951Q315 938 307 925L209 762Q203 752 196.5 748.5Q190 745 180 745H99Q60 745 68 782L103 944Q108 964 131 964ZM72 0Q61 0 54 7Q47 14 47 25V676Q47 686 54 693Q61 700 72 700H202Q213 700 220 693Q227 686 227 676V25Q227 14 220 7Q213 0 202 0Z" glyph-name="Iacute" horiz-adv-x="274" unicode="Í" /><glyph d="M216 964Q235 964 249 940L342 782Q353 765 344 755Q335 745 325 745H222Q208 745 202.5 749.5Q197 754 189 764L137 835L85 764Q77 754 71.5 749.5Q66 745 52 745H-51Q-61 745 -69.5 755Q-78 765 -68 782L25 940Q39 964 58 964ZM72 0Q61 0 54 7Q47 14 47 25V676Q47 686 54 693Q61 700 72 700H202Q213 700 220 693Q227 686 227 676V25Q227 14 220 7Q213 0 202 0Z" glyph-name="Icircumflex" horiz-adv-x="274" unicode="Î" /><glyph d="M-83 842Q-83 863 -75 881.5Q-67 900 -53 914Q-39 928 -20.5 936Q-2 944 19 944Q40 944 58.5 936Q77 928 91 914Q105 900 113 881.5Q121 863 121 842Q121 821 113 802.5Q105 784 91 770Q77 756 58.5 748Q40 740 19 740Q-2 740 -20.5 748Q-39 756 -53 770Q-67 784 -75 802.5Q-83 821 -83 842ZM153 842Q153 863 161 881.5Q169 900 183 914Q197 928 215.5 936Q234 944 255 944Q276 944 294.5 936Q313 928 327 914Q341 900 349 881.5Q357 863 357 842Q357 821 349 802.5Q341 784 327 770Q313 756 294.5 748Q276 740 255 740Q234 740 215.5 748Q197 756 183 770Q169 784 161 802.5Q153 821 153 842ZM72 0Q61 0 54 7Q47 14 47 25V676Q47 686 54 693Q61 700 72 700H202Q213 700 220 693Q227 686 227 676V25Q227 14 220 7Q213 0 202 0Z" glyph-name="Idieresis" horiz-adv-x="274" unicode="Ï" /><glyph d="M95 0Q84 0 77 7Q70 14 70 25V280H23Q12 280 5 287Q-2 294 -2 305V395Q-2 406 5 413Q12 420 23 420H70V676Q70 686 77 693Q84 700 95 700H393Q470 700 535 675Q600 650 646.5 604.5Q693 559 719 494.5Q745 430 745 352Q745 274 719 209Q693 144 646.5 97.5Q600 51 535 25.5Q470 0 393 0ZM389 165Q427 165 457.5 180.5Q488 196 510.5 222Q533 248 545 281.5Q557 315 557 352Q557 389 545 422Q533 455 510.5 480Q488 505 457.5 520Q427 535 389 535H250V420H383Q394 420 401 413Q408 406 408 395V305Q408 294 401 287Q394 280 383 280H250V165Z" glyph-name="Eth" horiz-adv-x="764" unicode="Ð" /><glyph d="M462 756Q441 756 416.5 761Q392 766 368.5 771.5Q345 777 325 782Q305 787 294 787Q277 787 266.5 781.5Q256 776 248 770Q240 764 233.5 758.5Q227 753 217 753Q209 753 203.5 757.5Q198 762 192 770L153 829Q142 846 142 862Q142 871 153 885.5Q164 900 182 913.5Q200 927 222.5 936.5Q245 946 268 946Q287 946 311 941Q335 936 358.5 930.5Q382 925 403 920Q424 915 436 915Q453 915 464 920.5Q475 926 483.5 932Q492 938 499 943.5Q506 949 516 949Q529 949 541 932L575 873Q580 863 583 855Q586 847 586 839Q586 830 575.5 816Q565 802 547.5 788.5Q530 775 508 765.5Q486 756 462 756ZM227 416 227 24Q227 13 220.5 6.5Q214 0 203 0H72Q61 0 54 6.5Q47 13 47 24V676Q47 686 54 693Q61 700 72 700H242Q253 700 261 696Q269 692 276 680L501 301V676Q501 686 508 693Q515 700 525 700H656Q666 700 673.5 693Q681 686 681 676V24Q681 13 673.5 6.5Q666 0 656 0H515Q478 0 463 25Z" glyph-name="Ntilde" horiz-adv-x="728" unicode="Ñ" /><glyph d="M401 964Q424 964 429 944L464 782Q472 745 433 745H352Q342 745 335.5 748.5Q329 752 323 762L225 925Q217 938 223 951Q229 964 249 964ZM773 350Q773 274 744 207.5Q715 141 664 91.5Q613 42 544 13.5Q475 -15 395 -15Q316 -15 247 13.5Q178 42 127 91.5Q76 141 46.5 207.5Q17 274 17 350Q17 426 46.5 492.5Q76 559 127 608.5Q178 658 247 686.5Q316 715 395 715Q475 715 544 686.5Q613 658 664 608.5Q715 559 744 492.5Q773 426 773 350ZM585 350Q585 391 571 427Q557 463 531.5 490Q506 517 471.5 532.5Q437 548 395 548Q353 548 318.5 532.5Q284 517 258.5 490Q233 463 219 427Q205 391 205 350Q205 309 219 273Q233 237 258.5 210Q284 183 318.5 167.5Q353 152 395 152Q437 152 471.5 167.5Q506 183 531.5 210Q557 237 571 273Q585 309 585 350Z" glyph-name="Ograve" horiz-adv-x="790" unicode="Ò" /><glyph d="M540 964Q560 964 566 951Q572 938 564 925L466 762Q460 752 453.5 748.5Q447 745 437 745H356Q317 745 325 782L360 944Q365 964 388 964ZM773 350Q773 274 744 207.5Q715 141 664 91.5Q613 42 544 13.5Q475 -15 395 -15Q316 -15 247 13.5Q178 42 127 91.5Q76 141 46.5 207.5Q17 274 17 350Q17 426 46.5 492.5Q76 559 127 608.5Q178 658 247 686.5Q316 715 395 715Q475 715 544 686.5Q613 658 664 608.5Q715 559 744 492.5Q773 426 773 350ZM585 350Q585 391 571 427Q557 463 531.5 490Q506 517 471.5 532.5Q437 548 395 548Q353 548 318.5 532.5Q284 517 258.5 490Q233 463 219 427Q205 391 205 350Q205 309 219 273Q233 237 258.5 210Q284 183 318.5 167.5Q353 152 395 152Q437 152 471.5 167.5Q506 183 531.5 210Q557 237 571 273Q585 309 585 350Z" glyph-name="Oacute" horiz-adv-x="790" unicode="Ó" /><glyph d="M473 964Q492 964 506 940L599 782Q610 765 601 755Q592 745 582 745H479Q465 745 459.5 749.5Q454 754 446 764L394 835L342 764Q334 754 328.5 749.5Q323 745 309 745H206Q196 745 187.5 755Q179 765 189 782L282 940Q296 964 315 964ZM773 350Q773 274 744 207.5Q715 141 664 91.5Q613 42 544 13.5Q475 -15 395 -15Q316 -15 247 13.5Q178 42 127 91.5Q76 141 46.5 207.5Q17 274 17 350Q17 426 46.5 492.5Q76 559 127 608.5Q178 658 247 686.5Q316 715 395 715Q475 715 544 686.5Q613 658 664 608.5Q715 559 744 492.5Q773 426 773 350ZM585 350Q585 391 571 427Q557 463 531.5 490Q506 517 471.5 532.5Q437 548 395 548Q353 548 318.5 532.5Q284 517 258.5 490Q233 463 219 427Q205 391 205 350Q205 309 219 273Q233 237 258.5 210Q284 183 318.5 167.5Q353 152 395 152Q437 152 471.5 167.5Q506 183 531.5 210Q557 237 571 273Q585 309 585 350Z" glyph-name="Ocircumflex" horiz-adv-x="790" unicode="Ô" /><glyph d="M492 756Q471 756 446.5 761Q422 766 398.5 771.5Q375 777 355 782Q335 787 324 787Q307 787 296.5 781.5Q286 776 278 770Q270 764 263.5 758.5Q257 753 247 753Q239 753 233.5 757.5Q228 762 222 770L183 829Q172 846 172 862Q172 871 183 885.5Q194 900 212 913.5Q230 927 252.5 936.5Q275 946 298 946Q317 946 341 941Q365 936 388.5 930.5Q412 925 433 920Q454 915 466 915Q483 915 494 920.5Q505 926 513.5 932Q522 938 529 943.5Q536 949 546 949Q559 949 571 932L605 873Q610 863 613 855Q616 847 616 839Q616 830 605.5 816Q595 802 577.5 788.5Q560 775 538 765.5Q516 756 492 756ZM773 350Q773 274 744 207.5Q715 141 664 91.5Q613 42 544 13.5Q475 -15 395 -15Q316 -15 247 13.5Q178 42 127 91.5Q76 141 46.5 207.5Q17 274 17 350Q17 426 46.5 492.5Q76 559 127 608.5Q178 658 247 686.5Q316 715 395 715Q475 715 544 686.5Q613 658 664 608.5Q715 559 744 492.5Q773 426 773 350ZM585 350Q585 391 571 427Q557 463 531.5 490Q506 517 471.5 532.5Q437 548 395 548Q353 548 318.5 532.5Q284 517 258.5 490Q233 463 219 427Q205 391 205 350Q205 309 219 273Q233 237 258.5 210Q284 183 318.5 167.5Q353 152 395 152Q437 152 471.5 167.5Q506 183 531.5 210Q557 237 571 273Q585 309 585 350Z" glyph-name="Otilde" horiz-adv-x="790" unicode="Õ" /><glyph d="M174 842Q174 863 182 881.5Q190 900 204 914Q218 928 236.5 936Q255 944 276 944Q297 944 315.5 936Q334 928 348 914Q362 900 370 881.5Q378 863 378 842Q378 821 370 802.5Q362 784 348 770Q334 756 315.5 748Q297 740 276 740Q255 740 236.5 748Q218 756 204 770Q190 784 182 802.5Q174 821 174 842ZM410 842Q410 863 418 881.5Q426 900 440 914Q454 928 472.5 936Q491 944 512 944Q533 944 551.5 936Q570 928 584 914Q598 900 606 881.5Q614 863 614 842Q614 821 606 802.5Q598 784 584 770Q570 756 551.5 748Q533 740 512 740Q491 740 472.5 748Q454 756 440 770Q426 784 418 802.5Q410 821 410 842ZM773 350Q773 274 744 207.5Q715 141 664 91.5Q613 42 544 13.5Q475 -15 395 -15Q316 -15 247 13.5Q178 42 127 91.5Q76 141 46.5 207.5Q17 274 17 350Q17 426 46.5 492.5Q76 559 127 608.5Q178 658 247 686.5Q316 715 395 715Q475 715 544 686.5Q613 658 664 608.5Q715 559 744 492.5Q773 426 773 350ZM585 350Q585 391 571 427Q557 463 531.5 490Q506 517 471.5 532.5Q437 548 395 548Q353 548 318.5 532.5Q284 517 258.5 490Q233 463 219 427Q205 391 205 350Q205 309 219 273Q233 237 258.5 210Q284 183 318.5 167.5Q353 152 395 152Q437 152 471.5 167.5Q506 183 531.5 210Q557 237 571 273Q585 309 585 350Z" glyph-name="Odieresis" horiz-adv-x="790" unicode="Ö" /><glyph d="M158 54Q150 46 140 46Q130 46 123 54L38 139Q30 146 30 156Q30 166 38 174L213 349L37 525Q30 533 30 543Q30 553 37 561L122 646Q130 653 140 653Q150 653 158 646L334 470L509 646Q517 653 527 653Q537 653 545 646L630 561Q637 553 637 543Q637 533 630 525L454 349L629 174Q637 166 637 156Q637 146 629 139L544 54Q537 46 527 46Q517 46 509 54L334 229Z" glyph-name="multiply" horiz-adv-x="667" unicode="×" /><glyph d="M773 350Q773 274 744 207.5Q715 141 664 91.5Q613 42 544 13.5Q475 -15 395 -15Q316 -15 247 13.5Q178 42 127 91.5Q76 141 46.5 207.5Q17 274 17 350Q17 426 46.5 492.5Q76 559 127 608.5Q178 658 247 686.5Q316 715 395 715Q475 715 544 686.5Q613 658 664 608.5Q715 559 744 492.5Q773 426 773 350ZM205 350Q205 287 236 238.5Q267 190 319 167V533Q267 510 236 461.5Q205 413 205 350ZM585 350Q585 413 554 461.5Q523 510 471 533V167Q523 190 554 238.5Q585 287 585 350Z" glyph-name="Oslash" horiz-adv-x="790" unicode="Ø" /><glyph d="M351 964Q374 964 379 944L414 782Q422 745 383 745H302Q292 745 285.5 748.5Q279 752 273 762L175 925Q167 938 173 951Q179 964 199 964ZM647 257Q647 183 620.5 131.5Q594 80 551 47.5Q508 15 454 0Q400 -15 344 -15Q289 -15 234.5 0Q180 15 137 47.5Q94 80 67.5 131.5Q41 183 41 257V676Q41 686 48 693Q55 700 66 700H196Q207 700 214 693Q221 686 221 676V272Q221 217 253 183.5Q285 150 344 150Q403 150 435 183.5Q467 217 467 272V676Q467 686 474 693Q481 700 492 700H622Q633 700 640 693Q647 686 647 676Z" glyph-name="Ugrave" horiz-adv-x="688" unicode="Ù" /><glyph d="M490 964Q510 964 516 951Q522 938 514 925L416 762Q410 752 403.5 748.5Q397 745 387 745H306Q267 745 275 782L310 944Q315 964 338 964ZM647 257Q647 183 620.5 131.5Q594 80 551 47.5Q508 15 454 0Q400 -15 344 -15Q289 -15 234.5 0Q180 15 137 47.5Q94 80 67.5 131.5Q41 183 41 257V676Q41 686 48 693Q55 700 66 700H196Q207 700 214 693Q221 686 221 676V272Q221 217 253 183.5Q285 150 344 150Q403 150 435 183.5Q467 217 467 272V676Q467 686 474 693Q481 700 492 700H622Q633 700 640 693Q647 686 647 676Z" glyph-name="Uacute" horiz-adv-x="688" unicode="Ú" /><glyph d="M423 964Q442 964 456 940L549 782Q560 765 551 755Q542 745 532 745H429Q415 745 409.5 749.5Q404 754 396 764L344 835L292 764Q284 754 278.5 749.5Q273 745 259 745H156Q146 745 137.5 755Q129 765 139 782L232 940Q246 964 265 964ZM647 257Q647 183 620.5 131.5Q594 80 551 47.5Q508 15 454 0Q400 -15 344 -15Q289 -15 234.5 0Q180 15 137 47.5Q94 80 67.5 131.5Q41 183 41 257V676Q41 686 48 693Q55 700 66 700H196Q207 700 214 693Q221 686 221 676V272Q221 217 253 183.5Q285 150 344 150Q403 150 435 183.5Q467 217 467 272V676Q467 686 474 693Q481 700 492 700H622Q633 700 640 693Q647 686 647 676Z" glyph-name="Ucircumflex" horiz-adv-x="688" unicode="Û" /><glyph d="M124 842Q124 863 132 881.5Q140 900 154 914Q168 928 186.5 936Q205 944 226 944Q247 944 265.5 936Q284 928 298 914Q312 900 320 881.5Q328 863 328 842Q328 821 320 802.5Q312 784 298 770Q284 756 265.5 748Q247 740 226 740Q205 740 186.5 748Q168 756 154 770Q140 784 132 802.5Q124 821 124 842ZM360 842Q360 863 368 881.5Q376 900 390 914Q404 928 422.5 936Q441 944 462 944Q483 944 501.5 936Q520 928 534 914Q548 900 556 881.5Q564 863 564 842Q564 821 556 802.5Q548 784 534 770Q520 756 501.5 748Q483 740 462 740Q441 740 422.5 748Q404 756 390 770Q376 784 368 802.5Q360 821 360 842ZM647 257Q647 183 620.5 131.5Q594 80 551 47.5Q508 15 454 0Q400 -15 344 -15Q289 -15 234.5 0Q180 15 137 47.5Q94 80 67.5 131.5Q41 183 41 257V676Q41 686 48 693Q55 700 66 700H196Q207 700 214 693Q221 686 221 676V272Q221 217 253 183.5Q285 150 344 150Q403 150 435 183.5Q467 217 467 272V676Q467 686 474 693Q481 700 492 700H622Q633 700 640 693Q647 686 647 676Z" glyph-name="Udieresis" horiz-adv-x="688" unicode="Ü" /><glyph d="M480 964Q500 964 506 951Q512 938 504 925L406 762Q400 752 393.5 748.5Q387 745 377 745H296Q257 745 265 782L300 944Q305 964 328 964ZM244 250 7 659Q-2 674 4.5 687Q11 700 26 700H186Q204 700 214 682L337 454H339L461 682Q471 700 489 700H642Q657 700 664.5 688.5Q672 677 661 659L424 250V25Q424 14 417 7Q410 0 400 0H269Q258 0 251 7Q244 14 244 25Z" glyph-name="Yacute" horiz-adv-x="668" unicode="Ý" /><glyph d="M72 0Q61 0 54 6.5Q47 13 47 24V676Q47 687 54 693.5Q61 700 72 700H203Q213 700 220 693.5Q227 687 227 676V600H366Q422 600 466 580.5Q510 561 541 528.5Q572 496 588.5 452.5Q605 409 605 361Q604 312 587 269Q570 226 539 193.5Q508 161 464.5 142Q421 123 366 123H227V24Q227 13 220 6.5Q213 0 203 0ZM335 280Q371 281 394 304Q417 327 417 362Q417 397 394 420Q371 443 335 443H227V280Z" glyph-name="Thorn" horiz-adv-x="618" unicode="Þ" /><glyph d="M34 489Q34 539 49.5 583.5Q65 628 96 661.5Q127 695 172.5 715Q218 735 278 735Q331 735 374.5 719.5Q418 704 448.5 677Q479 650 496 613.5Q513 577 513 535Q513 501 504 471.5Q495 442 484 417Q473 392 464 373Q455 354 455 342Q455 326 470.5 310.5Q486 295 504 273Q522 251 537.5 221Q553 191 553 146Q553 118 542.5 89.5Q532 61 508.5 37.5Q485 14 447 -0.5Q409 -15 353 -15Q343 -15 320 -13.5Q297 -12 280 -8Q273 -6 263.5 -1Q254 4 256 20L269 124Q270 138 283 138Q289 138 302.5 136Q316 134 327 134Q341 134 349 138Q357 142 361 148Q365 154 366.5 160Q368 166 368 170Q368 188 353.5 204.5Q339 221 321.5 239.5Q304 258 289.5 278.5Q275 299 275 324Q275 346 286 372Q297 398 310.5 425Q324 452 335 477.5Q346 503 346 524Q346 546 329.5 564.5Q313 583 281 583Q249 583 228 560.5Q207 538 207 496V24Q207 14 200.5 7Q194 0 184 0H58Q48 0 41 7Q34 14 34 24Z" glyph-name="germandbls" horiz-adv-x="567" unicode="ß" /><glyph d="M304 759Q327 759 332 739L367 577Q375 540 336 540H255Q245 540 238.5 543.5Q232 547 226 557L128 720Q120 733 126 746Q132 759 152 759ZM190 247Q190 226 198 207.5Q206 189 219.5 175Q233 161 251 153Q269 145 290 145Q311 145 329.5 153Q348 161 361.5 175Q375 189 382.5 207.5Q390 226 390 247Q390 268 382.5 286.5Q375 305 361.5 319Q348 333 329.5 341Q311 349 290 349Q269 349 251 341Q233 333 219.5 319Q206 305 198 286.5Q190 268 190 247ZM16 249Q16 310 37 358.5Q58 407 92.5 440.5Q127 474 172 492Q217 510 264 510Q309 510 342 495Q375 480 391 457V472Q391 482 398 488.5Q405 495 414 495H539Q549 495 555.5 488.5Q562 482 562 472V23Q562 13 555.5 6.5Q549 0 539 0H414Q404 0 397.5 6.5Q391 13 391 23V38Q375 15 341.5 0Q308 -15 263 -15Q216 -15 171.5 3.5Q127 22 92.5 56Q58 90 37 139Q16 188 16 249Z" glyph-name="agrave" horiz-adv-x="596" unicode="à" /><glyph d="M443 759Q463 759 469 746Q475 733 467 720L369 557Q363 547 356.5 543.5Q350 540 340 540H259Q220 540 228 577L263 739Q268 759 291 759ZM190 247Q190 226 198 207.5Q206 189 219.5 175Q233 161 251 153Q269 145 290 145Q311 145 329.5 153Q348 161 361.5 175Q375 189 382.5 207.5Q390 226 390 247Q390 268 382.5 286.5Q375 305 361.5 319Q348 333 329.5 341Q311 349 290 349Q269 349 251 341Q233 333 219.5 319Q206 305 198 286.5Q190 268 190 247ZM16 249Q16 310 37 358.5Q58 407 92.5 440.5Q127 474 172 492Q217 510 264 510Q309 510 342 495Q375 480 391 457V472Q391 482 398 488.5Q405 495 414 495H539Q549 495 555.5 488.5Q562 482 562 472V23Q562 13 555.5 6.5Q549 0 539 0H414Q404 0 397.5 6.5Q391 13 391 23V38Q375 15 341.5 0Q308 -15 263 -15Q216 -15 171.5 3.5Q127 22 92.5 56Q58 90 37 139Q16 188 16 249Z" glyph-name="aacute" horiz-adv-x="596" unicode="á" /><glyph d="M376 759Q395 759 409 735L502 577Q513 560 504 550Q495 540 485 540H382Q368 540 362.5 544.5Q357 549 349 559L297 630L245 559Q237 549 231.5 544.5Q226 540 212 540H109Q99 540 90.5 550Q82 560 92 577L185 735Q199 759 218 759ZM190 247Q190 226 198 207.5Q206 189 219.5 175Q233 161 251 153Q269 145 290 145Q311 145 329.5 153Q348 161 361.5 175Q375 189 382.5 207.5Q390 226 390 247Q390 268 382.5 286.5Q375 305 361.5 319Q348 333 329.5 341Q311 349 290 349Q269 349 251 341Q233 333 219.5 319Q206 305 198 286.5Q190 268 190 247ZM16 249Q16 310 37 358.5Q58 407 92.5 440.5Q127 474 172 492Q217 510 264 510Q309 510 342 495Q375 480 391 457V472Q391 482 398 488.5Q405 495 414 495H539Q549 495 555.5 488.5Q562 482 562 472V23Q562 13 555.5 6.5Q549 0 539 0H414Q404 0 397.5 6.5Q391 13 391 23V38Q375 15 341.5 0Q308 -15 263 -15Q216 -15 171.5 3.5Q127 22 92.5 56Q58 90 37 139Q16 188 16 249Z" glyph-name="acircumflex" horiz-adv-x="596" unicode="â" /><glyph d="M395 551Q374 551 349.5 556Q325 561 301.5 566.5Q278 572 258 577Q238 582 227 582Q210 582 199.5 576.5Q189 571 181 565Q173 559 166.5 553.5Q160 548 150 548Q142 548 136.5 552.5Q131 557 125 565L86 624Q75 641 75 657Q75 666 86 680.5Q97 695 115 708.5Q133 722 155.5 731.5Q178 741 201 741Q220 741 244 736Q268 731 291.5 725.5Q315 720 336 715Q357 710 369 710Q386 710 397 715.5Q408 721 416.5 727Q425 733 432 738.5Q439 744 449 744Q462 744 474 727L508 668Q513 658 516 650Q519 642 519 634Q519 625 508.5 611Q498 597 480.5 583.5Q463 570 441 560.5Q419 551 395 551ZM190 247Q190 226 198 207.5Q206 189 219.5 175Q233 161 251 153Q269 145 290 145Q311 145 329.5 153Q348 161 361.5 175Q375 189 382.5 207.5Q390 226 390 247Q390 268 382.5 286.5Q375 305 361.5 319Q348 333 329.5 341Q311 349 290 349Q269 349 251 341Q233 333 219.5 319Q206 305 198 286.5Q190 268 190 247ZM16 249Q16 310 37 358.5Q58 407 92.5 440.5Q127 474 172 492Q217 510 264 510Q309 510 342 495Q375 480 391 457V472Q391 482 398 488.5Q405 495 414 495H539Q549 495 555.5 488.5Q562 482 562 472V23Q562 13 555.5 6.5Q549 0 539 0H414Q404 0 397.5 6.5Q391 13 391 23V38Q375 15 341.5 0Q308 -15 263 -15Q216 -15 171.5 3.5Q127 22 92.5 56Q58 90 37 139Q16 188 16 249Z" glyph-name="atilde" horiz-adv-x="596" unicode="ã" /><glyph d="M77 637Q77 658 85 676.5Q93 695 107 709Q121 723 139.5 731Q158 739 179 739Q200 739 218.5 731Q237 723 251 709Q265 695 273 676.5Q281 658 281 637Q281 616 273 597.5Q265 579 251 565Q237 551 218.5 543Q200 535 179 535Q158 535 139.5 543Q121 551 107 565Q93 579 85 597.5Q77 616 77 637ZM313 637Q313 658 321 676.5Q329 695 343 709Q357 723 375.5 731Q394 739 415 739Q436 739 454.5 731Q473 723 487 709Q501 695 509 676.5Q517 658 517 637Q517 616 509 597.5Q501 579 487 565Q473 551 454.5 543Q436 535 415 535Q394 535 375.5 543Q357 551 343 565Q329 579 321 597.5Q313 616 313 637ZM190 247Q190 226 198 207.5Q206 189 219.5 175Q233 161 251 153Q269 145 290 145Q311 145 329.5 153Q348 161 361.5 175Q375 189 382.5 207.5Q390 226 390 247Q390 268 382.5 286.5Q375 305 361.5 319Q348 333 329.5 341Q311 349 290 349Q269 349 251 341Q233 333 219.5 319Q206 305 198 286.5Q190 268 190 247ZM16 249Q16 310 37 358.5Q58 407 92.5 440.5Q127 474 172 492Q217 510 264 510Q309 510 342 495Q375 480 391 457V472Q391 482 398 488.5Q405 495 414 495H539Q549 495 555.5 488.5Q562 482 562 472V23Q562 13 555.5 6.5Q549 0 539 0H414Q404 0 397.5 6.5Q391 13 391 23V38Q375 15 341.5 0Q308 -15 263 -15Q216 -15 171.5 3.5Q127 22 92.5 56Q58 90 37 139Q16 188 16 249Z" glyph-name="adieresis" horiz-adv-x="596" unicode="ä" /><glyph d="M467 699Q467 665 454 635.5Q441 606 418.5 584.5Q396 563 364.5 550.5Q333 538 297 538Q260 538 229 550.5Q198 563 175.5 584.5Q153 606 140 635.5Q127 665 127 699Q127 733 140 762.5Q153 792 175.5 813.5Q198 835 229 847.5Q260 860 297 860Q333 860 364.5 847.5Q396 835 418.5 813.5Q441 792 454 762.5Q467 733 467 699ZM357 699Q357 725 340.5 743.5Q324 762 297 762Q270 762 253 743.5Q236 725 236 699Q236 673 253 654.5Q270 636 297 636Q324 636 340.5 654.5Q357 673 357 699ZM190 247Q190 226 198 207.5Q206 189 219.5 175Q233 161 251 153Q269 145 290 145Q311 145 329.5 153Q348 161 361.5 175Q375 189 382.5 207.5Q390 226 390 247Q390 268 382.5 286.5Q375 305 361.5 319Q348 333 329.5 341Q311 349 290 349Q269 349 251 341Q233 333 219.5 319Q206 305 198 286.5Q190 268 190 247ZM16 249Q16 310 37 358.5Q58 407 92.5 440.5Q127 474 172 492Q217 510 264 510Q309 510 342 495Q375 480 391 457V472Q391 482 398 488.5Q405 495 414 495H539Q549 495 555.5 488.5Q562 482 562 472V23Q562 13 555.5 6.5Q549 0 539 0H414Q404 0 397.5 6.5Q391 13 391 23V38Q375 15 341.5 0Q308 -15 263 -15Q216 -15 171.5 3.5Q127 22 92.5 56Q58 90 37 139Q16 188 16 249Z" glyph-name="aring" horiz-adv-x="596" unicode="å" /><glyph d="M618 -15Q567 -15 524.5 -0.5Q482 14 449 40Q416 14 375.5 -0.5Q335 -15 287 -15Q229 -15 179.5 5.5Q130 26 93.5 61Q57 96 36.5 144Q16 192 16 246Q16 301 36.5 349Q57 397 93.5 433Q130 469 179.5 489.5Q229 510 287 510Q335 510 375.5 495Q416 480 450 454Q484 480 526 495Q568 510 618 510Q679 510 726.5 488.5Q774 467 806.5 432Q839 397 856 352.5Q873 308 873 263V232Q873 221 867.5 213.5Q862 206 845 206H530Q535 170 562 150.5Q589 131 621 131Q651 131 671.5 141Q692 151 709 169Q714 174 720.5 177Q727 180 736 175L838 113Q848 107 847 97Q846 87 842 82Q813 41 757.5 13Q702 -15 618 -15ZM703 311Q692 345 667.5 359Q643 373 619 373Q593 373 569 357.5Q545 342 534 311ZM290 146Q310 146 328.5 153.5Q347 161 361 175Q352 208 352 244Q352 285 362 318Q348 332 330 340.5Q312 349 290 349Q269 349 251 341Q233 333 219.5 319Q206 305 198 286.5Q190 268 190 247Q190 205 219 175.5Q248 146 290 146Z" glyph-name="ae" horiz-adv-x="885" unicode="æ" /><glyph d="M300 -154Q295 -165 286.5 -167Q278 -169 268 -169H173Q159 -169 152 -160Q145 -151 150 -136L193 0Q153 14 120.5 37.5Q88 61 65 93.5Q42 126 29 165Q16 204 16 247Q16 303 36.5 351Q57 399 93 434Q129 469 178.5 489.5Q228 510 286 510Q365 510 422.5 478Q480 446 511 399Q518 387 513.5 374.5Q509 362 498 354L423 298Q406 286 394 293Q382 300 376 307Q359 327 338.5 338Q318 349 289 349Q245 349 217.5 319Q190 289 190 247Q190 205 217.5 175.5Q245 146 289 146Q318 146 338.5 157Q359 168 376 188Q382 195 394 202Q406 209 423 197L498 141Q509 133 513.5 120.5Q518 108 511 96Q490 64 456.5 38.5Q423 13 378 -1Z" glyph-name="ccedilla" horiz-adv-x="524" unicode="ç" /><glyph d="M283 759Q306 759 311 739L346 577Q354 540 315 540H234Q224 540 217.5 543.5Q211 547 205 557L107 720Q99 733 105 746Q111 759 131 759ZM282 510Q343 510 390.5 488.5Q438 467 470.5 432Q503 397 520 352.5Q537 308 537 263V232Q537 221 531.5 213.5Q526 206 509 206H194Q199 170 226 150.5Q253 131 285 131Q315 131 335.5 141Q356 151 373 169Q378 174 384.5 177Q391 180 400 175L502 113Q512 107 511 97Q510 87 506 82Q477 41 421.5 13Q366 -15 282 -15Q222 -15 173 5Q124 25 89 60.5Q54 96 35 143Q16 190 16 244Q16 300 35.5 348.5Q55 397 90.5 433Q126 469 175 489.5Q224 510 282 510ZM367 311Q356 345 331.5 359Q307 373 283 373Q257 373 233 357.5Q209 342 198 311Z" glyph-name="egrave" horiz-adv-x="549" unicode="è" /><glyph d="M422 759Q442 759 448 746Q454 733 446 720L348 557Q342 547 335.5 543.5Q329 540 319 540H238Q199 540 207 577L242 739Q247 759 270 759ZM282 510Q343 510 390.5 488.5Q438 467 470.5 432Q503 397 520 352.5Q537 308 537 263V232Q537 221 531.5 213.5Q526 206 509 206H194Q199 170 226 150.5Q253 131 285 131Q315 131 335.5 141Q356 151 373 169Q378 174 384.5 177Q391 180 400 175L502 113Q512 107 511 97Q510 87 506 82Q477 41 421.5 13Q366 -15 282 -15Q222 -15 173 5Q124 25 89 60.5Q54 96 35 143Q16 190 16 244Q16 300 35.5 348.5Q55 397 90.5 433Q126 469 175 489.5Q224 510 282 510ZM367 311Q356 345 331.5 359Q307 373 283 373Q257 373 233 357.5Q209 342 198 311Z" glyph-name="eacute" horiz-adv-x="549" unicode="é" /><glyph d="M355 759Q374 759 388 735L481 577Q492 560 483 550Q474 540 464 540H361Q347 540 341.5 544.5Q336 549 328 559L276 630L224 559Q216 549 210.5 544.5Q205 540 191 540H88Q78 540 69.5 550Q61 560 71 577L164 735Q178 759 197 759ZM282 510Q343 510 390.5 488.5Q438 467 470.5 432Q503 397 520 352.5Q537 308 537 263V232Q537 221 531.5 213.5Q526 206 509 206H194Q199 170 226 150.5Q253 131 285 131Q315 131 335.5 141Q356 151 373 169Q378 174 384.5 177Q391 180 400 175L502 113Q512 107 511 97Q510 87 506 82Q477 41 421.5 13Q366 -15 282 -15Q222 -15 173 5Q124 25 89 60.5Q54 96 35 143Q16 190 16 244Q16 300 35.5 348.5Q55 397 90.5 433Q126 469 175 489.5Q224 510 282 510ZM367 311Q356 345 331.5 359Q307 373 283 373Q257 373 233 357.5Q209 342 198 311Z" glyph-name="ecircumflex" horiz-adv-x="549" unicode="ê" /><glyph d="M56 637Q56 658 64 676.5Q72 695 86 709Q100 723 118.5 731Q137 739 158 739Q179 739 197.5 731Q216 723 230 709Q244 695 252 676.5Q260 658 260 637Q260 616 252 597.5Q244 579 230 565Q216 551 197.5 543Q179 535 158 535Q137 535 118.5 543Q100 551 86 565Q72 579 64 597.5Q56 616 56 637ZM292 637Q292 658 300 676.5Q308 695 322 709Q336 723 354.5 731Q373 739 394 739Q415 739 433.5 731Q452 723 466 709Q480 695 488 676.5Q496 658 496 637Q496 616 488 597.5Q480 579 466 565Q452 551 433.5 543Q415 535 394 535Q373 535 354.5 543Q336 551 322 565Q308 579 300 597.5Q292 616 292 637ZM282 510Q343 510 390.5 488.5Q438 467 470.5 432Q503 397 520 352.5Q537 308 537 263V232Q537 221 531.5 213.5Q526 206 509 206H194Q199 170 226 150.5Q253 131 285 131Q315 131 335.5 141Q356 151 373 169Q378 174 384.5 177Q391 180 400 175L502 113Q512 107 511 97Q510 87 506 82Q477 41 421.5 13Q366 -15 282 -15Q222 -15 173 5Q124 25 89 60.5Q54 96 35 143Q16 190 16 244Q16 300 35.5 348.5Q55 397 90.5 433Q126 469 175 489.5Q224 510 282 510ZM367 311Q356 345 331.5 359Q307 373 283 373Q257 373 233 357.5Q209 342 198 311Z" glyph-name="edieresis" horiz-adv-x="549" unicode="ë" /><glyph d="M128 759Q151 759 156 739L191 577Q199 540 160 540H79Q69 540 62.5 543.5Q56 547 50 557L-48 720Q-56 733 -50 746Q-44 759 -24 759ZM58 0Q48 0 41 7Q34 14 34 24V472Q34 482 41 488.5Q48 495 58 495H184Q194 495 200.5 488.5Q207 482 207 472V24Q207 14 200.5 7Q194 0 184 0Z" glyph-name="igrave" horiz-adv-x="241" unicode="ì" /><glyph d="M266 759Q286 759 292 746Q298 733 290 720L192 557Q186 547 179.5 543.5Q173 540 163 540H82Q43 540 51 577L86 739Q91 759 114 759ZM58 0Q48 0 41 7Q34 14 34 24V472Q34 482 41 488.5Q48 495 58 495H184Q194 495 200.5 488.5Q207 482 207 472V24Q207 14 200.5 7Q194 0 184 0Z" glyph-name="iacute" horiz-adv-x="241" unicode="í" /><glyph d="M200 759Q219 759 233 735L326 577Q337 560 328 550Q319 540 309 540H206Q192 540 186.5 544.5Q181 549 173 559L121 630L69 559Q61 549 55.5 544.5Q50 540 36 540H-67Q-77 540 -85.5 550Q-94 560 -84 577L9 735Q23 759 42 759ZM58 0Q48 0 41 7Q34 14 34 24V472Q34 482 41 488.5Q48 495 58 495H184Q194 495 200.5 488.5Q207 482 207 472V24Q207 14 200.5 7Q194 0 184 0Z" glyph-name="icircumflex" horiz-adv-x="241" unicode="î" /><glyph d="M-99 637Q-99 658 -91 676.5Q-83 695 -69 709Q-55 723 -36.5 731Q-18 739 3 739Q24 739 42.5 731Q61 723 75 709Q89 695 97 676.5Q105 658 105 637Q105 616 97 597.5Q89 579 75 565Q61 551 42.5 543Q24 535 3 535Q-18 535 -36.5 543Q-55 551 -69 565Q-83 579 -91 597.5Q-99 616 -99 637ZM137 637Q137 658 145 676.5Q153 695 167 709Q181 723 199.5 731Q218 739 239 739Q260 739 278.5 731Q297 723 311 709Q325 695 333 676.5Q341 658 341 637Q341 616 333 597.5Q325 579 311 565Q297 551 278.5 543Q260 535 239 535Q218 535 199.5 543Q181 551 167 565Q153 579 145 597.5Q137 616 137 637ZM58 0Q48 0 41 7Q34 14 34 24V472Q34 482 41 488.5Q48 495 58 495H184Q194 495 200.5 488.5Q207 482 207 472V24Q207 14 200.5 7Q194 0 184 0Z" glyph-name="idieresis" horiz-adv-x="241" unicode="ï" /><glyph d="M301 -15Q240 -15 187.5 6Q135 27 96.5 63Q58 99 36.5 147.5Q15 196 15 251Q15 301 33 346Q51 391 83.5 425.5Q116 460 160.5 480Q205 500 258 500Q316 500 356 476Q339 495 319.5 516Q300 537 280 558L197 536Q188 534 179.5 536Q171 538 167 551L154 599Q147 624 171 630L205 639Q190 655 177.5 669Q165 683 154 694Q142 706 146.5 722Q151 738 174 738H307Q315 738 325.5 737Q336 736 348 725Q363 711 385 688L473 711Q482 713 490.5 711Q499 709 503 696L516 648Q523 623 499 617L455 605Q479 573 502.5 535Q526 497 544 455.5Q562 414 573.5 369.5Q585 325 585 279Q585 217 564.5 163.5Q544 110 507 70Q470 30 417.5 7.5Q365 -15 301 -15ZM193 247Q193 204 222 174.5Q251 145 294 145Q337 145 366 174.5Q395 204 395 247Q395 290 366 319.5Q337 349 294 349Q251 349 222 319.5Q193 290 193 247Z" glyph-name="eth" horiz-adv-x="603" unicode="ð" /><glyph d="M374 554Q353 554 328.5 559Q304 564 280.5 569.5Q257 575 237 580Q217 585 206 585Q189 585 178.5 579.5Q168 574 160 568Q152 562 145.5 556.5Q139 551 129 551Q121 551 115.5 555.5Q110 560 104 568L65 627Q54 644 54 660Q54 669 65 683.5Q76 698 94 711.5Q112 725 134.5 734.5Q157 744 180 744Q199 744 223 739Q247 734 270.5 728.5Q294 723 315 718Q336 713 348 713Q365 713 376 718.5Q387 724 395.5 730Q404 736 411 741.5Q418 747 428 747Q441 747 453 730L487 671Q492 661 495 653Q498 645 498 637Q498 628 487.5 614Q477 600 459.5 586.5Q442 573 420 563.5Q398 554 374 554ZM399 248Q399 294 373.5 322Q348 350 304 350Q260 350 233.5 322Q207 294 207 248V21Q207 12 199.5 6Q192 0 183 0H57Q47 0 40.5 6.5Q34 13 34 23V472Q34 482 40.5 488.5Q47 495 57 495H183Q192 495 199.5 489Q207 483 207 474V456Q230 476 267 493Q304 510 359 510Q408 510 447.5 493.5Q487 477 514.5 448Q542 419 557 380.5Q572 342 572 297V21Q572 12 564.5 6Q557 0 548 0H423Q414 0 406.5 6Q399 12 399 21Z" glyph-name="ntilde" horiz-adv-x="601" unicode="ñ" /><glyph d="M296 759Q319 759 324 739L359 577Q367 540 328 540H247Q237 540 230.5 543.5Q224 547 218 557L120 720Q112 733 118 746Q124 759 144 759ZM15 246Q15 301 36.5 349Q58 397 95 433Q132 469 182 489.5Q232 510 289 510Q346 510 396 489.5Q446 469 483 433Q520 397 541.5 349Q563 301 563 246Q563 192 541.5 144Q520 96 483 61Q446 26 396 5.5Q346 -15 289 -15Q232 -15 182 5.5Q132 26 95 61Q58 96 36.5 144Q15 192 15 246ZM189 247Q189 205 218 175.5Q247 146 289 146Q331 146 360 175.5Q389 205 389 247Q389 268 381.5 286.5Q374 305 360.5 319Q347 333 328.5 341Q310 349 289 349Q268 349 250 341Q232 333 218.5 319Q205 305 197 286.5Q189 268 189 247Z" glyph-name="ograve" horiz-adv-x="578" unicode="ò" /><glyph d="M435 759Q455 759 461 746Q467 733 459 720L361 557Q355 547 348.5 543.5Q342 540 332 540H251Q212 540 220 577L255 739Q260 759 283 759ZM15 246Q15 301 36.5 349Q58 397 95 433Q132 469 182 489.5Q232 510 289 510Q346 510 396 489.5Q446 469 483 433Q520 397 541.5 349Q563 301 563 246Q563 192 541.5 144Q520 96 483 61Q446 26 396 5.5Q346 -15 289 -15Q232 -15 182 5.5Q132 26 95 61Q58 96 36.5 144Q15 192 15 246ZM189 247Q189 205 218 175.5Q247 146 289 146Q331 146 360 175.5Q389 205 389 247Q389 268 381.5 286.5Q374 305 360.5 319Q347 333 328.5 341Q310 349 289 349Q268 349 250 341Q232 333 218.5 319Q205 305 197 286.5Q189 268 189 247Z" glyph-name="oacute" horiz-adv-x="578" unicode="ó" /><glyph d="M368 759Q387 759 401 735L494 577Q505 560 496 550Q487 540 477 540H374Q360 540 354.5 544.5Q349 549 341 559L289 630L237 559Q229 549 223.5 544.5Q218 540 204 540H101Q91 540 82.5 550Q74 560 84 577L177 735Q191 759 210 759ZM15 246Q15 301 36.5 349Q58 397 95 433Q132 469 182 489.5Q232 510 289 510Q346 510 396 489.5Q446 469 483 433Q520 397 541.5 349Q563 301 563 246Q563 192 541.5 144Q520 96 483 61Q446 26 396 5.5Q346 -15 289 -15Q232 -15 182 5.5Q132 26 95 61Q58 96 36.5 144Q15 192 15 246ZM189 247Q189 205 218 175.5Q247 146 289 146Q331 146 360 175.5Q389 205 389 247Q389 268 381.5 286.5Q374 305 360.5 319Q347 333 328.5 341Q310 349 289 349Q268 349 250 341Q232 333 218.5 319Q205 305 197 286.5Q189 268 189 247Z" glyph-name="ocircumflex" horiz-adv-x="578" unicode="ô" /><glyph d="M387 551Q366 551 341.5 556Q317 561 293.5 566.5Q270 572 250 577Q230 582 219 582Q202 582 191.5 576.5Q181 571 173 565Q165 559 158.5 553.5Q152 548 142 548Q134 548 128.5 552.5Q123 557 117 565L78 624Q67 641 67 657Q67 666 78 680.5Q89 695 107 708.5Q125 722 147.5 731.5Q170 741 193 741Q212 741 236 736Q260 731 283.5 725.5Q307 720 328 715Q349 710 361 710Q378 710 389 715.5Q400 721 408.5 727Q417 733 424 738.5Q431 744 441 744Q454 744 466 727L500 668Q505 658 508 650Q511 642 511 634Q511 625 500.5 611Q490 597 472.5 583.5Q455 570 433 560.5Q411 551 387 551ZM15 246Q15 301 36.5 349Q58 397 95 433Q132 469 182 489.5Q232 510 289 510Q346 510 396 489.5Q446 469 483 433Q520 397 541.5 349Q563 301 563 246Q563 192 541.5 144Q520 96 483 61Q446 26 396 5.5Q346 -15 289 -15Q232 -15 182 5.5Q132 26 95 61Q58 96 36.5 144Q15 192 15 246ZM189 247Q189 205 218 175.5Q247 146 289 146Q331 146 360 175.5Q389 205 389 247Q389 268 381.5 286.5Q374 305 360.5 319Q347 333 328.5 341Q310 349 289 349Q268 349 250 341Q232 333 218.5 319Q205 305 197 286.5Q189 268 189 247Z" glyph-name="otilde" horiz-adv-x="578" unicode="õ" /><glyph d="M69 637Q69 658 77 676.5Q85 695 99 709Q113 723 131.5 731Q150 739 171 739Q192 739 210.5 731Q229 723 243 709Q257 695 265 676.5Q273 658 273 637Q273 616 265 597.5Q257 579 243 565Q229 551 210.5 543Q192 535 171 535Q150 535 131.5 543Q113 551 99 565Q85 579 77 597.5Q69 616 69 637ZM305 637Q305 658 313 676.5Q321 695 335 709Q349 723 367.5 731Q386 739 407 739Q428 739 446.5 731Q465 723 479 709Q493 695 501 676.5Q509 658 509 637Q509 616 501 597.5Q493 579 479 565Q465 551 446.5 543Q428 535 407 535Q386 535 367.5 543Q349 551 335 565Q321 579 313 597.5Q305 616 305 637ZM15 246Q15 301 36.5 349Q58 397 95 433Q132 469 182 489.5Q232 510 289 510Q346 510 396 489.5Q446 469 483 433Q520 397 541.5 349Q563 301 563 246Q563 192 541.5 144Q520 96 483 61Q446 26 396 5.5Q346 -15 289 -15Q232 -15 182 5.5Q132 26 95 61Q58 96 36.5 144Q15 192 15 246ZM189 247Q189 205 218 175.5Q247 146 289 146Q331 146 360 175.5Q389 205 389 247Q389 268 381.5 286.5Q374 305 360.5 319Q347 333 328.5 341Q310 349 289 349Q268 349 250 341Q232 333 218.5 319Q205 305 197 286.5Q189 268 189 247Z" glyph-name="odieresis" horiz-adv-x="578" unicode="ö" /><glyph d="M311 466Q289 466 270 474.5Q251 483 237 497Q223 511 214.5 530Q206 549 206 571Q206 593 214.5 612Q223 631 237 645.5Q251 660 270 668Q289 676 311 676Q333 676 352 668Q371 660 385.5 645.5Q400 631 408 612Q416 593 416 571Q416 549 408 530Q400 511 385.5 497Q371 483 352 474.5Q333 466 311 466ZM595 290Q595 279 588 272Q581 265 570 265H53Q42 265 35 272Q28 279 28 290V410Q28 421 35 428Q42 435 53 435H570Q581 435 588 428Q595 421 595 410ZM311 24Q289 24 270 32.5Q251 41 237 55Q223 69 214.5 88Q206 107 206 129Q206 151 214.5 170Q223 189 237 203.5Q251 218 270 226Q289 234 311 234Q333 234 352 226Q371 218 385.5 203.5Q400 189 408 170Q416 151 416 129Q416 107 408 88Q400 69 385.5 55Q371 41 352 32.5Q333 24 311 24Z" glyph-name="divide" horiz-adv-x="623" unicode="÷" /><glyph d="M15 246Q15 301 36.5 349Q58 397 95 433Q132 469 182 489.5Q232 510 289 510Q346 510 396 489.5Q446 469 483 433Q520 397 541.5 349Q563 301 563 246Q563 192 541.5 144Q520 96 483 61Q446 26 396 5.5Q346 -15 289 -15Q232 -15 182 5.5Q132 26 95 61Q58 96 36.5 144Q15 192 15 246ZM189 247Q189 215 205.5 190.5Q222 166 249 154V341Q222 329 205.5 304Q189 279 189 247ZM389 247Q389 278 372.5 303Q356 328 330 340V155Q356 166 372.5 191Q389 216 389 247Z" glyph-name="oslash" horiz-adv-x="578" unicode="ø" /><glyph d="M283 759Q306 759 311 739L346 577Q354 540 315 540H234Q224 540 217.5 543.5Q211 547 205 557L107 720Q99 733 105 746Q111 759 131 759ZM202 222Q202 183 220.5 157Q239 131 283 131Q324 131 344 156Q364 181 364 219V474Q364 483 371.5 489Q379 495 388 495H514Q524 495 530.5 488.5Q537 482 537 472V23Q537 13 530.5 6.5Q524 0 514 0H388Q379 0 371.5 6Q364 12 364 21V39Q341 17 311.5 1Q282 -15 228 -15Q182 -15 145 0Q108 15 82.5 42.5Q57 70 43 108.5Q29 147 29 193V474Q29 483 36.5 489Q44 495 53 495H178Q187 495 194.5 489Q202 483 202 474Z" glyph-name="ugrave" horiz-adv-x="571" unicode="ù" /><glyph d="M422 759Q442 759 448 746Q454 733 446 720L348 557Q342 547 335.5 543.5Q329 540 319 540H238Q199 540 207 577L242 739Q247 759 270 759ZM202 222Q202 183 220.5 157Q239 131 283 131Q324 131 344 156Q364 181 364 219V474Q364 483 371.5 489Q379 495 388 495H514Q524 495 530.5 488.5Q537 482 537 472V23Q537 13 530.5 6.5Q524 0 514 0H388Q379 0 371.5 6Q364 12 364 21V39Q341 17 311.5 1Q282 -15 228 -15Q182 -15 145 0Q108 15 82.5 42.5Q57 70 43 108.5Q29 147 29 193V474Q29 483 36.5 489Q44 495 53 495H178Q187 495 194.5 489Q202 483 202 474Z" glyph-name="uacute" horiz-adv-x="571" unicode="ú" /><glyph d="M355 759Q374 759 388 735L481 577Q492 560 483 550Q474 540 464 540H361Q347 540 341.5 544.5Q336 549 328 559L276 630L224 559Q216 549 210.5 544.5Q205 540 191 540H88Q78 540 69.5 550Q61 560 71 577L164 735Q178 759 197 759ZM202 222Q202 183 220.5 157Q239 131 283 131Q324 131 344 156Q364 181 364 219V474Q364 483 371.5 489Q379 495 388 495H514Q524 495 530.5 488.5Q537 482 537 472V23Q537 13 530.5 6.5Q524 0 514 0H388Q379 0 371.5 6Q364 12 364 21V39Q341 17 311.5 1Q282 -15 228 -15Q182 -15 145 0Q108 15 82.5 42.5Q57 70 43 108.5Q29 147 29 193V474Q29 483 36.5 489Q44 495 53 495H178Q187 495 194.5 489Q202 483 202 474Z" glyph-name="ucircumflex" horiz-adv-x="571" unicode="û" /><glyph d="M56 637Q56 658 64 676.5Q72 695 86 709Q100 723 118.5 731Q137 739 158 739Q179 739 197.5 731Q216 723 230 709Q244 695 252 676.5Q260 658 260 637Q260 616 252 597.5Q244 579 230 565Q216 551 197.5 543Q179 535 158 535Q137 535 118.5 543Q100 551 86 565Q72 579 64 597.5Q56 616 56 637ZM292 637Q292 658 300 676.5Q308 695 322 709Q336 723 354.5 731Q373 739 394 739Q415 739 433.5 731Q452 723 466 709Q480 695 488 676.5Q496 658 496 637Q496 616 488 597.5Q480 579 466 565Q452 551 433.5 543Q415 535 394 535Q373 535 354.5 543Q336 551 322 565Q308 579 300 597.5Q292 616 292 637ZM202 222Q202 183 220.5 157Q239 131 283 131Q324 131 344 156Q364 181 364 219V474Q364 483 371.5 489Q379 495 388 495H514Q524 495 530.5 488.5Q537 482 537 472V23Q537 13 530.5 6.5Q524 0 514 0H388Q379 0 371.5 6Q364 12 364 21V39Q341 17 311.5 1Q282 -15 228 -15Q182 -15 145 0Q108 15 82.5 42.5Q57 70 43 108.5Q29 147 29 193V474Q29 483 36.5 489Q44 495 53 495H178Q187 495 194.5 489Q202 483 202 474Z" glyph-name="udieresis" horiz-adv-x="571" unicode="ü" /><glyph d="M422 759Q442 759 448 746Q454 733 446 720L348 557Q342 547 335.5 543.5Q329 540 319 540H238Q199 540 207 577L242 739Q247 759 270 759ZM175 -237Q126 -237 85.5 -222.5Q45 -208 16 -184Q-3 -168 13 -142L56 -73Q67 -56 81.5 -56Q96 -56 107 -64Q118 -72 133 -79Q148 -86 164 -86Q181 -86 196 -79Q211 -72 219 -50L236 0H173Q161 0 153.5 7Q146 14 143 24L6 456Q1 471 5.5 483Q10 495 33 495H177Q187 495 193 487.5Q199 480 201 471L285 161L359 471Q361 480 367.5 487.5Q374 495 388 495H519Q536 495 541 484.5Q546 474 541 456L389 -67Q366 -146 312.5 -191.5Q259 -237 175 -237Z" glyph-name="yacute" horiz-adv-x="548" unicode="ý" /><glyph d="M206 247Q206 226 214 207.5Q222 189 235.5 175Q249 161 267 153Q285 145 306 145Q327 145 345.5 153Q364 161 377.5 175Q391 189 398.5 207.5Q406 226 406 247Q406 268 398.5 286.5Q391 305 377.5 319Q364 333 345.5 341Q327 349 306 349Q285 349 267 341Q249 333 235.5 319Q222 305 214 286.5Q206 268 206 247ZM205 458Q225 480 259 495Q293 510 339 510Q386 510 429.5 492Q473 474 506.5 440.5Q540 407 560 358.5Q580 310 580 249Q580 188 560 139Q540 90 506.5 56Q473 22 429 3.5Q385 -15 336 -15Q319 -15 300.5 -12.5Q282 -10 264 -4.5Q246 1 230.5 9.5Q215 18 205 31V-199Q205 -209 198.5 -215.5Q192 -222 182 -222H57Q47 -222 40.5 -215.5Q34 -209 34 -199V677Q34 687 40.5 693.5Q47 700 57 700H182Q191 700 198 693.5Q205 687 205 677Z" glyph-name="thorn" horiz-adv-x="597" unicode="þ" /><glyph d="M56 637Q56 658 64 676.5Q72 695 86 709Q100 723 118.5 731Q137 739 158 739Q179 739 197.5 731Q216 723 230 709Q244 695 252 676.5Q260 658 260 637Q260 616 252 597.5Q244 579 230 565Q216 551 197.5 543Q179 535 158 535Q137 535 118.5 543Q100 551 86 565Q72 579 64 597.5Q56 616 56 637ZM292 637Q292 658 300 676.5Q308 695 322 709Q336 723 354.5 731Q373 739 394 739Q415 739 433.5 731Q452 723 466 709Q480 695 488 676.5Q496 658 496 637Q496 616 488 597.5Q480 579 466 565Q452 551 433.5 543Q415 535 394 535Q373 535 354.5 543Q336 551 322 565Q308 579 300 597.5Q292 616 292 637ZM175 -237Q126 -237 85.5 -222.5Q45 -208 16 -184Q-3 -168 13 -142L56 -73Q67 -56 81.5 -56Q96 -56 107 -64Q118 -72 133 -79Q148 -86 164 -86Q181 -86 196 -79Q211 -72 219 -50L236 0H173Q161 0 153.5 7Q146 14 143 24L6 456Q1 471 5.5 483Q10 495 33 495H177Q187 495 193 487.5Q199 480 201 471L285 161L359 471Q361 480 367.5 487.5Q374 495 388 495H519Q536 495 541 484.5Q546 474 541 456L389 -67Q366 -146 312.5 -191.5Q259 -237 175 -237Z" glyph-name="ydieresis" horiz-adv-x="548" unicode="ÿ" /><glyph d="M179 760Q168 760 161 767Q154 774 154 785V880Q154 891 161 898Q168 905 179 905H526Q537 905 544 898Q551 891 551 880V785Q551 774 544 767Q537 760 526 760ZM424 297 348 545L272 297ZM187 22Q184 13 178 6.5Q172 0 162 0H27Q12 0 5 11Q-2 22 5 41L220 675Q225 689 234 694.5Q243 700 251 700H454Q462 700 471 694.5Q480 689 485 675L700 41Q707 21 699.5 10.5Q692 0 677 0H534Q515 0 509 22L471 147H225Z" glyph-name="Amacron" horiz-adv-x="705" unicode="Ā" /><glyph d="M124 555Q113 555 106 562Q99 569 99 580V675Q99 686 106 693Q113 700 124 700H471Q482 700 489 693Q496 686 496 675V580Q496 569 489 562Q482 555 471 555ZM190 247Q190 226 198 207.5Q206 189 219.5 175Q233 161 251 153Q269 145 290 145Q311 145 329.5 153Q348 161 361.5 175Q375 189 382.5 207.5Q390 226 390 247Q390 268 382.5 286.5Q375 305 361.5 319Q348 333 329.5 341Q311 349 290 349Q269 349 251 341Q233 333 219.5 319Q206 305 198 286.5Q190 268 190 247ZM16 249Q16 310 37 358.5Q58 407 92.5 440.5Q127 474 172 492Q217 510 264 510Q309 510 342 495Q375 480 391 457V472Q391 482 398 488.5Q405 495 414 495H539Q549 495 555.5 488.5Q562 482 562 472V23Q562 13 555.5 6.5Q549 0 539 0H414Q404 0 397.5 6.5Q391 13 391 23V38Q375 15 341.5 0Q308 -15 263 -15Q216 -15 171.5 3.5Q127 22 92.5 56Q58 90 37 139Q16 188 16 249Z" glyph-name="amacron" horiz-adv-x="596" unicode="ā" /><glyph d="M352 740Q252 740 202 789.5Q152 839 152 920V945Q152 954 158 960.5Q164 967 172 967H276Q284 967 290 960.5Q296 954 296 945V932Q296 906 312 891.5Q328 877 352 877Q376 877 392 891.5Q408 906 408 932V945Q408 954 414 960.5Q420 967 428 967H532Q540 967 546 960.5Q552 954 552 945V920Q552 839 502 789.5Q452 740 352 740ZM424 297 348 545L272 297ZM187 22Q184 13 178 6.5Q172 0 162 0H27Q12 0 5 11Q-2 22 5 41L220 675Q225 689 234 694.5Q243 700 251 700H454Q462 700 471 694.5Q480 689 485 675L700 41Q707 21 699.5 10.5Q692 0 677 0H534Q515 0 509 22L471 147H225Z" glyph-name="Abreve" horiz-adv-x="705" unicode="Ă" /><glyph d="M297 535Q197 535 147 584.5Q97 634 97 715V740Q97 749 103 755.5Q109 762 117 762H221Q229 762 235 755.5Q241 749 241 740V727Q241 701 257 686.5Q273 672 297 672Q321 672 337 686.5Q353 701 353 727V740Q353 749 359 755.5Q365 762 373 762H477Q485 762 491 755.5Q497 749 497 740V715Q497 634 447 584.5Q397 535 297 535ZM190 247Q190 226 198 207.5Q206 189 219.5 175Q233 161 251 153Q269 145 290 145Q311 145 329.5 153Q348 161 361.5 175Q375 189 382.5 207.5Q390 226 390 247Q390 268 382.5 286.5Q375 305 361.5 319Q348 333 329.5 341Q311 349 290 349Q269 349 251 341Q233 333 219.5 319Q206 305 198 286.5Q190 268 190 247ZM16 249Q16 310 37 358.5Q58 407 92.5 440.5Q127 474 172 492Q217 510 264 510Q309 510 342 495Q375 480 391 457V472Q391 482 398 488.5Q405 495 414 495H539Q549 495 555.5 488.5Q562 482 562 472V23Q562 13 555.5 6.5Q549 0 539 0H414Q404 0 397.5 6.5Q391 13 391 23V38Q375 15 341.5 0Q308 -15 263 -15Q216 -15 171.5 3.5Q127 22 92.5 56Q58 90 37 139Q16 188 16 249Z" glyph-name="abreve" horiz-adv-x="596" unicode="ă" /><glyph d="M424 297 348 545L272 297ZM696 -220Q693 -243 663 -252Q633 -261 590 -261Q529 -261 487.5 -234.5Q446 -208 446 -155Q446 -131 457 -108.5Q468 -86 485 -66Q502 -46 522.5 -29Q543 -12 563 0H534Q515 0 509 22L471 147H225L187 22Q184 13 178 6.5Q172 0 162 0H27Q12 0 5 11Q-2 22 5 41L220 675Q225 689 234 694.5Q243 700 251 700H454Q462 700 471 694.5Q480 689 485 675L700 41Q707 21 699.5 10.5Q692 0 677 0H663Q637 -37 618.5 -65.5Q600 -94 600 -110Q600 -122 608.5 -134.5Q617 -147 646 -147Q658 -147 667.5 -146Q677 -145 683 -145Q691 -145 697.5 -151Q704 -157 702 -175Z" glyph-name="Aogonek" horiz-adv-x="705" unicode="Ą" /><glyph d="M190 247Q190 226 198 207.5Q206 189 219.5 175Q233 161 251 153Q269 145 290 145Q311 145 329.5 153Q348 161 361.5 175Q375 189 382.5 207.5Q390 226 390 247Q390 268 382.5 286.5Q375 305 361.5 319Q348 333 329.5 341Q311 349 290 349Q269 349 251 341Q233 333 219.5 319Q206 305 198 286.5Q190 268 190 247ZM570 -190Q567 -213 537 -222Q507 -231 464 -231Q403 -231 361.5 -204.5Q320 -178 320 -125Q320 -87 344.5 -54Q369 -21 400 4Q391 11 391 23V38Q375 15 341.5 0Q308 -15 263 -15Q216 -15 171.5 3.5Q127 22 92.5 56Q58 90 37 139Q16 188 16 249Q16 310 37 358.5Q58 407 92.5 440.5Q127 474 172 492Q217 510 264 510Q309 510 342 495Q375 480 391 457V472Q391 482 398 488.5Q405 495 414 495H539Q549 495 555.5 488.5Q562 482 562 472V23Q562 13 555.5 6.5Q549 0 539 0H516Q498 -26 486 -47Q474 -68 474 -80Q474 -92 482.5 -104.5Q491 -117 520 -117Q532 -117 541.5 -116Q551 -115 557 -115Q565 -115 571.5 -121Q578 -127 576 -145Z" glyph-name="aogonek" horiz-adv-x="596" unicode="ą" /><glyph d="M541 964Q561 964 567 951Q573 938 565 925L467 762Q461 752 454.5 748.5Q448 745 438 745H357Q318 745 326 782L361 944Q366 964 389 964ZM394 -15Q315 -15 246 13.5Q177 42 126 91.5Q75 141 46 207.5Q17 274 17 350Q17 426 46 492.5Q75 559 126 608.5Q177 658 246 686.5Q315 715 394 715Q452 715 505 700Q558 685 602 657.5Q646 630 679.5 590Q713 550 732 500Q734 495 734.5 486.5Q735 478 721 474L581 436Q567 432 562 438.5Q557 445 555 449Q532 490 493.5 519Q455 548 395 548Q353 548 318.5 532.5Q284 517 258.5 490Q233 463 219 427Q205 391 205 350Q205 309 219 273Q233 237 258.5 210Q284 183 318.5 167.5Q353 152 395 152Q455 152 493.5 181Q532 210 555 251Q557 255 562 261.5Q567 268 581 264L721 226Q735 222 734.5 213.5Q734 205 732 200Q713 150 679.5 110Q646 70 602 42.5Q558 15 505 0Q452 -15 394 -15Z" glyph-name="Cacute" horiz-adv-x="735" unicode="Ć" /><glyph d="M420 759Q440 759 446 746Q452 733 444 720L346 557Q340 547 333.5 543.5Q327 540 317 540H236Q197 540 205 577L240 739Q245 759 268 759ZM511 96Q480 49 422.5 17Q365 -15 286 -15Q228 -15 178.5 5Q129 25 93 60.5Q57 96 36.5 144Q16 192 16 247Q16 303 36.5 351Q57 399 93 434Q129 469 178.5 489.5Q228 510 286 510Q365 510 422.5 478Q480 446 511 399Q518 387 513.5 374.5Q509 362 498 354L423 298Q406 286 394 293Q382 300 376 307Q359 327 338.5 338Q318 349 289 349Q245 349 217.5 319Q190 289 190 247Q190 205 217.5 175.5Q245 146 289 146Q318 146 338.5 157Q359 168 376 188Q382 195 394 202Q406 209 423 197L498 141Q509 133 513.5 120.5Q518 108 511 96Z" glyph-name="cacute" horiz-adv-x="524" unicode="ć" /><glyph d="M474 964Q493 964 507 940L600 782Q611 765 602 755Q593 745 583 745H480Q466 745 460.5 749.5Q455 754 447 764L395 835L343 764Q335 754 329.5 749.5Q324 745 310 745H207Q197 745 188.5 755Q180 765 190 782L283 940Q297 964 316 964ZM394 -15Q315 -15 246 13.5Q177 42 126 91.5Q75 141 46 207.5Q17 274 17 350Q17 426 46 492.5Q75 559 126 608.5Q177 658 246 686.5Q315 715 394 715Q452 715 505 700Q558 685 602 657.5Q646 630 679.5 590Q713 550 732 500Q734 495 734.5 486.5Q735 478 721 474L581 436Q567 432 562 438.5Q557 445 555 449Q532 490 493.5 519Q455 548 395 548Q353 548 318.5 532.5Q284 517 258.5 490Q233 463 219 427Q205 391 205 350Q205 309 219 273Q233 237 258.5 210Q284 183 318.5 167.5Q353 152 395 152Q455 152 493.5 181Q532 210 555 251Q557 255 562 261.5Q567 268 581 264L721 226Q735 222 734.5 213.5Q734 205 732 200Q713 150 679.5 110Q646 70 602 42.5Q558 15 505 0Q452 -15 394 -15Z" glyph-name="Ccircumflex" horiz-adv-x="735" unicode="Ĉ" /><glyph d="M353 759Q372 759 386 735L479 577Q490 560 481 550Q472 540 462 540H359Q345 540 339.5 544.5Q334 549 326 559L274 630L222 559Q214 549 208.5 544.5Q203 540 189 540H86Q76 540 67.5 550Q59 560 69 577L162 735Q176 759 195 759ZM511 96Q480 49 422.5 17Q365 -15 286 -15Q228 -15 178.5 5Q129 25 93 60.5Q57 96 36.5 144Q16 192 16 247Q16 303 36.5 351Q57 399 93 434Q129 469 178.5 489.5Q228 510 286 510Q365 510 422.5 478Q480 446 511 399Q518 387 513.5 374.5Q509 362 498 354L423 298Q406 286 394 293Q382 300 376 307Q359 327 338.5 338Q318 349 289 349Q245 349 217.5 319Q190 289 190 247Q190 205 217.5 175.5Q245 146 289 146Q318 146 338.5 157Q359 168 376 188Q382 195 394 202Q406 209 423 197L498 141Q509 133 513.5 120.5Q518 108 511 96Z" glyph-name="ccircumflex" horiz-adv-x="524" unicode="ĉ" /><glyph d="M395 744Q372 744 351.5 753Q331 762 316 777Q301 792 292 812.5Q283 833 283 856Q283 879 292 899.5Q301 920 316 935Q331 950 351.5 959Q372 968 395 968Q418 968 438.5 959Q459 950 474 935Q489 920 498 899.5Q507 879 507 856Q507 833 498 812.5Q489 792 474 777Q459 762 438.5 753Q418 744 395 744ZM394 -15Q315 -15 246 13.5Q177 42 126 91.5Q75 141 46 207.5Q17 274 17 350Q17 426 46 492.5Q75 559 126 608.5Q177 658 246 686.5Q315 715 394 715Q452 715 505 700Q558 685 602 657.5Q646 630 679.5 590Q713 550 732 500Q734 495 734.5 486.5Q735 478 721 474L581 436Q567 432 562 438.5Q557 445 555 449Q532 490 493.5 519Q455 548 395 548Q353 548 318.5 532.5Q284 517 258.5 490Q233 463 219 427Q205 391 205 350Q205 309 219 273Q233 237 258.5 210Q284 183 318.5 167.5Q353 152 395 152Q455 152 493.5 181Q532 210 555 251Q557 255 562 261.5Q567 268 581 264L721 226Q735 222 734.5 213.5Q734 205 732 200Q713 150 679.5 110Q646 70 602 42.5Q558 15 505 0Q452 -15 394 -15Z" glyph-name="Cdotaccent" horiz-adv-x="735" unicode="Ċ" /><glyph d="M274 539Q251 539 230.5 548Q210 557 195 572Q180 587 171 607.5Q162 628 162 651Q162 674 171 694.5Q180 715 195 730Q210 745 230.5 754Q251 763 274 763Q297 763 317.5 754Q338 745 353 730Q368 715 377 694.5Q386 674 386 651Q386 628 377 607.5Q368 587 353 572Q338 557 317.5 548Q297 539 274 539ZM511 96Q480 49 422.5 17Q365 -15 286 -15Q228 -15 178.5 5Q129 25 93 60.5Q57 96 36.5 144Q16 192 16 247Q16 303 36.5 351Q57 399 93 434Q129 469 178.5 489.5Q228 510 286 510Q365 510 422.5 478Q480 446 511 399Q518 387 513.5 374.5Q509 362 498 354L423 298Q406 286 394 293Q382 300 376 307Q359 327 338.5 338Q318 349 289 349Q245 349 217.5 319Q190 289 190 247Q190 205 217.5 175.5Q245 146 289 146Q318 146 338.5 157Q359 168 376 188Q382 195 394 202Q406 209 423 197L498 141Q509 133 513.5 120.5Q518 108 511 96Z" glyph-name="cdotaccent" horiz-adv-x="524" unicode="ċ" /><glyph d="M316 745Q297 745 283 769L190 927Q180 944 188.5 954Q197 964 207 964H310Q324 964 329.5 959.5Q335 955 343 945L395 874L447 945Q455 955 460.5 959.5Q466 964 480 964H583Q593 964 602 954Q611 944 600 927L507 769Q493 745 474 745ZM394 -15Q315 -15 246 13.5Q177 42 126 91.5Q75 141 46 207.5Q17 274 17 350Q17 426 46 492.5Q75 559 126 608.5Q177 658 246 686.5Q315 715 394 715Q452 715 505 700Q558 685 602 657.5Q646 630 679.5 590Q713 550 732 500Q734 495 734.5 486.5Q735 478 721 474L581 436Q567 432 562 438.5Q557 445 555 449Q532 490 493.5 519Q455 548 395 548Q353 548 318.5 532.5Q284 517 258.5 490Q233 463 219 427Q205 391 205 350Q205 309 219 273Q233 237 258.5 210Q284 183 318.5 167.5Q353 152 395 152Q455 152 493.5 181Q532 210 555 251Q557 255 562 261.5Q567 268 581 264L721 226Q735 222 734.5 213.5Q734 205 732 200Q713 150 679.5 110Q646 70 602 42.5Q558 15 505 0Q452 -15 394 -15Z" glyph-name="Ccaron" horiz-adv-x="735" unicode="Č" /><glyph d="M195 540Q176 540 162 564L69 722Q59 739 67.5 749Q76 759 86 759H189Q203 759 208.5 754.5Q214 750 222 740L274 669L326 740Q334 750 339.5 754.5Q345 759 359 759H462Q472 759 481 749Q490 739 479 722L386 564Q372 540 353 540ZM511 96Q480 49 422.5 17Q365 -15 286 -15Q228 -15 178.5 5Q129 25 93 60.5Q57 96 36.5 144Q16 192 16 247Q16 303 36.5 351Q57 399 93 434Q129 469 178.5 489.5Q228 510 286 510Q365 510 422.5 478Q480 446 511 399Q518 387 513.5 374.5Q509 362 498 354L423 298Q406 286 394 293Q382 300 376 307Q359 327 338.5 338Q318 349 289 349Q245 349 217.5 319Q190 289 190 247Q190 205 217.5 175.5Q245 146 289 146Q318 146 338.5 157Q359 168 376 188Q382 195 394 202Q406 209 423 197L498 141Q509 133 513.5 120.5Q518 108 511 96Z" glyph-name="ccaron" horiz-adv-x="524" unicode="č" /><glyph d="M295 745Q276 745 262 769L169 927Q159 944 167.5 954Q176 964 186 964H289Q303 964 308.5 959.5Q314 955 322 945L374 874L426 945Q434 955 439.5 959.5Q445 964 459 964H562Q572 964 581 954Q590 944 579 927L486 769Q472 745 453 745ZM370 700Q447 700 512 675Q577 650 623.5 604.5Q670 559 696 494.5Q722 430 722 352Q722 274 696 209Q670 144 623.5 97.5Q577 51 512 25.5Q447 0 370 0H72Q61 0 54 7Q47 14 47 25V676Q47 686 54 693Q61 700 72 700ZM366 165Q404 165 434.5 180.5Q465 196 487.5 222Q510 248 522 281.5Q534 315 534 352Q534 389 522 422Q510 455 487.5 480Q465 505 434.5 520Q404 535 366 535H227V165Z" glyph-name="Dcaron" horiz-adv-x="741" unicode="Ď" /><glyph d="M647 535Q624 547 610 569Q596 591 596 617Q596 656 623 684Q650 712 692 712Q711 712 729 705Q747 698 760.5 684.5Q774 671 782 652Q790 633 790 610Q790 579 779 552.5Q768 526 752 505Q736 484 717 467.5Q698 451 681 440Q667 430 652.5 427Q638 424 624 434L611 443Q599 452 598 462Q597 472 604 480ZM191 247Q191 226 199 207.5Q207 189 220.5 175Q234 161 252 153Q270 145 291 145Q312 145 330.5 153Q349 161 362.5 175Q376 189 383.5 207.5Q391 226 391 247Q391 268 383.5 286.5Q376 305 362.5 319Q349 333 330.5 341Q312 349 291 349Q270 349 252 341Q234 333 220.5 319Q207 305 199 286.5Q191 268 191 247ZM17 249Q17 310 37.5 358.5Q58 407 92.5 440.5Q127 474 171 492Q215 510 261 510Q307 510 340.5 495Q374 480 390 460V677Q390 687 397 693.5Q404 700 413 700H540Q550 700 556.5 693.5Q563 687 563 677V23Q563 13 556.5 6.5Q550 0 540 0H415Q405 0 398.5 6.5Q392 13 392 23V38Q373 15 341 0Q309 -15 264 -15Q217 -15 172.5 3.5Q128 22 93.5 56Q59 90 38 139Q17 188 17 249Z" glyph-name="dcaron" horiz-adv-x="712" unicode="ď" /><glyph d="M95 0Q84 0 77 7Q70 14 70 25V280H23Q12 280 5 287Q-2 294 -2 305V395Q-2 406 5 413Q12 420 23 420H70V676Q70 686 77 693Q84 700 95 700H393Q470 700 535 675Q600 650 646.5 604.5Q693 559 719 494.5Q745 430 745 352Q745 274 719 209Q693 144 646.5 97.5Q600 51 535 25.5Q470 0 393 0ZM389 165Q427 165 457.5 180.5Q488 196 510.5 222Q533 248 545 281.5Q557 315 557 352Q557 389 545 422Q533 455 510.5 480Q488 505 457.5 520Q427 535 389 535H250V420H383Q394 420 401 413Q408 406 408 395V305Q408 294 401 287Q394 280 383 280H250V165Z" glyph-name="Dcroat" horiz-adv-x="764" unicode="Đ" /><glyph d="M191 247Q191 226 199 207.5Q207 189 220.5 175Q234 161 252 153Q270 145 291 145Q312 145 330.5 153Q349 161 362.5 175Q376 189 383.5 207.5Q391 226 391 247Q391 268 383.5 286.5Q376 305 362.5 319Q349 333 330.5 341Q312 349 291 349Q270 349 252 341Q234 333 220.5 319Q207 305 199 286.5Q191 268 191 247ZM392 38Q373 15 341 0Q309 -15 264 -15Q217 -15 172.5 3.5Q128 22 93.5 56Q59 90 38 139Q17 188 17 249Q17 310 37.5 358.5Q58 407 92.5 440.5Q127 474 171 492Q215 510 261 510Q307 510 340.5 495Q374 480 390 460V538H298Q287 538 280 545Q273 552 273 563V621Q273 632 280 639Q287 646 298 646H390V677Q390 687 397 693.5Q404 700 413 700H540Q550 700 556.5 693.5Q563 687 563 677V646H598Q609 646 616 639Q623 632 623 621V563Q623 552 616 545Q609 538 598 538H563V23Q563 13 556.5 6.5Q550 0 540 0H415Q405 0 398.5 6.5Q392 13 392 23Z" glyph-name="dcroat" horiz-adv-x="597" unicode="đ" /><glyph d="M161 760Q150 760 143 767Q136 774 136 785V880Q136 891 143 898Q150 905 161 905H508Q519 905 526 898Q533 891 533 880V785Q533 774 526 767Q519 760 508 760ZM588 700Q599 700 606 693Q613 686 613 675V560Q613 549 606 542Q599 535 588 535H227V430H417Q428 430 435 423Q442 416 442 405V295Q442 284 435 277Q428 270 417 270H227V165H598Q609 165 616 158Q623 151 623 140V25Q623 14 616 7Q609 0 598 0H72Q61 0 54 7Q47 14 47 25V676Q47 686 54 693Q61 700 72 700Z" glyph-name="Emacron" horiz-adv-x="642" unicode="Ē" /><glyph d="M103 555Q92 555 85 562Q78 569 78 580V675Q78 686 85 693Q92 700 103 700H450Q461 700 468 693Q475 686 475 675V580Q475 569 468 562Q461 555 450 555ZM282 510Q343 510 390.5 488.5Q438 467 470.5 432Q503 397 520 352.5Q537 308 537 263V232Q537 221 531.5 213.5Q526 206 509 206H194Q199 170 226 150.5Q253 131 285 131Q315 131 335.5 141Q356 151 373 169Q378 174 384.5 177Q391 180 400 175L502 113Q512 107 511 97Q510 87 506 82Q477 41 421.5 13Q366 -15 282 -15Q222 -15 173 5Q124 25 89 60.5Q54 96 35 143Q16 190 16 244Q16 300 35.5 348.5Q55 397 90.5 433Q126 469 175 489.5Q224 510 282 510ZM367 311Q356 345 331.5 359Q307 373 283 373Q257 373 233 357.5Q209 342 198 311Z" glyph-name="emacron" horiz-adv-x="549" unicode="ē" /><glyph d="M334 740Q234 740 184 789.5Q134 839 134 920V945Q134 954 140 960.5Q146 967 154 967H258Q266 967 272 960.5Q278 954 278 945V932Q278 906 294 891.5Q310 877 334 877Q358 877 374 891.5Q390 906 390 932V945Q390 954 396 960.5Q402 967 410 967H514Q522 967 528 960.5Q534 954 534 945V920Q534 839 484 789.5Q434 740 334 740ZM588 700Q599 700 606 693Q613 686 613 675V560Q613 549 606 542Q599 535 588 535H227V430H417Q428 430 435 423Q442 416 442 405V295Q442 284 435 277Q428 270 417 270H227V165H598Q609 165 616 158Q623 151 623 140V25Q623 14 616 7Q609 0 598 0H72Q61 0 54 7Q47 14 47 25V676Q47 686 54 693Q61 700 72 700Z" glyph-name="Ebreve" horiz-adv-x="642" unicode="Ĕ" /><glyph d="M276 535Q176 535 126 584.5Q76 634 76 715V740Q76 749 82 755.5Q88 762 96 762H200Q208 762 214 755.5Q220 749 220 740V727Q220 701 236 686.5Q252 672 276 672Q300 672 316 686.5Q332 701 332 727V740Q332 749 338 755.5Q344 762 352 762H456Q464 762 470 755.5Q476 749 476 740V715Q476 634 426 584.5Q376 535 276 535ZM282 510Q343 510 390.5 488.5Q438 467 470.5 432Q503 397 520 352.5Q537 308 537 263V232Q537 221 531.5 213.5Q526 206 509 206H194Q199 170 226 150.5Q253 131 285 131Q315 131 335.5 141Q356 151 373 169Q378 174 384.5 177Q391 180 400 175L502 113Q512 107 511 97Q510 87 506 82Q477 41 421.5 13Q366 -15 282 -15Q222 -15 173 5Q124 25 89 60.5Q54 96 35 143Q16 190 16 244Q16 300 35.5 348.5Q55 397 90.5 433Q126 469 175 489.5Q224 510 282 510ZM367 311Q356 345 331.5 359Q307 373 283 373Q257 373 233 357.5Q209 342 198 311Z" glyph-name="ebreve" horiz-adv-x="549" unicode="ĕ" /><glyph d="M334 744Q311 744 290.5 753Q270 762 255 777Q240 792 231 812.5Q222 833 222 856Q222 879 231 899.5Q240 920 255 935Q270 950 290.5 959Q311 968 334 968Q357 968 377.5 959Q398 950 413 935Q428 920 437 899.5Q446 879 446 856Q446 833 437 812.5Q428 792 413 777Q398 762 377.5 753Q357 744 334 744ZM588 700Q599 700 606 693Q613 686 613 675V560Q613 549 606 542Q599 535 588 535H227V430H417Q428 430 435 423Q442 416 442 405V295Q442 284 435 277Q428 270 417 270H227V165H598Q609 165 616 158Q623 151 623 140V25Q623 14 616 7Q609 0 598 0H72Q61 0 54 7Q47 14 47 25V676Q47 686 54 693Q61 700 72 700Z" glyph-name="Edotaccent" horiz-adv-x="642" unicode="Ė" /><glyph d="M276 539Q253 539 232.5 548Q212 557 197 572Q182 587 173 607.5Q164 628 164 651Q164 674 173 694.5Q182 715 197 730Q212 745 232.5 754Q253 763 276 763Q299 763 319.5 754Q340 745 355 730Q370 715 379 694.5Q388 674 388 651Q388 628 379 607.5Q370 587 355 572Q340 557 319.5 548Q299 539 276 539ZM282 510Q343 510 390.5 488.5Q438 467 470.5 432Q503 397 520 352.5Q537 308 537 263V232Q537 221 531.5 213.5Q526 206 509 206H194Q199 170 226 150.5Q253 131 285 131Q315 131 335.5 141Q356 151 373 169Q378 174 384.5 177Q391 180 400 175L502 113Q512 107 511 97Q510 87 506 82Q477 41 421.5 13Q366 -15 282 -15Q222 -15 173 5Q124 25 89 60.5Q54 96 35 143Q16 190 16 244Q16 300 35.5 348.5Q55 397 90.5 433Q126 469 175 489.5Q224 510 282 510ZM367 311Q356 345 331.5 359Q307 373 283 373Q257 373 233 357.5Q209 342 198 311Z" glyph-name="edotaccent" horiz-adv-x="549" unicode="ė" /><glyph d="M572 -220Q569 -243 539 -252Q509 -261 466 -261Q405 -261 363.5 -234.5Q322 -208 322 -155Q322 -129 331.5 -105.5Q341 -82 356.5 -62.5Q372 -43 391 -27.5Q410 -12 428 0H72Q61 0 54 7Q47 14 47 25V676Q47 686 54 693Q61 700 72 700H588Q599 700 606 693Q613 686 613 675V560Q613 549 606 542Q599 535 588 535H227V430H417Q428 430 435 423Q442 416 442 405V295Q442 284 435 277Q428 270 417 270H227V165H598Q609 165 616 158Q623 151 623 140V25Q623 14 616 7Q609 0 598 0H529Q505 -38 492 -64Q479 -90 479 -106Q479 -118 487.5 -130.5Q496 -143 525 -143Q537 -143 545 -142Q553 -141 559 -141Q567 -141 573.5 -147Q580 -153 578 -171Z" glyph-name="Eogonek" horiz-adv-x="642" unicode="Ę" /><glyph d="M340 -236Q279 -236 237.5 -209.5Q196 -183 196 -130Q196 -97 215 -67.5Q234 -38 261 -14Q206 -10 160.5 11.5Q115 33 83 67.5Q51 102 33.5 147.5Q16 193 16 244Q16 300 35.5 348.5Q55 397 90.5 433Q126 469 175 489.5Q224 510 282 510Q343 510 390.5 488.5Q438 467 470.5 432Q503 397 520 352.5Q537 308 537 263V232Q537 221 531.5 213.5Q526 206 509 206H194Q199 170 226 150.5Q253 131 285 131Q315 131 335.5 141Q356 151 373 169Q378 174 384.5 177Q391 180 400 175L502 113Q512 107 511 97Q510 87 506 82Q489 58 462 37.5Q435 17 398 4Q378 -25 364 -48Q350 -71 350 -85Q350 -97 358.5 -109.5Q367 -122 396 -122Q408 -122 417.5 -121Q427 -120 433 -120Q441 -120 447.5 -126Q454 -132 452 -150L446 -195Q443 -218 413 -227Q383 -236 340 -236ZM367 311Q356 345 331.5 359Q307 373 283 373Q257 373 233 357.5Q209 342 198 311Z" glyph-name="eogonek" horiz-adv-x="549" unicode="ę" /><glyph d="M255 745Q236 745 222 769L129 927Q119 944 127.5 954Q136 964 146 964H249Q263 964 268.5 959.5Q274 955 282 945L334 874L386 945Q394 955 399.5 959.5Q405 964 419 964H522Q532 964 541 954Q550 944 539 927L446 769Q432 745 413 745ZM588 700Q599 700 606 693Q613 686 613 675V560Q613 549 606 542Q599 535 588 535H227V430H417Q428 430 435 423Q442 416 442 405V295Q442 284 435 277Q428 270 417 270H227V165H598Q609 165 616 158Q623 151 623 140V25Q623 14 616 7Q609 0 598 0H72Q61 0 54 7Q47 14 47 25V676Q47 686 54 693Q61 700 72 700Z" glyph-name="Ecaron" horiz-adv-x="642" unicode="Ě" /><glyph d="M197 540Q178 540 164 564L71 722Q61 739 69.5 749Q78 759 88 759H191Q205 759 210.5 754.5Q216 750 224 740L276 669L328 740Q336 750 341.5 754.5Q347 759 361 759H464Q474 759 483 749Q492 739 481 722L388 564Q374 540 355 540ZM282 510Q343 510 390.5 488.5Q438 467 470.5 432Q503 397 520 352.5Q537 308 537 263V232Q537 221 531.5 213.5Q526 206 509 206H194Q199 170 226 150.5Q253 131 285 131Q315 131 335.5 141Q356 151 373 169Q378 174 384.5 177Q391 180 400 175L502 113Q512 107 511 97Q510 87 506 82Q477 41 421.5 13Q366 -15 282 -15Q222 -15 173 5Q124 25 89 60.5Q54 96 35 143Q16 190 16 244Q16 300 35.5 348.5Q55 397 90.5 433Q126 469 175 489.5Q224 510 282 510ZM367 311Q356 345 331.5 359Q307 373 283 373Q257 373 233 357.5Q209 342 198 311Z" glyph-name="ecaron" horiz-adv-x="549" unicode="ě" /><glyph d="M470 964Q489 964 503 940L596 782Q607 765 598 755Q589 745 579 745H476Q462 745 456.5 749.5Q451 754 443 764L391 835L339 764Q331 754 325.5 749.5Q320 745 306 745H203Q193 745 184.5 755Q176 765 186 782L279 940Q293 964 312 964ZM399 715Q459 715 514.5 700Q570 685 616.5 657.5Q663 630 698 590Q733 550 752 500Q754 495 754.5 486.5Q755 478 741 474L601 436Q587 432 582 438.5Q577 445 575 449Q549 491 507 519.5Q465 548 400 548Q358 548 322.5 532Q287 516 261 488.5Q235 461 220 424.5Q205 388 205 347Q205 304 220 267.5Q235 231 261.5 205Q288 179 325 164Q362 149 405 149Q447 149 492 165.5Q537 182 575 231H412Q401 231 394 238Q387 245 387 256V350Q387 361 394 368Q401 375 412 375H726Q737 375 744 368Q751 361 751 350V25Q751 14 744 7Q737 0 726 0H611Q600 0 593 7Q586 14 586 25V65Q550 27 498 6Q446 -15 374 -15Q298 -15 233 13.5Q168 42 120 91.5Q72 141 44.5 207.5Q17 274 17 350Q17 426 46 492.5Q75 559 126.5 608.5Q178 658 248 686.5Q318 715 399 715Z" glyph-name="Gcircumflex" horiz-adv-x="786" unicode="Ĝ" /><glyph d="M376 759Q395 759 409 735L502 577Q513 560 504 550Q495 540 485 540H382Q368 540 362.5 544.5Q357 549 349 559L297 630L245 559Q237 549 231.5 544.5Q226 540 212 540H109Q99 540 90.5 550Q82 560 92 577L185 735Q199 759 218 759ZM190 255Q190 213 219 185Q248 157 290 157Q332 157 361 185Q390 213 390 255Q390 297 361 325Q332 353 290 353Q248 353 219 325Q190 297 190 255ZM294 -88Q341 -88 366 -63Q391 -38 391 3V48Q376 28 343 14Q310 0 266 0Q216 0 171 18Q126 36 91.5 69Q57 102 36.5 149Q16 196 16 254Q16 312 36.5 359Q57 406 90.5 439.5Q124 473 168 491.5Q212 510 259 510Q304 510 339 494.5Q374 479 391 457V472Q391 482 398 488.5Q405 495 414 495H539Q549 495 555.5 488.5Q562 482 562 472V-2Q562 -55 543 -98Q524 -141 488.5 -172Q453 -203 402.5 -220Q352 -237 289 -237Q241 -237 198 -226Q155 -215 121 -195Q87 -175 63.5 -147.5Q40 -120 31 -87Q29 -82 30.5 -75Q32 -68 42 -65L171 -25Q189 -20 199 -37Q208 -53 230.5 -70.5Q253 -88 294 -88Z" glyph-name="gcircumflex" horiz-adv-x="596" unicode="ĝ" /><glyph d="M391 740Q291 740 241 789.5Q191 839 191 920V945Q191 954 197 960.5Q203 967 211 967H315Q323 967 329 960.5Q335 954 335 945V932Q335 906 351 891.5Q367 877 391 877Q415 877 431 891.5Q447 906 447 932V945Q447 954 453 960.5Q459 967 467 967H571Q579 967 585 960.5Q591 954 591 945V920Q591 839 541 789.5Q491 740 391 740ZM399 715Q459 715 514.5 700Q570 685 616.5 657.5Q663 630 698 590Q733 550 752 500Q754 495 754.5 486.5Q755 478 741 474L601 436Q587 432 582 438.5Q577 445 575 449Q549 491 507 519.5Q465 548 400 548Q358 548 322.5 532Q287 516 261 488.5Q235 461 220 424.5Q205 388 205 347Q205 304 220 267.5Q235 231 261.5 205Q288 179 325 164Q362 149 405 149Q447 149 492 165.5Q537 182 575 231H412Q401 231 394 238Q387 245 387 256V350Q387 361 394 368Q401 375 412 375H726Q737 375 744 368Q751 361 751 350V25Q751 14 744 7Q737 0 726 0H611Q600 0 593 7Q586 14 586 25V65Q550 27 498 6Q446 -15 374 -15Q298 -15 233 13.5Q168 42 120 91.5Q72 141 44.5 207.5Q17 274 17 350Q17 426 46 492.5Q75 559 126.5 608.5Q178 658 248 686.5Q318 715 399 715Z" glyph-name="Gbreve" horiz-adv-x="786" unicode="Ğ" /><glyph d="M297 535Q197 535 147 584.5Q97 634 97 715V740Q97 749 103 755.5Q109 762 117 762H221Q229 762 235 755.5Q241 749 241 740V727Q241 701 257 686.5Q273 672 297 672Q321 672 337 686.5Q353 701 353 727V740Q353 749 359 755.5Q365 762 373 762H477Q485 762 491 755.5Q497 749 497 740V715Q497 634 447 584.5Q397 535 297 535ZM190 255Q190 213 219 185Q248 157 290 157Q332 157 361 185Q390 213 390 255Q390 297 361 325Q332 353 290 353Q248 353 219 325Q190 297 190 255ZM294 -88Q341 -88 366 -63Q391 -38 391 3V48Q376 28 343 14Q310 0 266 0Q216 0 171 18Q126 36 91.5 69Q57 102 36.5 149Q16 196 16 254Q16 312 36.5 359Q57 406 90.5 439.5Q124 473 168 491.5Q212 510 259 510Q304 510 339 494.5Q374 479 391 457V472Q391 482 398 488.5Q405 495 414 495H539Q549 495 555.5 488.5Q562 482 562 472V-2Q562 -55 543 -98Q524 -141 488.5 -172Q453 -203 402.5 -220Q352 -237 289 -237Q241 -237 198 -226Q155 -215 121 -195Q87 -175 63.5 -147.5Q40 -120 31 -87Q29 -82 30.5 -75Q32 -68 42 -65L171 -25Q189 -20 199 -37Q208 -53 230.5 -70.5Q253 -88 294 -88Z" glyph-name="gbreve" horiz-adv-x="596" unicode="ğ" /><glyph d="M391 744Q368 744 347.5 753Q327 762 312 777Q297 792 288 812.5Q279 833 279 856Q279 879 288 899.5Q297 920 312 935Q327 950 347.5 959Q368 968 391 968Q414 968 434.5 959Q455 950 470 935Q485 920 494 899.5Q503 879 503 856Q503 833 494 812.5Q485 792 470 777Q455 762 434.5 753Q414 744 391 744ZM399 715Q459 715 514.5 700Q570 685 616.5 657.5Q663 630 698 590Q733 550 752 500Q754 495 754.5 486.5Q755 478 741 474L601 436Q587 432 582 438.5Q577 445 575 449Q549 491 507 519.5Q465 548 400 548Q358 548 322.5 532Q287 516 261 488.5Q235 461 220 424.5Q205 388 205 347Q205 304 220 267.5Q235 231 261.5 205Q288 179 325 164Q362 149 405 149Q447 149 492 165.5Q537 182 575 231H412Q401 231 394 238Q387 245 387 256V350Q387 361 394 368Q401 375 412 375H726Q737 375 744 368Q751 361 751 350V25Q751 14 744 7Q737 0 726 0H611Q600 0 593 7Q586 14 586 25V65Q550 27 498 6Q446 -15 374 -15Q298 -15 233 13.5Q168 42 120 91.5Q72 141 44.5 207.5Q17 274 17 350Q17 426 46 492.5Q75 559 126.5 608.5Q178 658 248 686.5Q318 715 399 715Z" glyph-name="Gdotaccent" horiz-adv-x="786" unicode="Ġ" /><glyph d="M286 541Q263 541 242.5 550Q222 559 207 574Q192 589 183 609.5Q174 630 174 653Q174 676 183 696.5Q192 717 207 732Q222 747 242.5 756Q263 765 286 765Q309 765 329.5 756Q350 747 365 732Q380 717 389 696.5Q398 676 398 653Q398 630 389 609.5Q380 589 365 574Q350 559 329.5 550Q309 541 286 541ZM190 255Q190 213 219 185Q248 157 290 157Q332 157 361 185Q390 213 390 255Q390 297 361 325Q332 353 290 353Q248 353 219 325Q190 297 190 255ZM294 -88Q341 -88 366 -63Q391 -38 391 3V48Q376 28 343 14Q310 0 266 0Q216 0 171 18Q126 36 91.5 69Q57 102 36.5 149Q16 196 16 254Q16 312 36.5 359Q57 406 90.5 439.5Q124 473 168 491.5Q212 510 259 510Q304 510 339 494.5Q374 479 391 457V472Q391 482 398 488.5Q405 495 414 495H539Q549 495 555.5 488.5Q562 482 562 472V-2Q562 -55 543 -98Q524 -141 488.5 -172Q453 -203 402.5 -220Q352 -237 289 -237Q241 -237 198 -226Q155 -215 121 -195Q87 -175 63.5 -147.5Q40 -120 31 -87Q29 -82 30.5 -75Q32 -68 42 -65L171 -25Q189 -20 199 -37Q208 -53 230.5 -70.5Q253 -88 294 -88Z" glyph-name="gdotaccent" horiz-adv-x="596" unicode="ġ" /><glyph d="M399 715Q459 715 514.5 700Q570 685 616.5 657.5Q663 630 698 590Q733 550 752 500Q754 495 754.5 486.5Q755 478 741 474L601 436Q587 432 582 438.5Q577 445 575 449Q549 491 507 519.5Q465 548 400 548Q358 548 322.5 532Q287 516 261 488.5Q235 461 220 424.5Q205 388 205 347Q205 304 220 267.5Q235 231 261.5 205Q288 179 325 164Q362 149 405 149Q447 149 492 165.5Q537 182 575 231H412Q401 231 394 238Q387 245 387 256V350Q387 361 394 368Q401 375 412 375H726Q737 375 744 368Q751 361 751 350V25Q751 14 744 7Q737 0 726 0H611Q600 0 593 7Q586 14 586 25V65Q550 27 498 6Q446 -15 374 -15Q298 -15 233 13.5Q168 42 120 91.5Q72 141 44.5 207.5Q17 274 17 350Q17 426 46 492.5Q75 559 126.5 608.5Q178 658 248 686.5Q318 715 399 715ZM347 -209Q324 -198 310 -176Q296 -154 296 -128Q296 -88 323 -60.5Q350 -33 392 -33Q411 -33 429 -40Q447 -47 460.5 -60.5Q474 -74 482 -92.5Q490 -111 490 -134Q490 -166 479 -192.5Q468 -219 452 -240Q436 -261 417 -277Q398 -293 382 -304Q368 -315 353 -317.5Q338 -320 325 -311L311 -302Q299 -293 298 -283Q297 -273 305 -264Z" glyph-name="Gcommaaccent" horiz-adv-x="786" unicode="Ģ" /><glyph d="M331 744Q357 730 372.5 705.5Q388 681 388 652Q388 630 380 611Q372 592 357.5 578Q343 564 324 555.5Q305 547 282 547Q260 547 240 555Q220 563 205 577.5Q190 592 181 613Q172 634 172 660Q172 695 185.5 725Q199 755 218.5 779Q238 803 261 821.5Q284 840 302 852Q318 863 334 866.5Q350 870 365 859L380 849Q394 840 394.5 828.5Q395 817 387 808ZM190 255Q190 213 219 185Q248 157 290 157Q332 157 361 185Q390 213 390 255Q390 297 361 325Q332 353 290 353Q248 353 219 325Q190 297 190 255ZM294 -88Q341 -88 366 -63Q391 -38 391 3V48Q376 28 343 14Q310 0 266 0Q216 0 171 18Q126 36 91.5 69Q57 102 36.5 149Q16 196 16 254Q16 312 36.5 359Q57 406 90.5 439.5Q124 473 168 491.5Q212 510 259 510Q304 510 339 494.5Q374 479 391 457V472Q391 482 398 488.5Q405 495 414 495H539Q549 495 555.5 488.5Q562 482 562 472V-2Q562 -55 543 -98Q524 -141 488.5 -172Q453 -203 402.5 -220Q352 -237 289 -237Q241 -237 198 -226Q155 -215 121 -195Q87 -175 63.5 -147.5Q40 -120 31 -87Q29 -82 30.5 -75Q32 -68 42 -65L171 -25Q189 -20 199 -37Q208 -53 230.5 -70.5Q253 -88 294 -88Z" glyph-name="gcommaaccent" horiz-adv-x="596" unicode="ģ" /><glyph d="M448 964Q467 964 481 940L574 782Q585 765 576 755Q567 745 557 745H454Q440 745 434.5 749.5Q429 754 421 764L369 835L317 764Q309 754 303.5 749.5Q298 745 284 745H181Q171 745 162.5 755Q154 765 164 782L257 940Q271 964 290 964ZM691 25Q691 14 684 7Q677 0 666 0H536Q525 0 518 7Q511 14 511 25V270H227V25Q227 14 220 7Q213 0 202 0H72Q61 0 54 7Q47 14 47 25V676Q47 686 54 693Q61 700 72 700H202Q213 700 220 693Q227 686 227 676V430H511V676Q511 686 518 693Q525 700 536 700H666Q677 700 684 693Q691 686 691 676Z" glyph-name="Hcircumflex" horiz-adv-x="738" unicode="Ĥ" /><glyph d="M379 964Q398 964 412 940L505 782Q516 765 507 755Q498 745 488 745H385Q371 745 365.5 749.5Q360 754 352 764L300 835L248 764Q240 754 234.5 749.5Q229 745 215 745H112Q102 745 93.5 755Q85 765 95 782L188 940Q202 964 221 964ZM399 248Q399 294 373.5 322Q348 350 304 350Q260 350 233.5 322Q207 294 207 248V21Q207 12 199.5 6Q192 0 183 0H57Q47 0 40.5 6.5Q34 13 34 23V677Q34 687 40.5 693.5Q47 700 57 700H183Q192 700 199.5 694Q207 688 207 679V456Q230 476 267 493Q304 510 359 510Q408 510 447.5 493.5Q487 477 514.5 448Q542 419 557 380.5Q572 342 572 297V21Q572 12 564.5 6Q557 0 548 0H423Q414 0 406.5 6Q399 12 399 21Z" glyph-name="hcircumflex" horiz-adv-x="601" unicode="ĥ" /><glyph d="M514 430 514 500H230V430ZM230 25Q230 14 223 7Q216 0 205 0H75Q64 0 57 7Q50 14 50 25V500H30Q19 500 12 507Q5 514 5 525V598Q5 609 12 616Q19 623 30 623H50V676Q50 686 57 693Q64 700 75 700H205Q216 700 223 693Q230 686 230 676V623H514V676Q514 686 521 693Q528 700 539 700H669Q680 700 687 693Q694 686 694 676V623H714Q725 623 732 616Q739 609 739 598V525Q739 514 732 507Q725 500 714 500H694V25Q694 14 687 7Q680 0 669 0H539Q528 0 521 7Q514 14 514 25V270H230Z" glyph-name="Hbar" horiz-adv-x="744" unicode="Ħ" /><glyph d="M207 21Q207 12 199.5 6Q192 0 183 0H57Q47 0 40.5 6.5Q34 13 34 23V538H-1Q-12 538 -19 545Q-26 552 -26 563V621Q-26 632 -19 639Q-12 646 -1 646H34V677Q34 687 40.5 693.5Q47 700 57 700H183Q192 700 199.5 694Q207 688 207 679V646H299Q310 646 317 639Q324 632 324 621V563Q324 552 317 545Q310 538 299 538H207V456Q230 476 267 493Q304 510 359 510Q408 510 447.5 493.5Q487 477 514.5 448Q542 419 557 380.5Q572 342 572 297V21Q572 12 564.5 6Q557 0 548 0H423Q414 0 406.5 6Q399 12 399 21V248Q399 294 373.5 322Q348 350 304 350Q260 350 233.5 322Q207 294 207 248Z" glyph-name="hbar" horiz-adv-x="601" unicode="ħ" /><glyph d="M235 756Q214 756 189.5 761Q165 766 141.5 771.5Q118 777 98 782Q78 787 67 787Q50 787 39.5 781.5Q29 776 21 770Q13 764 6.5 758.5Q0 753 -10 753Q-18 753 -23.5 757.5Q-29 762 -35 770L-74 829Q-85 846 -85 862Q-85 871 -74 885.5Q-63 900 -45 913.5Q-27 927 -4.5 936.5Q18 946 41 946Q60 946 84 941Q108 936 131.5 930.5Q155 925 176 920Q197 915 209 915Q226 915 237 920.5Q248 926 256.5 932Q265 938 272 943.5Q279 949 289 949Q302 949 314 932L348 873Q353 863 356 855Q359 847 359 839Q359 830 348.5 816Q338 802 320.5 788.5Q303 775 281 765.5Q259 756 235 756ZM72 0Q61 0 54 7Q47 14 47 25V676Q47 686 54 693Q61 700 72 700H202Q213 700 220 693Q227 686 227 676V25Q227 14 220 7Q213 0 202 0Z" glyph-name="Itilde" horiz-adv-x="274" unicode="Ĩ" /><glyph d="M219 554Q198 554 173.5 559Q149 564 125.5 569.5Q102 575 82 580Q62 585 51 585Q34 585 23.5 579.5Q13 574 5 568Q-3 562 -9.5 556.5Q-16 551 -26 551Q-34 551 -39.5 555.5Q-45 560 -51 568L-90 627Q-101 644 -101 660Q-101 669 -90 683.5Q-79 698 -61 711.5Q-43 725 -20.5 734.5Q2 744 25 744Q44 744 68 739Q92 734 115.5 728.5Q139 723 160 718Q181 713 193 713Q210 713 221 718.5Q232 724 240.5 730Q249 736 256 741.5Q263 747 273 747Q286 747 298 730L332 671Q337 661 340 653Q343 645 343 637Q343 628 332.5 614Q322 600 304.5 586.5Q287 573 265 563.5Q243 554 219 554ZM58 0Q48 0 41 7Q34 14 34 24V472Q34 482 41 488.5Q48 495 58 495H184Q194 495 200.5 488.5Q207 482 207 472V24Q207 14 200.5 7Q194 0 184 0Z" glyph-name="itilde" horiz-adv-x="241" unicode="ĩ" /><glyph d="M-36 760Q-47 760 -54 767Q-61 774 -61 785V880Q-61 891 -54 898Q-47 905 -36 905H311Q322 905 329 898Q336 891 336 880V785Q336 774 329 767Q322 760 311 760ZM72 0Q61 0 54 7Q47 14 47 25V676Q47 686 54 693Q61 700 72 700H202Q213 700 220 693Q227 686 227 676V25Q227 14 220 7Q213 0 202 0Z" glyph-name="Imacron" horiz-adv-x="274" unicode="Ī" /><glyph d="M-53 555Q-64 555 -71 562Q-78 569 -78 580V675Q-78 686 -71 693Q-64 700 -53 700H294Q305 700 312 693Q319 686 319 675V580Q319 569 312 562Q305 555 294 555ZM58 0Q48 0 41 7Q34 14 34 24V472Q34 482 41 488.5Q48 495 58 495H184Q194 495 200.5 488.5Q207 482 207 472V24Q207 14 200.5 7Q194 0 184 0Z" glyph-name="imacron" horiz-adv-x="241" unicode="ī" /><glyph d="M137 740Q37 740 -13 789.5Q-63 839 -63 920V945Q-63 954 -57 960.5Q-51 967 -43 967H61Q69 967 75 960.5Q81 954 81 945V932Q81 906 97 891.5Q113 877 137 877Q161 877 177 891.5Q193 906 193 932V945Q193 954 199 960.5Q205 967 213 967H317Q325 967 331 960.5Q337 954 337 945V920Q337 839 287 789.5Q237 740 137 740ZM72 0Q61 0 54 7Q47 14 47 25V676Q47 686 54 693Q61 700 72 700H202Q213 700 220 693Q227 686 227 676V25Q227 14 220 7Q213 0 202 0Z" glyph-name="Ibreve" horiz-adv-x="274" unicode="Ĭ" /><glyph d="M121 535Q21 535 -29 584.5Q-79 634 -79 715V740Q-79 749 -73 755.5Q-67 762 -59 762H45Q53 762 59 755.5Q65 749 65 740V727Q65 701 81 686.5Q97 672 121 672Q145 672 161 686.5Q177 701 177 727V740Q177 749 183 755.5Q189 762 197 762H301Q309 762 315 755.5Q321 749 321 740V715Q321 634 271 584.5Q221 535 121 535ZM58 0Q48 0 41 7Q34 14 34 24V472Q34 482 41 488.5Q48 495 58 495H184Q194 495 200.5 488.5Q207 482 207 472V24Q207 14 200.5 7Q194 0 184 0Z" glyph-name="ibreve" horiz-adv-x="241" unicode="ĭ" /><glyph d="M133 -261Q72 -261 30.5 -234.5Q-11 -208 -11 -155Q-11 -131 0 -108.5Q11 -86 28 -66Q45 -46 65.5 -29Q86 -12 106 0H72Q61 0 54 7Q47 14 47 25V676Q47 686 54 693Q61 700 72 700H202Q213 700 220 693Q227 686 227 676V25Q227 14 220.5 7Q214 0 206 0Q180 -36 161.5 -65Q143 -94 143 -110Q143 -122 151.5 -134.5Q160 -147 189 -147Q201 -147 210.5 -146Q220 -145 226 -145Q234 -145 240.5 -151Q247 -157 245 -175L239 -220Q236 -243 206 -252Q176 -261 133 -261Z" glyph-name="Iogonek" horiz-adv-x="274" unicode="Į" /><glyph d="M121 528Q101 528 83 536Q65 544 51.5 557.5Q38 571 30 589Q22 607 22 627Q22 647 30 665Q38 683 51.5 696.5Q65 710 83 718Q101 726 121 726Q141 726 159 718Q177 710 190.5 696.5Q204 683 212 665Q220 647 220 627Q220 607 212 589Q204 571 190.5 557.5Q177 544 159 536Q141 528 121 528ZM115 -261Q54 -261 12.5 -234.5Q-29 -208 -29 -155Q-29 -131 -18 -108.5Q-7 -86 10 -66Q27 -46 47.5 -29Q68 -12 88 0H58Q48 0 41 7Q34 14 34 24V472Q34 482 41 488.5Q48 495 58 495H184Q194 495 200.5 488.5Q207 482 207 472V24Q207 14 201 7Q195 0 188 1Q162 -36 143.5 -65Q125 -94 125 -110Q125 -122 133.5 -134.5Q142 -147 171 -147Q183 -147 192.5 -146Q202 -145 208 -145Q216 -145 222.5 -151Q229 -157 227 -175L221 -220Q218 -243 188 -252Q158 -261 115 -261Z" glyph-name="iogonek" horiz-adv-x="241" unicode="į" /><glyph d="M137 744Q114 744 93.5 753Q73 762 58 777Q43 792 34 812.5Q25 833 25 856Q25 879 34 899.5Q43 920 58 935Q73 950 93.5 959Q114 968 137 968Q160 968 180.5 959Q201 950 216 935Q231 920 240 899.5Q249 879 249 856Q249 833 240 812.5Q231 792 216 777Q201 762 180.5 753Q160 744 137 744ZM72 0Q61 0 54 7Q47 14 47 25V676Q47 686 54 693Q61 700 72 700H202Q213 700 220 693Q227 686 227 676V25Q227 14 220 7Q213 0 202 0Z" glyph-name="Idotaccent" horiz-adv-x="274" unicode="İ" /><glyph d="M58 0Q48 0 41 7Q34 14 34 24V472Q34 482 41 488.5Q48 495 58 495H184Q194 495 200.5 488.5Q207 482 207 472V24Q207 14 200.5 7Q194 0 184 0Z" glyph-name="dotlessi" horiz-adv-x="241" unicode="ı" /><glyph d="M72 0Q61 0 54 7Q47 14 47 25V676Q47 686 54 693Q61 700 72 700H202Q213 700 220 693Q227 686 227 676V25Q227 14 220 7Q213 0 202 0ZM845 242Q845 174 821 125.5Q797 77 758 45.5Q719 14 669 -0.5Q619 -15 566 -15Q513 -15 463 -1Q413 13 374.5 44Q336 75 312.5 123.5Q289 172 289 242V286Q289 296 296 303Q303 310 314 310H444Q455 310 462 303Q469 296 469 286V247Q469 229 474.5 212Q480 195 491.5 181Q503 167 521.5 158.5Q540 150 566 150Q592 150 611 158.5Q630 167 642 181Q654 195 659.5 212Q665 229 665 247V676Q665 686 672 693Q679 700 690 700H820Q831 700 838 693Q845 686 845 676Z" glyph-name="IJ" horiz-adv-x="886" unicode="Ĳ" /><glyph d="M362 528Q342 528 324 536Q306 544 292.5 557.5Q279 571 271 589Q263 607 263 627Q263 647 271 665Q279 683 292.5 696.5Q306 710 324 718Q342 726 362 726Q382 726 400 718Q418 710 431.5 696.5Q445 683 453 665Q461 647 461 627Q461 607 453 589Q445 571 431.5 557.5Q418 544 400 536Q382 528 362 528ZM121 528Q101 528 83 536Q65 544 51.5 557.5Q38 571 30 589Q22 607 22 627Q22 647 30 665Q38 683 51.5 696.5Q65 710 83 718Q101 726 121 726Q141 726 159 718Q177 710 190.5 696.5Q204 683 212 665Q220 647 220 627Q220 607 212 589Q204 571 190.5 557.5Q177 544 159 536Q141 528 121 528ZM58 0Q48 0 41 7Q34 14 34 24V472Q34 482 41 488.5Q48 495 58 495H184Q194 495 200.5 488.5Q207 482 207 472V24Q207 14 200.5 7Q194 0 184 0ZM424 495Q434 495 441 488Q448 481 448 471V-41Q448 -96 430.5 -133.5Q413 -171 385.5 -194Q358 -217 323 -227Q288 -237 252 -237Q233 -237 211.5 -234Q190 -231 170 -224Q150 -217 131.5 -207Q113 -197 100 -182Q92 -174 92 -162Q92 -150 100 -139L150 -72Q161 -58 172 -57Q183 -56 193 -63Q205 -72 214.5 -75.5Q224 -79 234 -79Q245 -79 260 -70.5Q275 -62 275 -33V471Q275 481 281.5 488Q288 495 298 495Z" glyph-name="ij" horiz-adv-x="482" unicode="ĳ" /><glyph d="M560 964Q579 964 593 940L686 782Q697 765 688 755Q679 745 669 745H566Q552 745 546.5 749.5Q541 754 533 764L481 835L429 764Q421 754 415.5 749.5Q410 745 396 745H293Q283 745 274.5 755Q266 765 276 782L369 940Q383 964 402 964ZM571 242Q571 174 547 125.5Q523 77 484 45.5Q445 14 395 -0.5Q345 -15 292 -15Q239 -15 189 -1Q139 13 100.5 44Q62 75 38.5 123.5Q15 172 15 242V286Q15 296 22 303Q29 310 40 310H170Q181 310 188 303Q195 296 195 286V247Q195 229 200.5 212Q206 195 217.5 181Q229 167 247.5 158.5Q266 150 292 150Q318 150 337 158.5Q356 167 368 181Q380 195 385.5 212Q391 229 391 247V676Q391 686 398 693Q405 700 416 700H546Q557 700 564 693Q571 686 571 676Z" glyph-name="Jcircumflex" horiz-adv-x="612" unicode="Ĵ" /><glyph d="M200 759Q219 759 233 735L326 577Q337 560 328 550Q319 540 309 540H206Q192 540 186.5 544.5Q181 549 173 559L121 630L69 559Q61 549 55.5 544.5Q50 540 36 540H-67Q-77 540 -85.5 550Q-94 560 -84 577L9 735Q23 759 42 759ZM183 495Q193 495 200 488Q207 481 207 471V-41Q207 -96 189.5 -133.5Q172 -171 144.5 -194Q117 -217 82 -227Q47 -237 11 -237Q-8 -237 -29.5 -234Q-51 -231 -71 -224Q-91 -217 -109.5 -207Q-128 -197 -141 -182Q-149 -174 -149 -162Q-149 -150 -141 -139L-91 -72Q-80 -58 -69 -57Q-58 -56 -48 -63Q-36 -72 -26.5 -75.5Q-17 -79 -7 -79Q4 -79 19 -70.5Q34 -62 34 -33V471Q34 481 40.5 488Q47 495 57 495Z" glyph-name="jcircumflex" horiz-adv-x="241" unicode="ĵ" /><glyph d="M446 364 669 33Q679 19 673.5 9.5Q668 0 657 0H504Q488 0 478.5 3.5Q469 7 461 20L301 270H227V25Q227 14 220 7Q213 0 202 0H72Q61 0 54 7Q47 14 47 25V676Q47 686 54 693Q61 700 72 700H202Q213 700 220 693Q227 686 227 676V430H295L469 675Q478 688 487 694Q496 700 514 700H652Q668 700 673.5 690Q679 680 670 668ZM303 -209Q280 -198 266 -176Q252 -154 252 -128Q252 -88 279 -60.5Q306 -33 348 -33Q367 -33 385 -40Q403 -47 416.5 -60.5Q430 -74 438 -92.5Q446 -111 446 -134Q446 -166 435 -192.5Q424 -219 408 -240Q392 -261 373 -277Q354 -293 338 -304Q324 -315 309 -317.5Q294 -320 281 -311L267 -302Q255 -293 254 -283Q253 -273 261 -264Z" glyph-name="Kcommaaccent" horiz-adv-x="670" unicode="Ķ" /><glyph d="M207 23Q207 13 200.5 6.5Q194 0 184 0H58Q48 0 41 6.5Q34 13 34 23V677Q34 687 41 693.5Q48 700 58 700H184Q194 700 200.5 693.5Q207 687 207 677V334H236L326 477Q333 488 341.5 491.5Q350 495 360 495H483Q501 495 506 482Q511 469 501 454L384 274L526 43Q536 27 529.5 13.5Q523 0 503 0H368Q348 0 337 20L240 187H207ZM205 -209Q182 -198 168 -176Q154 -154 154 -128Q154 -88 181 -60.5Q208 -33 250 -33Q269 -33 287 -40Q305 -47 318.5 -60.5Q332 -74 340 -92.5Q348 -111 348 -134Q348 -166 337 -192.5Q326 -219 310 -240Q294 -261 275 -277Q256 -293 240 -304Q226 -315 211 -317.5Q196 -320 183 -311L169 -302Q157 -293 156 -283Q155 -273 163 -264Z" glyph-name="kcommaaccent" horiz-adv-x="525" unicode="ķ" /><glyph d="M207 23Q207 13 200.5 6.5Q194 0 184 0H58Q48 0 41 6.5Q34 13 34 23V472Q34 482 41 488.5Q48 495 58 495H184Q194 495 200.5 488.5Q207 482 207 472V325H239L326 477Q332 488 341 491.5Q350 495 360 495H480Q498 495 503 482Q508 469 498 454L386 274L526 43Q536 27 529.5 13.5Q523 0 503 0H367Q347 0 336 20L243 178H207Z" glyph-name="kgreenlandic" horiz-adv-x="525" unicode="ĸ" /><glyph d="M284 964Q304 964 310 951Q316 938 308 925L210 762Q204 752 197.5 748.5Q191 745 181 745H100Q61 745 69 782L104 944Q109 964 132 964ZM568 25Q568 14 561 7Q554 0 543 0H72Q61 0 54 7Q47 14 47 24V675Q47 686 54 693Q61 700 72 700H202Q213 700 220 693Q227 686 227 675V165H543Q554 165 561 158Q568 151 568 140Z" glyph-name="Lacute" horiz-adv-x="577" unicode="Ĺ" /><glyph d="M263 964Q283 964 289 951Q295 938 287 925L189 762Q183 752 176.5 748.5Q170 745 160 745H79Q40 745 48 782L83 944Q88 964 111 964ZM166 0Q128 0 102.5 10Q77 20 61 37.5Q45 55 38.5 78Q32 101 32 126V676Q32 686 39 693Q46 700 56 700H182Q192 700 198.5 693Q205 686 205 676V163Q205 155 210.5 149Q216 143 224 143H258Q266 143 273 138.5Q280 134 280 121V30Q280 10 268.5 5Q257 0 248 0Z" glyph-name="lacute" horiz-adv-x="287" unicode="ĺ" /><glyph d="M568 25Q568 14 561 7Q554 0 543 0H72Q61 0 54 7Q47 14 47 24V675Q47 686 54 693Q61 700 72 700H202Q213 700 220 693Q227 686 227 675V165H543Q554 165 561 158Q568 151 568 140ZM260 -209Q237 -198 223 -176Q209 -154 209 -128Q209 -88 236 -60.5Q263 -33 305 -33Q324 -33 342 -40Q360 -47 373.5 -60.5Q387 -74 395 -92.5Q403 -111 403 -134Q403 -166 392 -192.5Q381 -219 365 -240Q349 -261 330 -277Q311 -293 295 -304Q281 -315 266 -317.5Q251 -320 238 -311L224 -302Q212 -293 211 -283Q210 -273 218 -264Z" glyph-name="Lcommaaccent" horiz-adv-x="577" unicode="Ļ" /><glyph d="M166 0Q128 0 102.5 10Q77 20 61 37.5Q45 55 38.5 78Q32 101 32 126V676Q32 686 39 693Q46 700 56 700H182Q192 700 198.5 693Q205 686 205 676V163Q205 155 210.5 149Q216 143 224 143H258Q266 143 273 138.5Q280 134 280 121V30Q280 10 268.5 5Q257 0 248 0ZM94 -209Q71 -198 57 -176Q43 -154 43 -128Q43 -88 70 -60.5Q97 -33 139 -33Q158 -33 176 -40Q194 -47 207.5 -60.5Q221 -74 229 -92.5Q237 -111 237 -134Q237 -166 226 -192.5Q215 -219 199 -240Q183 -261 164 -277Q145 -293 129 -304Q115 -315 100 -317.5Q85 -320 72 -311L58 -302Q46 -293 45 -283Q44 -273 52 -264Z" glyph-name="lcommaaccent" horiz-adv-x="287" unicode="ļ" /><glyph d="M383 535Q360 547 346 569Q332 591 332 617Q332 656 359 684Q386 712 428 712Q447 712 465 705Q483 698 496.5 684.5Q510 671 518 652Q526 633 526 610Q526 579 515 552.5Q504 526 488 505Q472 484 453 467.5Q434 451 417 440Q403 430 388.5 427Q374 424 360 434L347 443Q335 452 334 462Q333 472 340 480ZM568 25Q568 14 561 7Q554 0 543 0H72Q61 0 54 7Q47 14 47 24V675Q47 686 54 693Q61 700 72 700H202Q213 700 220 693Q227 686 227 675V165H543Q554 165 561 158Q568 151 568 140Z" glyph-name="Lcaron" horiz-adv-x="579" unicode="Ľ" /><glyph d="M283 535Q260 547 246 569Q232 591 232 617Q232 656 259 684Q286 712 328 712Q347 712 365 705Q383 698 396.5 684.5Q410 671 418 652Q426 633 426 610Q426 579 415 552.5Q404 526 388 505Q372 484 353 467.5Q334 451 317 440Q303 430 288.5 427Q274 424 260 434L247 443Q235 452 234 462Q233 472 240 480ZM166 0Q128 0 102.5 10Q77 20 61 37.5Q45 55 38.5 78Q32 101 32 126V676Q32 686 39 693Q46 700 56 700H182Q192 700 198.5 693Q205 686 205 676V163Q205 155 210.5 149Q216 143 224 143H258Q266 143 273 138.5Q280 134 280 121V30Q280 10 268.5 5Q257 0 248 0Z" glyph-name="lcaron" horiz-adv-x="352" unicode="ľ" /><glyph d="M568 25Q568 14 561 7Q554 0 543 0H72Q61 0 54 7Q47 14 47 24V675Q47 686 54 693Q61 700 72 700H202Q213 700 220 693Q227 686 227 675V165H543Q554 165 561 158Q568 151 568 140ZM416 271Q393 271 373 280Q353 289 338 304Q323 319 314 339Q305 359 305 382Q305 405 314 425Q323 445 338 460Q353 475 373 484Q393 493 416 493Q439 493 459 484Q479 475 494 460Q509 445 518 425Q527 405 527 382Q527 359 518 339Q509 319 494 304Q479 289 459 280Q439 271 416 271Z" glyph-name="Ldot" horiz-adv-x="587" unicode="Ŀ" /><glyph d="M166 0Q128 0 102.5 10Q77 20 61 37.5Q45 55 38.5 78Q32 101 32 126V676Q32 686 39 693Q46 700 56 700H182Q192 700 198.5 693Q205 686 205 676V163Q205 155 210.5 149Q216 143 224 143H258Q266 143 273 138.5Q280 134 280 121V30Q280 10 268.5 5Q257 0 248 0ZM325 189Q304 189 286 197Q268 205 254.5 218.5Q241 232 233 250Q225 268 225 289Q225 310 233 328Q241 346 254.5 360Q268 374 286 382Q304 390 325 390Q346 390 364 382Q382 374 395.5 360Q409 346 417 328Q425 310 425 289Q425 268 417 250Q409 232 395.5 218.5Q382 205 364 197Q346 189 325 189Z" glyph-name="ldot" horiz-adv-x="413" unicode="ŀ" /><glyph d="M87 0Q76 0 69 7Q62 14 62 24V233L28 226Q15 223 7.5 229.5Q0 236 0 248V340Q0 363 19 367L62 376V675Q62 686 69 693Q76 700 87 700H217Q228 700 235 693Q242 686 242 675V416L385 447Q398 450 405.5 443.5Q413 437 413 425V333Q413 310 394 306L242 273V165H558Q569 165 576 158Q583 151 583 140V25Q583 14 576 7Q569 0 558 0Z" glyph-name="Lslash" horiz-adv-x="592" unicode="Ł" /><glyph d="M204 0Q166 0 140.5 10Q115 20 99 37.5Q83 55 76.5 78Q70 101 70 126V225L41 216Q29 212 21 216.5Q13 221 13 233V310Q13 321 17.5 325.5Q22 330 32 333L70 344V676Q70 686 77 693Q84 700 94 700H220Q230 700 236.5 693Q243 686 243 676V396L298 413Q310 417 318 412.5Q326 408 326 396V319Q326 308 321.5 303.5Q317 299 307 296L243 277V163Q243 155 248.5 149Q254 143 262 143H296Q304 143 311 138.5Q318 134 318 121V30Q318 10 306.5 5Q295 0 286 0Z" glyph-name="lslash" horiz-adv-x="334" unicode="ł" /><glyph d="M510 964Q530 964 536 951Q542 938 534 925L436 762Q430 752 423.5 748.5Q417 745 407 745H326Q287 745 295 782L330 944Q335 964 358 964ZM227 416 227 24Q227 13 220.5 6.5Q214 0 203 0H72Q61 0 54 6.5Q47 13 47 24V676Q47 686 54 693Q61 700 72 700H242Q253 700 261 696Q269 692 276 680L501 301V676Q501 686 508 693Q515 700 525 700H656Q666 700 673.5 693Q681 686 681 676V24Q681 13 673.5 6.5Q666 0 656 0H515Q478 0 463 25Z" glyph-name="Nacute" horiz-adv-x="728" unicode="Ń" /><glyph d="M446 759Q466 759 472 746Q478 733 470 720L372 557Q366 547 359.5 543.5Q353 540 343 540H262Q223 540 231 577L266 739Q271 759 294 759ZM399 248Q399 294 373.5 322Q348 350 304 350Q260 350 233.5 322Q207 294 207 248V21Q207 12 199.5 6Q192 0 183 0H57Q47 0 40.5 6.5Q34 13 34 23V472Q34 482 40.5 488.5Q47 495 57 495H183Q192 495 199.5 489Q207 483 207 474V456Q230 476 267 493Q304 510 359 510Q408 510 447.5 493.5Q487 477 514.5 448Q542 419 557 380.5Q572 342 572 297V21Q572 12 564.5 6Q557 0 548 0H423Q414 0 406.5 6Q399 12 399 21Z" glyph-name="nacute" horiz-adv-x="601" unicode="ń" /><glyph d="M227 416 227 24Q227 13 220.5 6.5Q214 0 203 0H72Q61 0 54 6.5Q47 13 47 24V676Q47 686 54 693Q61 700 72 700H242Q253 700 261 696Q269 692 276 680L501 301V676Q501 686 508 693Q515 700 525 700H656Q666 700 673.5 693Q681 686 681 676V24Q681 13 673.5 6.5Q666 0 656 0H515Q478 0 463 25ZM320 -209Q297 -198 283 -176Q269 -154 269 -128Q269 -88 296 -60.5Q323 -33 365 -33Q384 -33 402 -40Q420 -47 433.5 -60.5Q447 -74 455 -92.5Q463 -111 463 -134Q463 -166 452 -192.5Q441 -219 425 -240Q409 -261 390 -277Q371 -293 355 -304Q341 -315 326 -317.5Q311 -320 298 -311L284 -302Q272 -293 271 -283Q270 -273 278 -264Z" glyph-name="Ncommaaccent" horiz-adv-x="728" unicode="Ņ" /><glyph d="M399 248Q399 294 373.5 322Q348 350 304 350Q260 350 233.5 322Q207 294 207 248V21Q207 12 199.5 6Q192 0 183 0H57Q47 0 40.5 6.5Q34 13 34 23V472Q34 482 40.5 488.5Q47 495 57 495H183Q192 495 199.5 489Q207 483 207 474V456Q230 476 267 493Q304 510 359 510Q408 510 447.5 493.5Q487 477 514.5 448Q542 419 557 380.5Q572 342 572 297V21Q572 12 564.5 6Q557 0 548 0H423Q414 0 406.5 6Q399 12 399 21ZM239 -209Q216 -198 202 -176Q188 -154 188 -128Q188 -88 215 -60.5Q242 -33 284 -33Q303 -33 321 -40Q339 -47 352.5 -60.5Q366 -74 374 -92.5Q382 -111 382 -134Q382 -166 371 -192.5Q360 -219 344 -240Q328 -261 309 -277Q290 -293 274 -304Q260 -315 245 -317.5Q230 -320 217 -311L203 -302Q191 -293 190 -283Q189 -273 197 -264Z" glyph-name="ncommaaccent" horiz-adv-x="601" unicode="ņ" /><glyph d="M285 745Q266 745 252 769L159 927Q149 944 157.5 954Q166 964 176 964H279Q293 964 298.5 959.5Q304 955 312 945L364 874L416 945Q424 955 429.5 959.5Q435 964 449 964H552Q562 964 571 954Q580 944 569 927L476 769Q462 745 443 745ZM227 416 227 24Q227 13 220.5 6.5Q214 0 203 0H72Q61 0 54 6.5Q47 13 47 24V676Q47 686 54 693Q61 700 72 700H242Q253 700 261 696Q269 692 276 680L501 301V676Q501 686 508 693Q515 700 525 700H656Q666 700 673.5 693Q681 686 681 676V24Q681 13 673.5 6.5Q666 0 656 0H515Q478 0 463 25Z" glyph-name="Ncaron" horiz-adv-x="728" unicode="Ň" /><glyph d="M221 540Q202 540 188 564L95 722Q85 739 93.5 749Q102 759 112 759H215Q229 759 234.5 754.5Q240 750 248 740L300 669L352 740Q360 750 365.5 754.5Q371 759 385 759H488Q498 759 507 749Q516 739 505 722L412 564Q398 540 379 540ZM399 248Q399 294 373.5 322Q348 350 304 350Q260 350 233.5 322Q207 294 207 248V21Q207 12 199.5 6Q192 0 183 0H57Q47 0 40.5 6.5Q34 13 34 23V472Q34 482 40.5 488.5Q47 495 57 495H183Q192 495 199.5 489Q207 483 207 474V456Q230 476 267 493Q304 510 359 510Q408 510 447.5 493.5Q487 477 514.5 448Q542 419 557 380.5Q572 342 572 297V21Q572 12 564.5 6Q557 0 548 0H423Q414 0 406.5 6Q399 12 399 21Z" glyph-name="ncaron" horiz-adv-x="601" unicode="ň" /><glyph d="M70 684Q47 696 33 718Q19 740 19 766Q19 805 46 833Q73 861 115 861Q134 861 152 854Q170 847 183.5 833.5Q197 820 205 801Q213 782 213 759Q213 728 202 701.5Q191 675 175 654Q159 633 140 616.5Q121 600 104 589Q90 579 75.5 576Q61 573 47 583L34 592Q22 601 21 611Q20 621 27 629ZM399 248Q399 294 373.5 322Q348 350 304 350Q260 350 233.5 322Q207 294 207 248V21Q207 12 199.5 6Q192 0 183 0H57Q47 0 40.5 6.5Q34 13 34 23V472Q34 482 40.5 488.5Q47 495 57 495H183Q192 495 199.5 489Q207 483 207 474V456Q230 476 267 493Q304 510 359 510Q408 510 447.5 493.5Q487 477 514.5 448Q542 419 557 380.5Q572 342 572 297V21Q572 12 564.5 6Q557 0 548 0H423Q414 0 406.5 6Q399 12 399 21Z" glyph-name="napostrophe" horiz-adv-x="601" unicode="ŉ" /><glyph d="M486 -257Q467 -257 445.5 -254Q424 -251 403.5 -244Q383 -237 364.5 -227Q346 -217 333 -202Q325 -194 324 -182.5Q323 -171 331 -160L383 -87Q394 -73 407 -74.5Q420 -76 430 -81Q453 -94 469 -94Q472 -94 478.5 -93Q485 -92 491.5 -87.5Q498 -83 503 -74Q508 -65 508 -48V0Q478 1 463 25L227 416V24Q227 13 220.5 6.5Q214 0 203 0H72Q61 0 54 6.5Q47 13 47 24V676Q47 686 54 693Q61 700 72 700H242Q253 700 261 696Q269 692 276 680L501 301V676Q501 686 508 693Q515 700 525 700H656Q666 700 673.5 693Q681 686 681 676V-56Q681 -111 664 -149Q647 -187 619 -211Q591 -235 556.5 -246Q522 -257 486 -257Z" glyph-name="Eng" horiz-adv-x="728" unicode="Ŋ" /><glyph d="M377 -237Q358 -237 336.5 -234Q315 -231 294.5 -224Q274 -217 255.5 -207Q237 -197 224 -182Q216 -174 215 -162.5Q214 -151 222 -140L274 -67Q285 -53 298 -54.5Q311 -56 321 -61Q344 -74 360 -74Q363 -74 369.5 -73Q376 -72 382.5 -67.5Q389 -63 394 -54Q399 -45 399 -28V248Q399 294 373.5 322Q348 350 304 350Q260 350 233.5 322Q207 294 207 248V21Q207 12 199.5 6Q192 0 183 0H57Q47 0 40.5 6.5Q34 13 34 23V472Q34 482 40.5 488.5Q47 495 57 495H183Q192 495 199.5 489Q207 483 207 474V456Q230 478 265.5 494Q301 510 356 510Q415 510 456 490Q497 470 522.5 436Q548 402 560 357Q572 312 572 262V-36Q572 -91 555 -129Q538 -167 510 -191Q482 -215 447.5 -226Q413 -237 377 -237Z" glyph-name="eng" horiz-adv-x="601" unicode="ŋ" /><glyph d="M221 760Q210 760 203 767Q196 774 196 785V880Q196 891 203 898Q210 905 221 905H568Q579 905 586 898Q593 891 593 880V785Q593 774 586 767Q579 760 568 760ZM773 350Q773 274 744 207.5Q715 141 664 91.5Q613 42 544 13.5Q475 -15 395 -15Q316 -15 247 13.5Q178 42 127 91.5Q76 141 46.5 207.5Q17 274 17 350Q17 426 46.5 492.5Q76 559 127 608.5Q178 658 247 686.5Q316 715 395 715Q475 715 544 686.5Q613 658 664 608.5Q715 559 744 492.5Q773 426 773 350ZM585 350Q585 391 571 427Q557 463 531.5 490Q506 517 471.5 532.5Q437 548 395 548Q353 548 318.5 532.5Q284 517 258.5 490Q233 463 219 427Q205 391 205 350Q205 309 219 273Q233 237 258.5 210Q284 183 318.5 167.5Q353 152 395 152Q437 152 471.5 167.5Q506 183 531.5 210Q557 237 571 273Q585 309 585 350Z" glyph-name="Omacron" horiz-adv-x="790" unicode="Ō" /><glyph d="M116 555Q105 555 98 562Q91 569 91 580V675Q91 686 98 693Q105 700 116 700H463Q474 700 481 693Q488 686 488 675V580Q488 569 481 562Q474 555 463 555ZM15 246Q15 301 36.5 349Q58 397 95 433Q132 469 182 489.5Q232 510 289 510Q346 510 396 489.5Q446 469 483 433Q520 397 541.5 349Q563 301 563 246Q563 192 541.5 144Q520 96 483 61Q446 26 396 5.5Q346 -15 289 -15Q232 -15 182 5.5Q132 26 95 61Q58 96 36.5 144Q15 192 15 246ZM189 247Q189 205 218 175.5Q247 146 289 146Q331 146 360 175.5Q389 205 389 247Q389 268 381.5 286.5Q374 305 360.5 319Q347 333 328.5 341Q310 349 289 349Q268 349 250 341Q232 333 218.5 319Q205 305 197 286.5Q189 268 189 247Z" glyph-name="omacron" horiz-adv-x="578" unicode="ō" /><glyph d="M394 740Q294 740 244 789.5Q194 839 194 920V945Q194 954 200 960.5Q206 967 214 967H318Q326 967 332 960.5Q338 954 338 945V932Q338 906 354 891.5Q370 877 394 877Q418 877 434 891.5Q450 906 450 932V945Q450 954 456 960.5Q462 967 470 967H574Q582 967 588 960.5Q594 954 594 945V920Q594 839 544 789.5Q494 740 394 740ZM773 350Q773 274 744 207.5Q715 141 664 91.5Q613 42 544 13.5Q475 -15 395 -15Q316 -15 247 13.5Q178 42 127 91.5Q76 141 46.5 207.5Q17 274 17 350Q17 426 46.5 492.5Q76 559 127 608.5Q178 658 247 686.5Q316 715 395 715Q475 715 544 686.5Q613 658 664 608.5Q715 559 744 492.5Q773 426 773 350ZM585 350Q585 391 571 427Q557 463 531.5 490Q506 517 471.5 532.5Q437 548 395 548Q353 548 318.5 532.5Q284 517 258.5 490Q233 463 219 427Q205 391 205 350Q205 309 219 273Q233 237 258.5 210Q284 183 318.5 167.5Q353 152 395 152Q437 152 471.5 167.5Q506 183 531.5 210Q557 237 571 273Q585 309 585 350Z" glyph-name="Obreve" horiz-adv-x="790" unicode="Ŏ" /><glyph d="M289 535Q189 535 139 584.5Q89 634 89 715V740Q89 749 95 755.5Q101 762 109 762H213Q221 762 227 755.5Q233 749 233 740V727Q233 701 249 686.5Q265 672 289 672Q313 672 329 686.5Q345 701 345 727V740Q345 749 351 755.5Q357 762 365 762H469Q477 762 483 755.5Q489 749 489 740V715Q489 634 439 584.5Q389 535 289 535ZM15 246Q15 301 36.5 349Q58 397 95 433Q132 469 182 489.5Q232 510 289 510Q346 510 396 489.5Q446 469 483 433Q520 397 541.5 349Q563 301 563 246Q563 192 541.5 144Q520 96 483 61Q446 26 396 5.5Q346 -15 289 -15Q232 -15 182 5.5Q132 26 95 61Q58 96 36.5 144Q15 192 15 246ZM189 247Q189 205 218 175.5Q247 146 289 146Q331 146 360 175.5Q389 205 389 247Q389 268 381.5 286.5Q374 305 360.5 319Q347 333 328.5 341Q310 349 289 349Q268 349 250 341Q232 333 218.5 319Q205 305 197 286.5Q189 268 189 247Z" glyph-name="obreve" horiz-adv-x="578" unicode="ŏ" /><glyph d="M416 964Q436 964 442 951Q448 938 440 925L342 762Q336 752 329.5 748.5Q323 745 313 745H232Q193 745 201 782L236 944Q241 964 264 964ZM661 964Q681 964 687 951Q693 938 685 925L587 762Q581 752 574.5 748.5Q568 745 558 745H477Q438 745 446 782L481 944Q486 964 509 964ZM773 350Q773 274 744 207.5Q715 141 664 91.5Q613 42 544 13.5Q475 -15 395 -15Q316 -15 247 13.5Q178 42 127 91.5Q76 141 46.5 207.5Q17 274 17 350Q17 426 46.5 492.5Q76 559 127 608.5Q178 658 247 686.5Q316 715 395 715Q475 715 544 686.5Q613 658 664 608.5Q715 559 744 492.5Q773 426 773 350ZM585 350Q585 391 571 427Q557 463 531.5 490Q506 517 471.5 532.5Q437 548 395 548Q353 548 318.5 532.5Q284 517 258.5 490Q233 463 219 427Q205 391 205 350Q205 309 219 273Q233 237 258.5 210Q284 183 318.5 167.5Q353 152 395 152Q437 152 471.5 167.5Q506 183 531.5 210Q557 237 571 273Q585 309 585 350Z" glyph-name="Ohungarumlaut" horiz-adv-x="790" unicode="Ő" /><glyph d="M311 759Q331 759 337 746Q343 733 335 720L237 557Q231 547 224.5 543.5Q218 540 208 540H127Q88 540 96 577L131 739Q136 759 159 759ZM556 759Q576 759 582 746Q588 733 580 720L482 557Q476 547 469.5 543.5Q463 540 453 540H372Q333 540 341 577L376 739Q381 759 404 759ZM15 246Q15 301 36.5 349Q58 397 95 433Q132 469 182 489.5Q232 510 289 510Q346 510 396 489.5Q446 469 483 433Q520 397 541.5 349Q563 301 563 246Q563 192 541.5 144Q520 96 483 61Q446 26 396 5.5Q346 -15 289 -15Q232 -15 182 5.5Q132 26 95 61Q58 96 36.5 144Q15 192 15 246ZM189 247Q189 205 218 175.5Q247 146 289 146Q331 146 360 175.5Q389 205 389 247Q389 268 381.5 286.5Q374 305 360.5 319Q347 333 328.5 341Q310 349 289 349Q268 349 250 341Q232 333 218.5 319Q205 305 197 286.5Q189 268 189 247Z" glyph-name="ohungarumlaut" horiz-adv-x="578" unicode="ő" /><glyph d="M585 350Q585 391 571 427.5Q557 464 532.5 491Q508 518 473.5 534Q439 550 397 550Q355 550 320 534Q285 518 259.5 491Q234 464 220 427.5Q206 391 206 350Q206 309 220 272.5Q234 236 259.5 209Q285 182 320 166Q355 150 397 150Q439 150 473.5 166Q508 182 532.5 209Q557 236 571 272.5Q585 309 585 350ZM577 56Q549 21 496.5 3Q444 -15 384 -15Q306 -15 239 13.5Q172 42 123 91.5Q74 141 46 207.5Q18 274 18 350Q18 426 45.5 492.5Q73 559 121.5 608.5Q170 658 236 686.5Q302 715 379 715Q442 715 495 696Q548 677 577 644V676Q577 686 584 693Q591 700 602 700H1128Q1139 700 1146 693Q1153 686 1153 675V560Q1153 549 1146 542Q1139 535 1128 535H757V430H947Q958 430 965 423Q972 416 972 405V295Q972 284 965 277Q958 270 947 270H757V165H1128Q1139 165 1146 158Q1153 151 1153 140V25Q1153 14 1146 7Q1139 0 1128 0H602Q591 0 584 7Q577 14 577 25Z" glyph-name="OE" horiz-adv-x="1177" unicode="Œ" /><glyph d="M656 -15Q600 -15 554 2.5Q508 20 473 52Q436 20 389.5 2.5Q343 -15 289 -15Q232 -15 182 5.5Q132 26 95 61Q58 96 36.5 144Q15 192 15 246Q15 301 36.5 349Q58 397 95 433Q132 469 182 489.5Q232 510 289 510Q343 510 390 491.5Q437 473 474 441Q509 473 555 491.5Q601 510 656 510Q717 510 764.5 488.5Q812 467 844.5 432Q877 397 894 352.5Q911 308 911 263V232Q911 221 905.5 213.5Q900 206 883 206H568Q573 170 600 150.5Q627 131 659 131Q689 131 709.5 141Q730 151 747 169Q752 174 758.5 177Q765 180 774 175L876 113Q886 107 885 97Q884 87 880 82Q851 41 795.5 13Q740 -15 656 -15ZM741 311Q730 345 705.5 359Q681 373 657 373Q631 373 607 357.5Q583 342 572 311ZM189 247Q189 205 218 175.5Q247 146 289 146Q331 146 360 175.5Q389 205 389 247Q389 268 381.5 286.5Q374 305 360.5 319Q347 333 328.5 341Q310 349 289 349Q268 349 250 341Q232 333 218.5 319Q205 305 197 286.5Q189 268 189 247Z" glyph-name="oe" horiz-adv-x="923" unicode="œ" /><glyph d="M488 964Q508 964 514 951Q520 938 512 925L414 762Q408 752 401.5 748.5Q395 745 385 745H304Q265 745 273 782L308 944Q313 964 336 964ZM371 391Q405 391 429.5 412.5Q454 434 454 469Q454 504 429.5 523.5Q405 543 373 543H227V391ZM503 0Q486 0 477 5.5Q468 11 459 26L323 247H227V25Q227 14 220 7Q213 0 202 0H72Q61 0 54 6.5Q47 13 47 24V676Q47 684 53 692Q59 700 72 700H397Q453 700 498.5 682.5Q544 665 576 635Q608 605 625.5 564.5Q643 524 643 479Q643 455 636.5 426Q630 397 614 368.5Q598 340 572.5 315.5Q547 291 508 277L664 35Q672 24 666.5 12Q661 0 645 0Z" glyph-name="Racute" horiz-adv-x="676" unicode="Ŕ" /><glyph d="M336 759Q356 759 362 746Q368 733 360 720L262 557Q256 547 249.5 543.5Q243 540 233 540H152Q113 540 121 577L156 739Q161 759 184 759ZM322 504Q330 504 339.5 499Q349 494 349 474V351Q349 331 337.5 325.5Q326 320 318 320H289Q245 320 226 299.5Q207 279 207 236V21Q207 12 199.5 6Q192 0 183 0H57Q47 0 40.5 6.5Q34 13 34 23V472Q34 482 40.5 488.5Q47 495 57 495H176Q185 495 192.5 489Q200 483 200 474V446Q223 478 251 491Q279 504 309 504Z" glyph-name="racute" horiz-adv-x="359" unicode="ŕ" /><glyph d="M371 391Q405 391 429.5 412.5Q454 434 454 469Q454 504 429.5 523.5Q405 543 373 543H227V391ZM503 0Q486 0 477 5.5Q468 11 459 26L323 247H227V25Q227 14 220 7Q213 0 202 0H72Q61 0 54 6.5Q47 13 47 24V676Q47 684 53 692Q59 700 72 700H397Q453 700 498.5 682.5Q544 665 576 635Q608 605 625.5 564.5Q643 524 643 479Q643 455 636.5 426Q630 397 614 368.5Q598 340 572.5 315.5Q547 291 508 277L664 35Q672 24 666.5 12Q661 0 645 0ZM298 -209Q275 -198 261 -176Q247 -154 247 -128Q247 -88 274 -60.5Q301 -33 343 -33Q362 -33 380 -40Q398 -47 411.5 -60.5Q425 -74 433 -92.5Q441 -111 441 -134Q441 -166 430 -192.5Q419 -219 403 -240Q387 -261 368 -277Q349 -293 333 -304Q319 -315 304 -317.5Q289 -320 276 -311L262 -302Q250 -293 249 -283Q248 -273 256 -264Z" glyph-name="Rcommaaccent" horiz-adv-x="676" unicode="Ŗ" /><glyph d="M322 504Q330 504 339.5 499Q349 494 349 474V351Q349 331 337.5 325.5Q326 320 318 320H289Q245 320 226 299.5Q207 279 207 236V21Q207 12 199.5 6Q192 0 183 0H57Q47 0 40.5 6.5Q34 13 34 23V472Q34 482 40.5 488.5Q47 495 57 495H176Q185 495 192.5 489Q200 483 200 474V446Q223 478 251 491Q279 504 309 504ZM76 -209Q53 -198 39 -176Q25 -154 25 -128Q25 -88 52 -60.5Q79 -33 121 -33Q140 -33 158 -40Q176 -47 189.5 -60.5Q203 -74 211 -92.5Q219 -111 219 -134Q219 -166 208 -192.5Q197 -219 181 -240Q165 -261 146 -277Q127 -293 111 -304Q97 -315 82 -317.5Q67 -320 54 -311L40 -302Q28 -293 27 -283Q26 -273 34 -264Z" glyph-name="rcommaaccent" horiz-adv-x="359" unicode="ŗ" /><glyph d="M263 745Q244 745 230 769L137 927Q127 944 135.5 954Q144 964 154 964H257Q271 964 276.5 959.5Q282 955 290 945L342 874L394 945Q402 955 407.5 959.5Q413 964 427 964H530Q540 964 549 954Q558 944 547 927L454 769Q440 745 421 745ZM371 391Q405 391 429.5 412.5Q454 434 454 469Q454 504 429.5 523.5Q405 543 373 543H227V391ZM503 0Q486 0 477 5.5Q468 11 459 26L323 247H227V25Q227 14 220 7Q213 0 202 0H72Q61 0 54 6.5Q47 13 47 24V676Q47 684 53 692Q59 700 72 700H397Q453 700 498.5 682.5Q544 665 576 635Q608 605 625.5 564.5Q643 524 643 479Q643 455 636.5 426Q630 397 614 368.5Q598 340 572.5 315.5Q547 291 508 277L664 35Q672 24 666.5 12Q661 0 645 0Z" glyph-name="Rcaron" horiz-adv-x="676" unicode="Ř" /><glyph d="M111 540Q92 540 78 564L-15 722Q-25 739 -16.5 749Q-8 759 2 759H105Q119 759 124.5 754.5Q130 750 138 740L190 669L242 740Q250 750 255.5 754.5Q261 759 275 759H378Q388 759 397 749Q406 739 395 722L302 564Q288 540 269 540ZM322 504Q330 504 339.5 499Q349 494 349 474V351Q349 331 337.5 325.5Q326 320 318 320H289Q245 320 226 299.5Q207 279 207 236V21Q207 12 199.5 6Q192 0 183 0H57Q47 0 40.5 6.5Q34 13 34 23V472Q34 482 40.5 488.5Q47 495 57 495H176Q185 495 192.5 489Q200 483 200 474V446Q223 478 251 491Q279 504 309 504Z" glyph-name="rcaron" horiz-adv-x="359" unicode="ř" /><glyph d="M460 964Q480 964 486 951Q492 938 484 925L386 762Q380 752 373.5 748.5Q367 745 357 745H276Q237 745 245 782L280 944Q285 964 308 964ZM310 715Q355 715 393.5 707.5Q432 700 463 688.5Q494 677 517 663Q540 649 555 636Q568 625 572.5 615Q577 605 577 596.5Q577 588 573.5 581.5Q570 575 565 570L501 505Q488 492 472 492Q456 492 439 504Q410 525 377.5 540Q345 555 309 555Q274 555 249.5 541.5Q225 528 225 505Q225 488 237.5 475.5Q250 463 279 456L407 427Q449 418 485.5 401.5Q522 385 549 359.5Q576 334 591.5 298.5Q607 263 607 216Q607 174 589 132.5Q571 91 535 58.5Q499 26 444.5 5.5Q390 -15 316 -15Q215 -15 145 14Q75 43 37 81Q20 98 16.5 118.5Q13 139 33 155L111 217Q128 231 143 226Q158 221 170 208Q196 182 234 164Q272 146 320 146Q365 146 387 163Q409 180 409 200Q409 227 386.5 240.5Q364 254 319 264L209 288Q171 296 138 313.5Q105 331 81 356.5Q57 382 43.5 415.5Q30 449 30 490Q30 539 51 580Q72 621 109 651Q146 681 197.5 698Q249 715 310 715Z" glyph-name="Sacute" horiz-adv-x="625" unicode="Ś" /><glyph d="M397 759Q417 759 423 746Q429 733 421 720L323 557Q317 547 310.5 543.5Q304 540 294 540H213Q174 540 182 577L217 739Q222 759 245 759ZM243 510Q283 510 316.5 504Q350 498 376.5 488.5Q403 479 421.5 468Q440 457 451 447Q478 424 453 396L407 346Q396 334 383 333.5Q370 333 353 343Q332 355 304 366.5Q276 378 247 378Q228 378 215.5 372Q203 366 203 356Q203 345 213 338.5Q223 332 250 327L323 312Q353 306 381 295.5Q409 285 431 267Q453 249 466.5 222.5Q480 196 480 159Q480 123 464.5 91.5Q449 60 420 36Q391 12 348 -1.5Q305 -15 251 -15Q191 -15 144 -1Q97 13 65 33Q23 59 17 83Q11 107 32 123L89 165Q108 179 121 175.5Q134 172 145 162Q167 144 194.5 130.5Q222 117 255 117Q278 117 290.5 125Q303 133 303 143Q303 157 288.5 164Q274 171 245 177L161 195Q99 209 62 245Q25 281 25 343Q25 377 39.5 407.5Q54 438 82 460.5Q110 483 150.5 496.5Q191 510 243 510Z" glyph-name="sacute" horiz-adv-x="497" unicode="ś" /><glyph d="M393 964Q412 964 426 940L519 782Q530 765 521 755Q512 745 502 745H399Q385 745 379.5 749.5Q374 754 366 764L314 835L262 764Q254 754 248.5 749.5Q243 745 229 745H126Q116 745 107.5 755Q99 765 109 782L202 940Q216 964 235 964ZM310 715Q355 715 393.5 707.5Q432 700 463 688.5Q494 677 517 663Q540 649 555 636Q568 625 572.5 615Q577 605 577 596.5Q577 588 573.5 581.5Q570 575 565 570L501 505Q488 492 472 492Q456 492 439 504Q410 525 377.5 540Q345 555 309 555Q274 555 249.5 541.5Q225 528 225 505Q225 488 237.5 475.5Q250 463 279 456L407 427Q449 418 485.5 401.5Q522 385 549 359.5Q576 334 591.5 298.5Q607 263 607 216Q607 174 589 132.5Q571 91 535 58.5Q499 26 444.5 5.5Q390 -15 316 -15Q215 -15 145 14Q75 43 37 81Q20 98 16.5 118.5Q13 139 33 155L111 217Q128 231 143 226Q158 221 170 208Q196 182 234 164Q272 146 320 146Q365 146 387 163Q409 180 409 200Q409 227 386.5 240.5Q364 254 319 264L209 288Q171 296 138 313.5Q105 331 81 356.5Q57 382 43.5 415.5Q30 449 30 490Q30 539 51 580Q72 621 109 651Q146 681 197.5 698Q249 715 310 715Z" glyph-name="Scircumflex" horiz-adv-x="625" unicode="Ŝ" /><glyph d="M330 759Q349 759 363 735L456 577Q467 560 458 550Q449 540 439 540H336Q322 540 316.5 544.5Q311 549 303 559L251 630L199 559Q191 549 185.5 544.5Q180 540 166 540H63Q53 540 44.5 550Q36 560 46 577L139 735Q153 759 172 759ZM243 510Q283 510 316.5 504Q350 498 376.5 488.5Q403 479 421.5 468Q440 457 451 447Q478 424 453 396L407 346Q396 334 383 333.5Q370 333 353 343Q332 355 304 366.5Q276 378 247 378Q228 378 215.5 372Q203 366 203 356Q203 345 213 338.5Q223 332 250 327L323 312Q353 306 381 295.5Q409 285 431 267Q453 249 466.5 222.5Q480 196 480 159Q480 123 464.5 91.5Q449 60 420 36Q391 12 348 -1.5Q305 -15 251 -15Q191 -15 144 -1Q97 13 65 33Q23 59 17 83Q11 107 32 123L89 165Q108 179 121 175.5Q134 172 145 162Q167 144 194.5 130.5Q222 117 255 117Q278 117 290.5 125Q303 133 303 143Q303 157 288.5 164Q274 171 245 177L161 195Q99 209 62 245Q25 281 25 343Q25 377 39.5 407.5Q54 438 82 460.5Q110 483 150.5 496.5Q191 510 243 510Z" glyph-name="scircumflex" horiz-adv-x="497" unicode="ŝ" /><glyph d="M198 -169Q184 -169 177 -160Q170 -151 175 -136L216 -6Q154 6 109.5 30Q65 54 37 81Q20 98 16.5 118.5Q13 139 33 155L111 217Q128 231 143 226Q158 221 170 208Q196 182 234 164Q272 146 320 146Q365 146 387 163Q409 180 409 200Q409 227 386.5 240.5Q364 254 319 264L209 288Q171 296 138 313.5Q105 331 81 356.5Q57 382 43.5 415.5Q30 449 30 490Q30 539 51 580Q72 621 109 651Q146 681 197.5 698Q249 715 310 715Q355 715 393.5 707.5Q432 700 463 688.5Q494 677 517 663Q540 649 555 636Q568 625 572.5 615Q577 605 577 596.5Q577 588 573.5 581.5Q570 575 565 570L501 505Q488 492 472 492Q456 492 439 504Q410 525 377.5 540Q345 555 309 555Q274 555 249.5 541.5Q225 528 225 505Q225 488 237.5 475.5Q250 463 279 456L407 427Q449 418 485.5 401.5Q522 385 549 359.5Q576 334 591.5 298.5Q607 263 607 216Q607 180 594.5 145Q582 110 556 80Q530 50 491.5 27Q453 4 400 -7L325 -154Q320 -165 311.5 -167Q303 -169 293 -169Z" glyph-name="Scedilla" horiz-adv-x="625" unicode="Ş" /><glyph d="M150 -169Q136 -169 129 -160Q122 -151 127 -136L168 -6Q136 0 110.5 10.5Q85 21 65 33Q23 59 17 83Q11 107 32 123L89 165Q108 179 121 175.5Q134 172 145 162Q167 144 194.5 130.5Q222 117 255 117Q278 117 290.5 125Q303 133 303 143Q303 157 288.5 164Q274 171 245 177L161 195Q99 209 62 245Q25 281 25 343Q25 377 39.5 407.5Q54 438 82 460.5Q110 483 150.5 496.5Q191 510 243 510Q283 510 316.5 504Q350 498 376.5 488.5Q403 479 421.5 468Q440 457 451 447Q478 424 453 396L407 346Q396 334 383 333.5Q370 333 353 343Q332 355 304 366.5Q276 378 247 378Q228 378 215.5 372Q203 366 203 356Q203 345 213 338.5Q223 332 250 327L323 312Q353 306 381 295.5Q409 285 431 267Q453 249 466.5 222.5Q480 196 480 159Q480 107 448.5 65Q417 23 357 2L277 -154Q272 -165 263.5 -167Q255 -169 245 -169Z" glyph-name="scedilla" horiz-adv-x="497" unicode="ş" /><glyph d="M235 745Q216 745 202 769L109 927Q99 944 107.5 954Q116 964 126 964H229Q243 964 248.5 959.5Q254 955 262 945L314 874L366 945Q374 955 379.5 959.5Q385 964 399 964H502Q512 964 521 954Q530 944 519 927L426 769Q412 745 393 745ZM310 715Q355 715 393.5 707.5Q432 700 463 688.5Q494 677 517 663Q540 649 555 636Q568 625 572.5 615Q577 605 577 596.5Q577 588 573.5 581.5Q570 575 565 570L501 505Q488 492 472 492Q456 492 439 504Q410 525 377.5 540Q345 555 309 555Q274 555 249.5 541.5Q225 528 225 505Q225 488 237.5 475.5Q250 463 279 456L407 427Q449 418 485.5 401.5Q522 385 549 359.5Q576 334 591.5 298.5Q607 263 607 216Q607 174 589 132.5Q571 91 535 58.5Q499 26 444.5 5.5Q390 -15 316 -15Q215 -15 145 14Q75 43 37 81Q20 98 16.5 118.5Q13 139 33 155L111 217Q128 231 143 226Q158 221 170 208Q196 182 234 164Q272 146 320 146Q365 146 387 163Q409 180 409 200Q409 227 386.5 240.5Q364 254 319 264L209 288Q171 296 138 313.5Q105 331 81 356.5Q57 382 43.5 415.5Q30 449 30 490Q30 539 51 580Q72 621 109 651Q146 681 197.5 698Q249 715 310 715Z" glyph-name="Scaron" horiz-adv-x="625" unicode="Š" /><glyph d="M172 540Q153 540 139 564L46 722Q36 739 44.5 749Q53 759 63 759H166Q180 759 185.5 754.5Q191 750 199 740L251 669L303 740Q311 750 316.5 754.5Q322 759 336 759H439Q449 759 458 749Q467 739 456 722L363 564Q349 540 330 540ZM243 510Q283 510 316.5 504Q350 498 376.5 488.5Q403 479 421.5 468Q440 457 451 447Q478 424 453 396L407 346Q396 334 383 333.5Q370 333 353 343Q332 355 304 366.5Q276 378 247 378Q228 378 215.5 372Q203 366 203 356Q203 345 213 338.5Q223 332 250 327L323 312Q353 306 381 295.5Q409 285 431 267Q453 249 466.5 222.5Q480 196 480 159Q480 123 464.5 91.5Q449 60 420 36Q391 12 348 -1.5Q305 -15 251 -15Q191 -15 144 -1Q97 13 65 33Q23 59 17 83Q11 107 32 123L89 165Q108 179 121 175.5Q134 172 145 162Q167 144 194.5 130.5Q222 117 255 117Q278 117 290.5 125Q303 133 303 143Q303 157 288.5 164Q274 171 245 177L161 195Q99 209 62 245Q25 281 25 343Q25 377 39.5 407.5Q54 438 82 460.5Q110 483 150.5 496.5Q191 510 243 510Z" glyph-name="scaron" horiz-adv-x="497" unicode="š" /><glyph d="M11 675Q11 686 18 693Q25 700 36 700H588Q599 700 606 693Q613 686 613 675V560Q613 549 606 542Q599 535 588 535H405V25Q405 14 398 7Q391 0 380 0H244Q233 0 226 7Q219 14 219 25V535H36Q25 535 18 542Q11 549 11 560ZM264 -209Q241 -198 227 -176Q213 -154 213 -128Q213 -88 240 -60.5Q267 -33 309 -33Q328 -33 346 -40Q364 -47 377.5 -60.5Q391 -74 399 -92.5Q407 -111 407 -134Q407 -166 396 -192.5Q385 -219 369 -240Q353 -261 334 -277Q315 -293 299 -304Q285 -315 270 -317.5Q255 -320 242 -311L228 -302Q216 -293 215 -283Q214 -273 222 -264Z" glyph-name="Tcommaaccent" horiz-adv-x="624" unicode="Ţ" /><glyph d="M87 352 26 352Q16 352 9.5 359Q3 366 3 376V472Q3 482 9.5 488.5Q16 495 26 495H87V617Q87 627 94 633.5Q101 640 111 640H237Q247 640 253.5 633.5Q260 627 260 617V495H394Q404 495 411 488.5Q418 482 418 472V376Q418 366 411 359Q404 352 394 352H260V194Q260 177 265 168Q270 159 276.5 154.5Q283 150 289.5 149Q296 148 299 148Q306 148 316.5 151Q327 154 339 162Q352 170 364 169.5Q376 169 384 157L427 88Q442 65 424 47Q398 18 355.5 2.5Q313 -13 266 -13Q232 -13 200 -4Q168 5 143 25Q118 45 102.5 76Q87 107 87 151ZM159 -209Q136 -198 122 -176Q108 -154 108 -128Q108 -88 135 -60.5Q162 -33 204 -33Q223 -33 241 -40Q259 -47 272.5 -60.5Q286 -74 294 -92.5Q302 -111 302 -134Q302 -166 291 -192.5Q280 -219 264 -240Q248 -261 229 -277Q210 -293 194 -304Q180 -315 165 -317.5Q150 -320 137 -311L123 -302Q111 -293 110 -283Q109 -273 117 -264Z" glyph-name="tcommaaccent" horiz-adv-x="432" unicode="ţ" /><glyph d="M233 745Q214 745 200 769L107 927Q97 944 105.5 954Q114 964 124 964H227Q241 964 246.5 959.5Q252 955 260 945L312 874L364 945Q372 955 377.5 959.5Q383 964 397 964H500Q510 964 519 954Q528 944 517 927L424 769Q410 745 391 745ZM11 675Q11 686 18 693Q25 700 36 700H588Q599 700 606 693Q613 686 613 675V560Q613 549 606 542Q599 535 588 535H405V25Q405 14 398 7Q391 0 380 0H244Q233 0 226 7Q219 14 219 25V535H36Q25 535 18 542Q11 549 11 560Z" glyph-name="Tcaron" horiz-adv-x="624" unicode="Ť" /><glyph d="M338 687Q315 699 301 721Q287 743 287 769Q287 808 314 836Q341 864 383 864Q402 864 420 857Q438 850 451.5 836.5Q465 823 473 804Q481 785 481 762Q481 731 470 704.5Q459 678 443 657Q427 636 408 619.5Q389 603 372 592Q358 582 343.5 579Q329 576 315 586L302 595Q290 604 289 614Q288 624 295 632ZM87 352 26 352Q16 352 9.5 359Q3 366 3 376V472Q3 482 9.5 488.5Q16 495 26 495H87V617Q87 627 94 633.5Q101 640 111 640H237Q247 640 253.5 633.5Q260 627 260 617V495H394Q404 495 411 488.5Q418 482 418 472V376Q418 366 411 359Q404 352 394 352H260V194Q260 177 265 168Q270 159 276.5 154.5Q283 150 289.5 149Q296 148 299 148Q306 148 316.5 151Q327 154 339 162Q352 170 364 169.5Q376 169 384 157L427 88Q442 65 424 47Q398 18 355.5 2.5Q313 -13 266 -13Q232 -13 200 -4Q168 5 143 25Q118 45 102.5 76Q87 107 87 151Z" glyph-name="tcaron" horiz-adv-x="432" unicode="ť" /><glyph d="M409 25Q409 14 402 7Q395 0 384 0H248Q237 0 230 7Q223 14 223 25V250H133Q122 250 115 257Q108 264 108 275V360Q108 371 115 378Q122 385 133 385H223V535H40Q29 535 22 542Q15 549 15 560V675Q15 686 22 693Q29 700 40 700H592Q603 700 610 693Q617 686 617 675V560Q617 549 610 542Q603 535 592 535H409V385H500Q511 385 518 378Q525 371 525 360V275Q525 264 518 257Q511 250 500 250H409Z" glyph-name="Tbar" horiz-adv-x="632" unicode="Ŧ" /><glyph d="M427 47Q401 18 358.5 2.5Q316 -13 269 -13Q235 -13 203 -4Q171 5 146 25Q121 45 105.5 76Q90 107 90 151V214H31Q20 214 13 221Q6 228 6 239V287Q6 298 13 305Q20 312 31 312H90V352H29Q19 352 12.5 359Q6 366 6 376V472Q6 482 12.5 488.5Q19 495 29 495H90V617Q90 627 97 633.5Q104 640 114 640H240Q250 640 256.5 633.5Q263 627 263 617V495H397Q407 495 414 488.5Q421 482 421 472V376Q421 366 414 359Q407 352 397 352H263V312H396Q407 312 414 305Q421 298 421 287V239Q421 228 414 221Q407 214 396 214H263V194Q263 177 268 168Q273 159 279.5 154.5Q286 150 292.5 149Q299 148 302 148Q309 148 319.5 151Q330 154 342 162Q355 170 367 169.5Q379 169 387 157L430 88Q445 65 427 47Z" glyph-name="tbar" horiz-adv-x="438" unicode="ŧ" /><glyph d="M442 756Q421 756 396.5 761Q372 766 348.5 771.5Q325 777 305 782Q285 787 274 787Q257 787 246.5 781.5Q236 776 228 770Q220 764 213.5 758.5Q207 753 197 753Q189 753 183.5 757.5Q178 762 172 770L133 829Q122 846 122 862Q122 871 133 885.5Q144 900 162 913.5Q180 927 202.5 936.5Q225 946 248 946Q267 946 291 941Q315 936 338.5 930.5Q362 925 383 920Q404 915 416 915Q433 915 444 920.5Q455 926 463.5 932Q472 938 479 943.5Q486 949 496 949Q509 949 521 932L555 873Q560 863 563 855Q566 847 566 839Q566 830 555.5 816Q545 802 527.5 788.5Q510 775 488 765.5Q466 756 442 756ZM647 257Q647 183 620.5 131.5Q594 80 551 47.5Q508 15 454 0Q400 -15 344 -15Q289 -15 234.5 0Q180 15 137 47.5Q94 80 67.5 131.5Q41 183 41 257V676Q41 686 48 693Q55 700 66 700H196Q207 700 214 693Q221 686 221 676V272Q221 217 253 183.5Q285 150 344 150Q403 150 435 183.5Q467 217 467 272V676Q467 686 474 693Q481 700 492 700H622Q633 700 640 693Q647 686 647 676Z" glyph-name="Utilde" horiz-adv-x="688" unicode="Ũ" /><glyph d="M374 551Q353 551 328.5 556Q304 561 280.5 566.5Q257 572 237 577Q217 582 206 582Q189 582 178.5 576.5Q168 571 160 565Q152 559 145.5 553.5Q139 548 129 548Q121 548 115.5 552.5Q110 557 104 565L65 624Q54 641 54 657Q54 666 65 680.5Q76 695 94 708.5Q112 722 134.5 731.5Q157 741 180 741Q199 741 223 736Q247 731 270.5 725.5Q294 720 315 715Q336 710 348 710Q365 710 376 715.5Q387 721 395.5 727Q404 733 411 738.5Q418 744 428 744Q441 744 453 727L487 668Q492 658 495 650Q498 642 498 634Q498 625 487.5 611Q477 597 459.5 583.5Q442 570 420 560.5Q398 551 374 551ZM202 222Q202 183 220.5 157Q239 131 283 131Q324 131 344 156Q364 181 364 219V474Q364 483 371.5 489Q379 495 388 495H514Q524 495 530.5 488.5Q537 482 537 472V23Q537 13 530.5 6.5Q524 0 514 0H388Q379 0 371.5 6Q364 12 364 21V39Q341 17 311.5 1Q282 -15 228 -15Q182 -15 145 0Q108 15 82.5 42.5Q57 70 43 108.5Q29 147 29 193V474Q29 483 36.5 489Q44 495 53 495H178Q187 495 194.5 489Q202 483 202 474Z" glyph-name="utilde" horiz-adv-x="571" unicode="ũ" /><glyph d="M171 760Q160 760 153 767Q146 774 146 785V880Q146 891 153 898Q160 905 171 905H518Q529 905 536 898Q543 891 543 880V785Q543 774 536 767Q529 760 518 760ZM647 257Q647 183 620.5 131.5Q594 80 551 47.5Q508 15 454 0Q400 -15 344 -15Q289 -15 234.5 0Q180 15 137 47.5Q94 80 67.5 131.5Q41 183 41 257V676Q41 686 48 693Q55 700 66 700H196Q207 700 214 693Q221 686 221 676V272Q221 217 253 183.5Q285 150 344 150Q403 150 435 183.5Q467 217 467 272V676Q467 686 474 693Q481 700 492 700H622Q633 700 640 693Q647 686 647 676Z" glyph-name="Umacron" horiz-adv-x="688" unicode="Ū" /><glyph d="M103 555Q92 555 85 562Q78 569 78 580V675Q78 686 85 693Q92 700 103 700H450Q461 700 468 693Q475 686 475 675V580Q475 569 468 562Q461 555 450 555ZM202 222Q202 183 220.5 157Q239 131 283 131Q324 131 344 156Q364 181 364 219V474Q364 483 371.5 489Q379 495 388 495H514Q524 495 530.5 488.5Q537 482 537 472V23Q537 13 530.5 6.5Q524 0 514 0H388Q379 0 371.5 6Q364 12 364 21V39Q341 17 311.5 1Q282 -15 228 -15Q182 -15 145 0Q108 15 82.5 42.5Q57 70 43 108.5Q29 147 29 193V474Q29 483 36.5 489Q44 495 53 495H178Q187 495 194.5 489Q202 483 202 474Z" glyph-name="umacron" horiz-adv-x="571" unicode="ū" /><glyph d="M344 740Q244 740 194 789.5Q144 839 144 920V945Q144 954 150 960.5Q156 967 164 967H268Q276 967 282 960.5Q288 954 288 945V932Q288 906 304 891.5Q320 877 344 877Q368 877 384 891.5Q400 906 400 932V945Q400 954 406 960.5Q412 967 420 967H524Q532 967 538 960.5Q544 954 544 945V920Q544 839 494 789.5Q444 740 344 740ZM647 257Q647 183 620.5 131.5Q594 80 551 47.5Q508 15 454 0Q400 -15 344 -15Q289 -15 234.5 0Q180 15 137 47.5Q94 80 67.5 131.5Q41 183 41 257V676Q41 686 48 693Q55 700 66 700H196Q207 700 214 693Q221 686 221 676V272Q221 217 253 183.5Q285 150 344 150Q403 150 435 183.5Q467 217 467 272V676Q467 686 474 693Q481 700 492 700H622Q633 700 640 693Q647 686 647 676Z" glyph-name="Ubreve" horiz-adv-x="688" unicode="Ŭ" /><glyph d="M276 535Q176 535 126 584.5Q76 634 76 715V740Q76 749 82 755.5Q88 762 96 762H200Q208 762 214 755.5Q220 749 220 740V727Q220 701 236 686.5Q252 672 276 672Q300 672 316 686.5Q332 701 332 727V740Q332 749 338 755.5Q344 762 352 762H456Q464 762 470 755.5Q476 749 476 740V715Q476 634 426 584.5Q376 535 276 535ZM202 222Q202 183 220.5 157Q239 131 283 131Q324 131 344 156Q364 181 364 219V474Q364 483 371.5 489Q379 495 388 495H514Q524 495 530.5 488.5Q537 482 537 472V23Q537 13 530.5 6.5Q524 0 514 0H388Q379 0 371.5 6Q364 12 364 21V39Q341 17 311.5 1Q282 -15 228 -15Q182 -15 145 0Q108 15 82.5 42.5Q57 70 43 108.5Q29 147 29 193V474Q29 483 36.5 489Q44 495 53 495H178Q187 495 194.5 489Q202 483 202 474Z" glyph-name="ubreve" horiz-adv-x="571" unicode="ŭ" /><glyph d="M514 904Q514 870 501 840.5Q488 811 465.5 789.5Q443 768 411.5 755.5Q380 743 344 743Q307 743 276 755.5Q245 768 222.5 789.5Q200 811 187 840.5Q174 870 174 904Q174 938 187 967.5Q200 997 222.5 1018.5Q245 1040 276 1052.5Q307 1065 344 1065Q380 1065 411.5 1052.5Q443 1040 465.5 1018.5Q488 997 501 967.5Q514 938 514 904ZM404 904Q404 930 387.5 948.5Q371 967 344 967Q317 967 300 948.5Q283 930 283 904Q283 878 300 859.5Q317 841 344 841Q371 841 387.5 859.5Q404 878 404 904ZM647 257Q647 183 620.5 131.5Q594 80 551 47.5Q508 15 454 0Q400 -15 344 -15Q289 -15 234.5 0Q180 15 137 47.5Q94 80 67.5 131.5Q41 183 41 257V676Q41 686 48 693Q55 700 66 700H196Q207 700 214 693Q221 686 221 676V272Q221 217 253 183.5Q285 150 344 150Q403 150 435 183.5Q467 217 467 272V676Q467 686 474 693Q481 700 492 700H622Q633 700 640 693Q647 686 647 676Z" glyph-name="Uring" horiz-adv-x="688" unicode="Ů" /><glyph d="M446 699Q446 665 433 635.5Q420 606 397.5 584.5Q375 563 343.5 550.5Q312 538 276 538Q239 538 208 550.5Q177 563 154.5 584.5Q132 606 119 635.5Q106 665 106 699Q106 733 119 762.5Q132 792 154.5 813.5Q177 835 208 847.5Q239 860 276 860Q312 860 343.5 847.5Q375 835 397.5 813.5Q420 792 433 762.5Q446 733 446 699ZM336 699Q336 725 319.5 743.5Q303 762 276 762Q249 762 232 743.5Q215 725 215 699Q215 673 232 654.5Q249 636 276 636Q303 636 319.5 654.5Q336 673 336 699ZM202 222Q202 183 220.5 157Q239 131 283 131Q324 131 344 156Q364 181 364 219V474Q364 483 371.5 489Q379 495 388 495H514Q524 495 530.5 488.5Q537 482 537 472V23Q537 13 530.5 6.5Q524 0 514 0H388Q379 0 371.5 6Q364 12 364 21V39Q341 17 311.5 1Q282 -15 228 -15Q182 -15 145 0Q108 15 82.5 42.5Q57 70 43 108.5Q29 147 29 193V474Q29 483 36.5 489Q44 495 53 495H178Q187 495 194.5 489Q202 483 202 474Z" glyph-name="uring" horiz-adv-x="571" unicode="ů" /><glyph d="M366 964Q386 964 392 951Q398 938 390 925L292 762Q286 752 279.5 748.5Q273 745 263 745H182Q143 745 151 782L186 944Q191 964 214 964ZM611 964Q631 964 637 951Q643 938 635 925L537 762Q531 752 524.5 748.5Q518 745 508 745H427Q388 745 396 782L431 944Q436 964 459 964ZM647 257Q647 183 620.5 131.5Q594 80 551 47.5Q508 15 454 0Q400 -15 344 -15Q289 -15 234.5 0Q180 15 137 47.5Q94 80 67.5 131.5Q41 183 41 257V676Q41 686 48 693Q55 700 66 700H196Q207 700 214 693Q221 686 221 676V272Q221 217 253 183.5Q285 150 344 150Q403 150 435 183.5Q467 217 467 272V676Q467 686 474 693Q481 700 492 700H622Q633 700 640 693Q647 686 647 676Z" glyph-name="Uhungarumlaut" horiz-adv-x="688" unicode="Ű" /><glyph d="M298 759Q318 759 324 746Q330 733 322 720L224 557Q218 547 211.5 543.5Q205 540 195 540H114Q75 540 83 577L118 739Q123 759 146 759ZM543 759Q563 759 569 746Q575 733 567 720L469 557Q463 547 456.5 543.5Q450 540 440 540H359Q320 540 328 577L363 739Q368 759 391 759ZM202 222Q202 183 220.5 157Q239 131 283 131Q324 131 344 156Q364 181 364 219V474Q364 483 371.5 489Q379 495 388 495H514Q524 495 530.5 488.5Q537 482 537 472V23Q537 13 530.5 6.5Q524 0 514 0H388Q379 0 371.5 6Q364 12 364 21V39Q341 17 311.5 1Q282 -15 228 -15Q182 -15 145 0Q108 15 82.5 42.5Q57 70 43 108.5Q29 147 29 193V474Q29 483 36.5 489Q44 495 53 495H178Q187 495 194.5 489Q202 483 202 474Z" glyph-name="uhungarumlaut" horiz-adv-x="571" unicode="ű" /><glyph d="M421 -231Q360 -231 318.5 -204.5Q277 -178 277 -125Q277 -94 294 -66Q311 -38 335 -15Q281 -14 228 1.5Q175 17 133.5 49.5Q92 82 66.5 133.5Q41 185 41 257V676Q41 686 48 693Q55 700 66 700H196Q207 700 214 693Q221 686 221 676V272Q221 217 253 183.5Q285 150 344 150Q403 150 435 183.5Q467 217 467 272V676Q467 686 474 693Q481 700 492 700H622Q633 700 640 693Q647 686 647 676V257Q647 206 634 165.5Q621 125 598.5 94.5Q576 64 545 42.5Q514 21 479 8Q459 -21 445 -44Q431 -67 431 -80Q431 -92 439.5 -104.5Q448 -117 477 -117Q489 -117 498.5 -116Q508 -115 514 -115Q522 -115 528.5 -121Q535 -127 533 -145L527 -190Q524 -213 494 -222Q464 -231 421 -231Z" glyph-name="Uogonek" horiz-adv-x="688" unicode="Ų" /><glyph d="M539 -220Q536 -243 506 -252Q476 -261 433 -261Q372 -261 330.5 -234.5Q289 -208 289 -155Q289 -131 300 -108.5Q311 -86 328 -66Q345 -46 365.5 -29Q386 -12 406 0H388Q379 0 371.5 6Q364 12 364 21V39Q341 17 311.5 1Q282 -15 228 -15Q182 -15 145 0Q108 15 82.5 42.5Q57 70 43 108.5Q29 147 29 193V474Q29 483 36.5 489Q44 495 53 495H178Q187 495 194.5 489Q202 483 202 474V222Q202 183 220.5 157Q239 131 283 131Q324 131 344 156Q364 181 364 219V474Q364 483 371.5 489Q379 495 388 495H514Q524 495 530.5 488.5Q537 482 537 472V23Q537 13 530.5 6.5Q524 0 514 0H506Q480 -37 461.5 -65.5Q443 -94 443 -110Q443 -122 451.5 -134.5Q460 -147 489 -147Q501 -147 510.5 -146Q520 -145 526 -145Q534 -145 540.5 -151Q547 -157 545 -175Z" glyph-name="uogonek" horiz-adv-x="571" unicode="ų" /><glyph d="M584 964Q603 964 617 940L710 782Q721 765 712 755Q703 745 693 745H590Q576 745 570.5 749.5Q565 754 557 764L505 835L453 764Q445 754 439.5 749.5Q434 745 420 745H317Q307 745 298.5 755Q290 765 300 782L393 940Q407 964 426 964ZM845 25Q842 11 829 5.5Q816 0 814 0H617Q609 0 599.5 5.5Q590 11 586 25L506 410L423 25Q420 11 410 5.5Q400 0 392 0H185Q177 0 167 5.5Q157 11 154 25L9 659Q4 680 13 690Q22 700 37 700H184Q194 700 200.5 692.5Q207 685 209 676L296 217L396 678Q399 688 403 694Q407 700 420 700H587Q597 700 603.5 693.5Q610 687 612 678L713 222L799 676Q801 685 807.5 692.5Q814 700 824 700H962Q978 700 986.5 691.5Q995 683 990 659Z" glyph-name="Wcircumflex" horiz-adv-x="999" unicode="Ŵ" /><glyph d="M489 759Q508 759 522 735L615 577Q626 560 617 550Q608 540 598 540H495Q481 540 475.5 544.5Q470 549 462 559L410 630L358 559Q350 549 344.5 544.5Q339 540 325 540H222Q212 540 203.5 550Q195 560 205 577L298 735Q312 759 331 759ZM334 24Q331 14 323.5 7Q316 0 304 0H172Q160 0 152.5 7Q145 14 142 24L5 458Q-1 477 6 486Q13 495 29 495H159Q173 495 179.5 487.5Q186 480 188 471L248 211L324 473Q331 495 354 495H464Q487 495 494 473L570 211L634 471Q636 480 642.5 487.5Q649 495 663 495H778Q794 495 801 486Q808 477 802 458L664 24Q661 14 653.5 7Q646 0 634 0H503Q491 0 483.5 7Q476 14 473 24L403 268Z" glyph-name="wcircumflex" horiz-adv-x="807" unicode="ŵ" /><glyph d="M413 964Q432 964 446 940L539 782Q550 765 541 755Q532 745 522 745H419Q405 745 399.5 749.5Q394 754 386 764L334 835L282 764Q274 754 268.5 749.5Q263 745 249 745H146Q136 745 127.5 755Q119 765 129 782L222 940Q236 964 255 964ZM244 250 7 659Q-2 674 4.5 687Q11 700 26 700H186Q204 700 214 682L337 454H339L461 682Q471 700 489 700H642Q657 700 664.5 688.5Q672 677 661 659L424 250V25Q424 14 417 7Q410 0 400 0H269Q258 0 251 7Q244 14 244 25Z" glyph-name="Ycircumflex" horiz-adv-x="668" unicode="Ŷ" /><glyph d="M355 759Q374 759 388 735L481 577Q492 560 483 550Q474 540 464 540H361Q347 540 341.5 544.5Q336 549 328 559L276 630L224 559Q216 549 210.5 544.5Q205 540 191 540H88Q78 540 69.5 550Q61 560 71 577L164 735Q178 759 197 759ZM175 -237Q126 -237 85.5 -222.5Q45 -208 16 -184Q-3 -168 13 -142L56 -73Q67 -56 81.5 -56Q96 -56 107 -64Q118 -72 133 -79Q148 -86 164 -86Q181 -86 196 -79Q211 -72 219 -50L236 0H173Q161 0 153.5 7Q146 14 143 24L6 456Q1 471 5.5 483Q10 495 33 495H177Q187 495 193 487.5Q199 480 201 471L285 161L359 471Q361 480 367.5 487.5Q374 495 388 495H519Q536 495 541 484.5Q546 474 541 456L389 -67Q366 -146 312.5 -191.5Q259 -237 175 -237Z" glyph-name="ycircumflex" horiz-adv-x="548" unicode="ŷ" /><glyph d="M114 842Q114 863 122 881.5Q130 900 144 914Q158 928 176.5 936Q195 944 216 944Q237 944 255.5 936Q274 928 288 914Q302 900 310 881.5Q318 863 318 842Q318 821 310 802.5Q302 784 288 770Q274 756 255.5 748Q237 740 216 740Q195 740 176.5 748Q158 756 144 770Q130 784 122 802.5Q114 821 114 842ZM350 842Q350 863 358 881.5Q366 900 380 914Q394 928 412.5 936Q431 944 452 944Q473 944 491.5 936Q510 928 524 914Q538 900 546 881.5Q554 863 554 842Q554 821 546 802.5Q538 784 524 770Q510 756 491.5 748Q473 740 452 740Q431 740 412.5 748Q394 756 380 770Q366 784 358 802.5Q350 821 350 842ZM244 250 7 659Q-2 674 4.5 687Q11 700 26 700H186Q204 700 214 682L337 454H339L461 682Q471 700 489 700H642Q657 700 664.5 688.5Q672 677 661 659L424 250V25Q424 14 417 7Q410 0 400 0H269Q258 0 251 7Q244 14 244 25Z" glyph-name="Ydieresis" horiz-adv-x="668" unicode="Ÿ" /><glyph d="M451 964Q471 964 477 951Q483 938 475 925L377 762Q371 752 364.5 748.5Q358 745 348 745H267Q228 745 236 782L271 944Q276 964 299 964ZM41 0Q30 0 23 7Q16 14 16 25V111Q16 122 20.5 130Q25 138 30 145L343 542H59Q48 542 41 549Q34 556 34 566V675Q34 685 41 692.5Q48 700 59 700H555Q565 700 572 692.5Q579 685 579 675V572Q579 556 570 545L269 158H580Q590 158 597 151.5Q604 145 604 134V25Q604 14 597 7Q590 0 580 0Z" glyph-name="Zacute" horiz-adv-x="619" unicode="Ź" /></font>
</defs>
</svg>
